<svg width="24" height="25" viewBox="0 0 24 25" fill="none" xmlns="http://www.w3.org/2000/svg">
    <path d="M5 9.53855C5.00115 10.6399 5.26254 11.7254 5.76285 12.7066C6.26317 13.6878 6.98825 14.5368 7.879 15.1846L7.88 15.1856C8.45365 15.6055 9.08792 15.9356 9.761 16.1646L9.812 16.1836C10.1912 16.3068 10.5803 16.3975 10.975 16.4546C11.3138 16.5079 11.656 16.5363 11.999 16.5396H12C12.35 16.5396 12.69 16.5056 13.027 16.4556L13.209 16.4276C13.5457 16.3689 13.8727 16.2879 14.19 16.1846L14.232 16.1686C17 15.2326 19 12.6175 19 9.53855C19 5.67955 15.86 2.53955 12 2.53955C8.14 2.53955 5 5.67955 5 9.53855ZM12 4.53955C14.756 4.53955 17 6.78155 17 9.53855H15C14.9989 8.74332 14.6825 7.98097 14.1201 7.41875C13.5577 6.85653 12.7952 6.54034 12 6.53955V4.53955ZM7.521 17.3346V22.5396L12 21.0396L16.479 22.5396L16.48 17.3346C15.119 18.1237 13.5737 18.5393 12.0005 18.5393C10.4273 18.5393 8.88197 18.1237 7.521 17.3346Z" fill="url(#paint0_linear_349_1477)"/>
    <defs>
        <linearGradient id="paint0_linear_349_1477" x1="12" y1="2.53955" x2="12" y2="22.5396" gradientUnits="userSpaceOnUse">
            <stop stop-color="#FDAC0E"/>
            <stop offset="1" stop-color="#FE820F"/>
        </linearGradient>
    </defs>
</svg>
