<svg width="422" height="276" viewBox="0 0 422 276" fill="none" xmlns="http://www.w3.org/2000/svg">
<g clip-path="url(#clip0_401_1162)">
<path d="M38.1557 261.375C187.787 311.572 334.025 276.117 389.775 194.956C399.831 180.32 424.075 139.243 412.982 71.7451C395.923 19.4723 377.91 8.78341 365.217 7.9657C323.2 5.19679 319.774 109.526 224.271 157.964C168.678 186.159 114.785 179.415 62.9736 230.86C53.5515 240.242 45.2306 250.473 38.1557 261.375Z" fill="#482AFF"/>
</g>
<path opacity="0.1" d="M316.414 212.668C316.417 213.273 316.226 213.865 315.864 214.369C315.502 214.873 314.987 215.267 314.383 215.499C313.779 215.732 313.115 215.793 312.473 215.676C311.831 215.559 311.242 215.268 310.779 214.84C310.317 214.412 310.002 213.867 309.875 213.274C309.748 212.68 309.815 212.065 310.067 211.507C310.318 210.948 310.743 210.472 311.288 210.137C311.833 209.803 312.473 209.626 313.128 209.628C313.999 209.628 314.835 209.948 315.452 210.519C316.068 211.089 316.414 211.862 316.414 212.668Z" fill="url(#paint0_linear_401_1162)"/>
<path d="M55.438 152.212C56.5178 152.212 57.3931 151.402 57.3931 150.404C57.3931 149.405 56.5178 148.595 55.438 148.595C54.3582 148.595 53.4829 149.405 53.4829 150.404C53.4829 151.402 54.3582 152.212 55.438 152.212Z" fill="url(#paint1_linear_401_1162)"/>
<path opacity="0.1" d="M179.261 231.169C180.481 231.169 181.471 230.254 181.471 229.125C181.471 227.996 180.481 227.081 179.261 227.081C178.04 227.081 177.051 227.996 177.051 229.125C177.051 230.254 178.04 231.169 179.261 231.169Z" fill="url(#paint2_linear_401_1162)"/>
<path d="M21.2101 217.005C22.4307 217.005 23.4202 216.09 23.4202 214.961C23.4202 213.832 22.4307 212.917 21.2101 212.917C19.9895 212.917 19 213.832 19 214.961C19 216.09 19.9895 217.005 21.2101 217.005Z" fill="url(#paint3_linear_401_1162)"/>
<path d="M284.51 207.977C284.51 208.216 284.433 208.449 284.29 208.647C284.147 208.845 283.943 209 283.705 209.091C283.467 209.182 283.205 209.206 282.952 209.159C282.699 209.113 282.467 208.998 282.285 208.83C282.102 208.661 281.978 208.446 281.928 208.212C281.878 207.979 281.903 207.736 282.002 207.516C282.101 207.296 282.268 207.107 282.482 206.975C282.696 206.842 282.948 206.772 283.206 206.772C283.552 206.772 283.883 206.899 284.128 207.125C284.372 207.351 284.51 207.657 284.51 207.977Z" fill="url(#paint4_linear_401_1162)"/>
<path d="M242.844 248.491C243.564 248.491 244.147 247.951 244.147 247.286C244.147 246.62 243.564 246.08 242.844 246.08C242.124 246.08 241.541 246.62 241.541 247.286C241.541 247.951 242.124 248.491 242.844 248.491Z" fill="url(#paint5_linear_401_1162)"/>
<path opacity="0.5" d="M218.051 191.376C218.054 191.615 217.98 191.849 217.838 192.049C217.697 192.249 217.494 192.406 217.256 192.499C217.018 192.592 216.756 192.618 216.502 192.573C216.248 192.528 216.015 192.414 215.831 192.246C215.647 192.078 215.522 191.863 215.47 191.629C215.419 191.395 215.444 191.152 215.542 190.931C215.64 190.71 215.807 190.521 216.022 190.388C216.237 190.255 216.489 190.184 216.748 190.184C217.091 190.184 217.42 190.309 217.664 190.532C217.908 190.755 218.047 191.059 218.051 191.376Z" fill="url(#paint6_linear_401_1162)"/>
<path d="M101.964 192.582C101.964 192.82 101.888 193.053 101.745 193.251C101.601 193.45 101.398 193.604 101.16 193.695C100.921 193.787 100.659 193.81 100.407 193.764C100.154 193.717 99.9214 193.603 99.7392 193.434C99.5569 193.265 99.4328 193.051 99.3825 192.817C99.3322 192.583 99.358 192.341 99.4567 192.12C99.5553 191.9 99.7223 191.712 99.9367 191.579C100.151 191.447 100.403 191.376 100.661 191.376C101.007 191.376 101.338 191.503 101.582 191.729C101.827 191.955 101.964 192.262 101.964 192.582Z" fill="url(#paint7_linear_401_1162)"/>
<path opacity="0.2" d="M354.156 116.69C354.159 116.93 354.084 117.165 353.942 117.365C353.8 117.565 353.597 117.722 353.358 117.814C353.119 117.907 352.856 117.932 352.602 117.886C352.348 117.84 352.114 117.725 351.931 117.556C351.748 117.386 351.623 117.17 351.574 116.935C351.524 116.7 351.551 116.457 351.651 116.236C351.752 116.015 351.921 115.827 352.137 115.696C352.354 115.564 352.608 115.495 352.867 115.498C353.208 115.501 353.533 115.628 353.774 115.851C354.015 116.074 354.152 116.375 354.156 116.69Z" fill="url(#paint8_linear_401_1162)"/>
<path d="M92.7551 276.007C93.4749 276.007 94.0584 275.467 94.0584 274.802C94.0584 274.136 93.4749 273.596 92.7551 273.596C92.0352 273.596 91.4517 274.136 91.4517 274.802C91.4517 275.467 92.0352 276.007 92.7551 276.007Z" fill="url(#paint9_linear_401_1162)"/>
<path d="M270.101 140.354C270.101 140.592 270.025 140.825 269.882 141.023C269.739 141.222 269.535 141.376 269.297 141.467C269.059 141.559 268.797 141.583 268.544 141.536C268.291 141.49 268.059 141.375 267.876 141.206C267.694 141.038 267.57 140.823 267.52 140.589C267.469 140.355 267.495 140.113 267.594 139.892C267.692 139.672 267.859 139.484 268.074 139.351C268.288 139.219 268.54 139.148 268.798 139.148C269.144 139.148 269.475 139.275 269.72 139.501C269.964 139.727 270.101 140.034 270.101 140.354Z" fill="url(#paint10_linear_401_1162)"/>
<path opacity="0.2" d="M322.804 130.527C324.024 130.527 325.014 129.611 325.014 128.483C325.014 127.354 324.024 126.438 322.804 126.438C321.583 126.438 320.594 127.354 320.594 128.483C320.594 129.611 321.583 130.527 322.804 130.527Z" fill="url(#paint11_linear_401_1162)"/>
<path opacity="0.1" d="M384.956 193.237C384.956 193.838 384.763 194.426 384.402 194.925C384.041 195.425 383.528 195.815 382.927 196.045C382.326 196.275 381.665 196.335 381.028 196.218C380.39 196.101 379.805 195.811 379.345 195.386C378.885 194.961 378.572 194.419 378.446 193.83C378.319 193.24 378.384 192.629 378.632 192.073C378.881 191.518 379.303 191.043 379.843 190.709C380.384 190.375 381.019 190.197 381.669 190.197C382.541 190.197 383.377 190.517 383.993 191.087C384.61 191.657 384.956 192.43 384.956 193.237Z" fill="url(#paint12_linear_401_1162)"/>
<path d="M401.404 55.6966L400.582 53.6919C400.559 53.6347 400.517 53.5856 400.463 53.5509C400.408 53.5161 400.344 53.4976 400.278 53.4976C400.212 53.4976 400.147 53.5161 400.093 53.5509C400.038 53.5856 399.997 53.6347 399.973 53.6919L399.151 55.6966C399.134 55.7348 399.109 55.7695 399.078 55.7987C399.046 55.828 399.009 55.8511 398.967 55.8669L396.8 56.64C396.736 56.6583 396.681 56.6949 396.642 56.7444C396.602 56.7939 396.581 56.8537 396.581 56.9152C396.581 56.9766 396.602 57.0364 396.642 57.0859C396.681 57.1354 396.736 57.172 396.8 57.1903L398.967 57.9503C399.048 57.9854 399.114 58.0457 399.151 58.1206L399.973 60.1385C399.997 60.1956 400.038 60.2448 400.093 60.2795C400.147 60.3142 400.212 60.3328 400.278 60.3328C400.344 60.3328 400.408 60.3142 400.463 60.2795C400.517 60.2448 400.559 60.1956 400.582 60.1385L401.404 58.1206C401.421 58.0824 401.446 58.0477 401.478 58.0185C401.509 57.9893 401.547 57.9661 401.588 57.9503L403.756 57.1903C403.819 57.172 403.875 57.1354 403.914 57.0859C403.953 57.0364 403.975 56.9766 403.975 56.9152C403.975 56.8537 403.953 56.7939 403.914 56.7444C403.875 56.6949 403.819 56.6583 403.756 56.64L401.588 55.8669C401.546 55.8533 401.507 55.8309 401.475 55.8014C401.443 55.7719 401.419 55.7361 401.404 55.6966Z" fill="url(#paint13_linear_401_1162)"/>
<path d="M425.744 180.317L424.908 178.299C424.883 178.246 424.841 178.201 424.788 178.169C424.735 178.138 424.674 178.121 424.611 178.121C424.548 178.121 424.486 178.138 424.433 178.169C424.38 178.201 424.339 178.246 424.313 178.299L423.491 180.317C423.453 180.392 423.388 180.452 423.307 180.487L421.125 181.247C421.068 181.271 421.019 181.31 420.985 181.359C420.951 181.407 420.933 181.464 420.933 181.523C420.933 181.581 420.951 181.638 420.985 181.687C421.019 181.735 421.068 181.774 421.125 181.798L423.307 182.571C423.349 182.587 423.386 182.61 423.418 182.639C423.449 182.668 423.474 182.703 423.491 182.741L424.313 184.746C424.333 184.805 424.373 184.856 424.426 184.892C424.48 184.929 424.544 184.948 424.611 184.948C424.677 184.948 424.742 184.929 424.795 184.892C424.849 184.856 424.888 184.805 424.908 184.746L425.744 182.741C425.759 182.702 425.783 182.666 425.815 182.636C425.847 182.607 425.886 182.584 425.928 182.571L428.096 181.798C428.159 181.779 428.215 181.743 428.254 181.693C428.293 181.644 428.315 181.584 428.315 181.523C428.315 181.461 428.293 181.401 428.254 181.352C428.215 181.302 428.159 181.266 428.096 181.247L425.942 180.461C425.859 180.439 425.788 180.387 425.744 180.317Z" fill="url(#paint14_linear_401_1162)"/>
<path d="M344.305 172.876L342.888 169.547C342.847 169.457 342.778 169.38 342.69 169.326C342.602 169.272 342.498 169.243 342.392 169.243C342.286 169.243 342.183 169.272 342.095 169.326C342.007 169.38 341.938 169.457 341.896 169.547L340.48 172.876C340.454 172.94 340.415 172.999 340.363 173.048C340.312 173.098 340.251 173.137 340.182 173.164L336.569 174.474C336.472 174.512 336.389 174.576 336.33 174.658C336.272 174.739 336.241 174.835 336.241 174.933C336.241 175.031 336.272 175.126 336.33 175.208C336.389 175.289 336.472 175.353 336.569 175.391L340.182 176.702C340.251 176.724 340.314 176.76 340.365 176.807C340.417 176.855 340.456 176.913 340.48 176.977L341.896 180.318C341.938 180.408 342.007 180.485 342.095 180.539C342.183 180.593 342.286 180.622 342.392 180.622C342.498 180.622 342.602 180.593 342.69 180.539C342.778 180.485 342.847 180.408 342.888 180.318L344.305 176.977C344.33 176.914 344.37 176.857 344.422 176.809C344.473 176.762 344.535 176.725 344.602 176.702L348.215 175.391C348.312 175.353 348.396 175.289 348.454 175.208C348.513 175.126 348.544 175.031 348.544 174.933C348.544 174.835 348.513 174.739 348.454 174.658C348.396 174.576 348.312 174.512 348.215 174.474L344.602 173.164C344.467 173.107 344.36 173.003 344.305 172.876Z" fill="url(#paint15_linear_401_1162)"/>
<path d="M212.554 275.653L211.988 274.278C211.969 274.241 211.94 274.211 211.904 274.189C211.867 274.168 211.825 274.156 211.782 274.156C211.739 274.156 211.697 274.168 211.66 274.189C211.624 274.211 211.595 274.241 211.577 274.278L211.01 275.653C210.999 275.68 210.981 275.704 210.96 275.724C210.938 275.745 210.911 275.761 210.882 275.771L209.466 276.295C209.42 276.306 209.38 276.331 209.352 276.365C209.323 276.4 209.308 276.442 209.308 276.485C209.308 276.529 209.323 276.571 209.352 276.605C209.38 276.64 209.42 276.664 209.466 276.675L210.882 277.213C210.911 277.223 210.938 277.239 210.96 277.259C210.981 277.28 210.999 277.304 211.01 277.33L211.577 278.641C211.595 278.677 211.624 278.708 211.66 278.729C211.697 278.75 211.739 278.762 211.782 278.762C211.825 278.762 211.867 278.75 211.904 278.729C211.94 278.708 211.969 278.677 211.988 278.641L212.554 277.33C212.566 277.304 212.583 277.28 212.605 277.259C212.627 277.239 212.653 277.223 212.682 277.213L214.098 276.675C214.144 276.664 214.184 276.64 214.212 276.605C214.241 276.571 214.256 276.529 214.256 276.485C214.256 276.442 214.241 276.4 214.212 276.365C214.184 276.331 214.144 276.306 214.098 276.295L212.682 275.771C212.653 275.761 212.627 275.745 212.605 275.724C212.583 275.704 212.566 275.68 212.554 275.653Z" fill="url(#paint16_linear_401_1162)"/>
<path d="M241.413 202.265L240.832 200.954C240.814 200.918 240.785 200.888 240.748 200.866C240.712 200.845 240.669 200.833 240.626 200.833C240.583 200.833 240.541 200.845 240.505 200.866C240.468 200.888 240.439 200.918 240.421 200.954L239.854 202.265C239.846 202.293 239.83 202.318 239.807 202.339C239.785 202.36 239.757 202.375 239.727 202.382L238.31 202.92C238.271 202.937 238.238 202.963 238.215 202.997C238.191 203.031 238.179 203.07 238.179 203.11C238.179 203.15 238.191 203.189 238.215 203.222C238.238 203.256 238.271 203.283 238.31 203.3L239.727 203.824C239.756 203.834 239.782 203.85 239.804 203.871C239.826 203.891 239.843 203.915 239.854 203.942L240.421 205.318C240.439 205.354 240.468 205.384 240.505 205.406C240.541 205.427 240.583 205.439 240.626 205.439C240.669 205.439 240.712 205.427 240.748 205.406C240.785 205.384 240.814 205.354 240.832 205.318L241.413 203.942C241.42 203.913 241.436 203.887 241.458 203.866C241.481 203.845 241.509 203.83 241.54 203.824L243.028 203.3C243.067 203.283 243.1 203.256 243.123 203.222C243.146 203.189 243.159 203.15 243.159 203.11C243.159 203.07 243.146 203.031 243.123 202.997C243.1 202.963 243.067 202.937 243.028 202.92L241.54 202.382C241.508 202.377 241.479 202.363 241.456 202.342C241.433 202.321 241.418 202.294 241.413 202.265Z" fill="url(#paint17_linear_401_1162)"/>
<path d="M32.5156 171.512L31.9489 170.123C31.9307 170.087 31.9016 170.056 31.8652 170.035C31.8288 170.014 31.7866 170.002 31.7435 170.002C31.7003 170.002 31.6581 170.014 31.6217 170.035C31.5853 170.056 31.5563 170.087 31.538 170.123L30.9714 171.512C30.9599 171.537 30.9424 171.56 30.9204 171.578C30.8983 171.596 30.8722 171.609 30.8438 171.617L29.4271 172.154C29.3818 172.165 29.3417 172.19 29.3131 172.224C29.2845 172.259 29.269 172.301 29.269 172.344C29.269 172.387 29.2845 172.43 29.3131 172.464C29.3417 172.498 29.3818 172.523 29.4271 172.534L30.8438 173.058C30.8991 173.084 30.9439 173.125 30.9714 173.176L31.538 174.552C31.55 174.594 31.5767 174.631 31.6139 174.657C31.651 174.684 31.6966 174.698 31.7435 174.698C31.7904 174.698 31.8359 174.684 31.8731 174.657C31.9103 174.631 31.9369 174.594 31.9489 174.552L32.5156 173.176C32.5431 173.125 32.5879 173.084 32.6431 173.058L34.1449 172.534C34.184 172.517 34.2171 172.49 34.2402 172.457C34.2634 172.423 34.2757 172.384 34.2757 172.344C34.2757 172.304 34.2634 172.265 34.2402 172.232C34.2171 172.198 34.184 172.171 34.1449 172.154L32.6431 171.617C32.6148 171.609 32.5886 171.596 32.5665 171.578C32.5444 171.56 32.5271 171.537 32.5156 171.512Z" fill="url(#paint18_linear_401_1162)"/>
<path d="M39.4862 254.479L38.6646 252.475C38.6448 252.416 38.6053 252.365 38.5517 252.328C38.4982 252.292 38.4335 252.272 38.367 252.272C38.3006 252.272 38.236 252.292 38.1824 252.328C38.1289 252.365 38.0893 252.416 38.0695 252.475L37.2337 254.479C37.219 254.519 37.1947 254.555 37.1628 254.584C37.1309 254.614 37.0922 254.636 37.0495 254.65L34.8819 255.423C34.8184 255.441 34.7631 255.478 34.7237 255.527C34.6843 255.577 34.6631 255.636 34.6631 255.698C34.6631 255.759 34.6843 255.819 34.7237 255.869C34.7631 255.918 34.8184 255.955 34.8819 255.973L37.0495 256.733C37.0908 256.749 37.1283 256.772 37.1599 256.801C37.1915 256.83 37.2166 256.865 37.2337 256.903L38.0695 258.921C38.0952 258.974 38.137 259.019 38.1898 259.051C38.2426 259.083 38.3041 259.1 38.367 259.1C38.43 259.1 38.4916 259.083 38.5444 259.051C38.5972 259.019 38.6389 258.974 38.6646 258.921L39.4862 256.903C39.5242 256.828 39.5894 256.768 39.6704 256.733L41.8522 255.973C41.9097 255.949 41.9584 255.911 41.9927 255.862C42.0269 255.813 42.0452 255.756 42.0452 255.698C42.0452 255.64 42.0269 255.583 41.9927 255.534C41.9584 255.485 41.9097 255.446 41.8522 255.423L39.6704 254.65C39.6291 254.634 39.5916 254.611 39.56 254.581C39.5284 254.552 39.5033 254.517 39.4862 254.479Z" fill="url(#paint19_linear_401_1162)"/>
<path d="M126.052 244.504L125.216 242.486C125.191 242.433 125.149 242.388 125.096 242.356C125.043 242.324 124.982 242.307 124.919 242.307C124.856 242.307 124.794 242.324 124.741 242.356C124.689 242.388 124.647 242.433 124.621 242.486L123.785 244.504C123.768 244.542 123.743 244.577 123.712 244.606C123.68 244.635 123.642 244.658 123.601 244.674L121.434 245.434C121.376 245.458 121.327 245.496 121.293 245.545C121.259 245.594 121.241 245.651 121.241 245.709C121.241 245.767 121.259 245.824 121.293 245.873C121.327 245.922 121.376 245.961 121.434 245.984L123.601 246.757C123.644 246.771 123.683 246.793 123.714 246.823C123.746 246.852 123.771 246.888 123.785 246.928L124.621 248.932C124.647 248.986 124.689 249.031 124.741 249.062C124.794 249.094 124.856 249.111 124.919 249.111C124.982 249.111 125.043 249.094 125.096 249.062C125.149 249.031 125.191 248.986 125.216 248.932L126.052 246.928C126.067 246.888 126.091 246.852 126.123 246.823C126.155 246.793 126.194 246.771 126.236 246.757L128.404 245.984C128.461 245.961 128.51 245.922 128.544 245.873C128.579 245.824 128.597 245.767 128.597 245.709C128.597 245.651 128.579 245.594 128.544 245.545C128.51 245.496 128.461 245.458 128.404 245.434L126.236 244.674C126.195 244.658 126.158 244.635 126.126 244.606C126.094 244.577 126.069 244.542 126.052 244.504Z" fill="url(#paint20_linear_401_1162)"/>
<path d="M76.0639 214.911L75.2421 212.906C75.2186 212.849 75.177 212.8 75.1226 212.765C75.0682 212.73 75.0036 212.712 74.9375 212.712C74.8714 212.712 74.8069 212.73 74.7525 212.765C74.6981 212.8 74.6564 212.849 74.633 212.906L73.8113 214.911C73.7942 214.949 73.7691 214.984 73.7375 215.013C73.7059 215.042 73.6684 215.065 73.6271 215.081L71.4595 215.854C71.3961 215.873 71.3406 215.909 71.3013 215.959C71.2619 216.008 71.2407 216.068 71.2407 216.13C71.2407 216.191 71.2619 216.251 71.3013 216.3C71.3406 216.35 71.3961 216.386 71.4595 216.405L73.6271 217.178C73.6684 217.194 73.7059 217.217 73.7375 217.246C73.7691 217.275 73.7942 217.31 73.8113 217.348L74.633 219.353C74.6564 219.41 74.6981 219.459 74.7525 219.494C74.8069 219.529 74.8714 219.547 74.9375 219.547C75.0036 219.547 75.0682 219.529 75.1226 219.494C75.177 219.459 75.2186 219.41 75.2421 219.353L76.0639 217.348C76.0786 217.309 76.1029 217.273 76.1348 217.243C76.1667 217.214 76.2054 217.191 76.2481 217.178L78.4157 216.405C78.4791 216.386 78.5344 216.35 78.5738 216.3C78.6131 216.251 78.6345 216.191 78.6345 216.13C78.6345 216.068 78.6131 216.008 78.5738 215.959C78.5344 215.909 78.4791 215.873 78.4157 215.854L76.2481 215.081C76.2054 215.068 76.1667 215.045 76.1348 215.016C76.1029 214.986 76.0786 214.95 76.0639 214.911Z" fill="url(#paint21_linear_401_1162)"/>
<defs>
<linearGradient id="paint0_linear_401_1162" x1="309.827" y1="212.668" x2="316.414" y2="212.668" gradientUnits="userSpaceOnUse">
<stop stop-color="#F0FF5F"/>
<stop offset="1" stop-color="#DE7C00"/>
</linearGradient>
<linearGradient id="paint1_linear_401_1162" x1="56.9397" y1="151.91" x2="54.1244" y2="148.586" gradientUnits="userSpaceOnUse">
<stop stop-color="#F0FF5F"/>
<stop offset="1" stop-color="#DE7C00"/>
</linearGradient>
<linearGradient id="paint2_linear_401_1162" x1="177.051" y1="229.125" x2="181.471" y2="229.125" gradientUnits="userSpaceOnUse">
<stop stop-color="#F0FF5F"/>
<stop offset="1" stop-color="#DE7C00"/>
</linearGradient>
<linearGradient id="paint3_linear_401_1162" x1="19" y1="214.961" x2="23.4202" y2="214.961" gradientUnits="userSpaceOnUse">
<stop stop-color="#F0FF5F"/>
<stop offset="1" stop-color="#DE7C00"/>
</linearGradient>
<linearGradient id="paint4_linear_401_1162" x1="281.903" y1="207.977" x2="284.51" y2="207.977" gradientUnits="userSpaceOnUse">
<stop stop-color="#F0FF5F"/>
<stop offset="1" stop-color="#DE7C00"/>
</linearGradient>
<linearGradient id="paint5_linear_401_1162" x1="241.555" y1="247.286" x2="244.147" y2="247.286" gradientUnits="userSpaceOnUse">
<stop stop-color="#F0FF5F"/>
<stop offset="1" stop-color="#DE7C00"/>
</linearGradient>
<linearGradient id="paint6_linear_401_1162" x1="215.444" y1="191.376" x2="218.051" y2="191.376" gradientUnits="userSpaceOnUse">
<stop stop-color="#F0FF5F"/>
<stop offset="1" stop-color="#DE7C00"/>
</linearGradient>
<linearGradient id="paint7_linear_401_1162" x1="99.3716" y1="192.582" x2="101.964" y2="192.582" gradientUnits="userSpaceOnUse">
<stop stop-color="#F0FF5F"/>
<stop offset="1" stop-color="#DE7C00"/>
</linearGradient>
<linearGradient id="paint8_linear_401_1162" x1="351.563" y1="116.69" x2="354.156" y2="116.69" gradientUnits="userSpaceOnUse">
<stop stop-color="#F0FF5F"/>
<stop offset="1" stop-color="#DE7C00"/>
</linearGradient>
<linearGradient id="paint9_linear_401_1162" x1="91.4517" y1="274.802" x2="94.0443" y2="274.802" gradientUnits="userSpaceOnUse">
<stop stop-color="#F0FF5F"/>
<stop offset="1" stop-color="#DE7C00"/>
</linearGradient>
<linearGradient id="paint10_linear_401_1162" x1="267.509" y1="140.354" x2="270.101" y2="140.354" gradientUnits="userSpaceOnUse">
<stop stop-color="#F0FF5F"/>
<stop offset="1" stop-color="#DE7C00"/>
</linearGradient>
<linearGradient id="paint11_linear_401_1162" x1="320.594" y1="128.483" x2="325.014" y2="128.483" gradientUnits="userSpaceOnUse">
<stop stop-color="#F0FF5F"/>
<stop offset="1" stop-color="#DE7C00"/>
</linearGradient>
<linearGradient id="paint12_linear_401_1162" x1="378.382" y1="193.237" x2="384.956" y2="193.237" gradientUnits="userSpaceOnUse">
<stop stop-color="#F0FF5F"/>
<stop offset="1" stop-color="#DE7C00"/>
</linearGradient>
<linearGradient id="paint13_linear_401_1162" x1="397.423" y1="54.4387" x2="407.521" y2="64.6473" gradientUnits="userSpaceOnUse">
<stop stop-color="#F0FF5F"/>
<stop offset="1" stop-color="#DE7C00"/>
</linearGradient>
<linearGradient id="paint14_linear_401_1162" x1="420.927" y1="181.523" x2="428.308" y2="181.523" gradientUnits="userSpaceOnUse">
<stop stop-color="#F0FF5F"/>
<stop offset="1" stop-color="#DE7C00"/>
</linearGradient>
<linearGradient id="paint15_linear_401_1162" x1="336.3" y1="174.893" x2="348.555" y2="174.893" gradientUnits="userSpaceOnUse">
<stop stop-color="#F0FF5F"/>
<stop offset="1" stop-color="#DE7C00"/>
</linearGradient>
<linearGradient id="paint16_linear_401_1162" x1="208.191" y1="274.055" x2="224.912" y2="287.304" gradientUnits="userSpaceOnUse">
<stop stop-color="#F0FF5F"/>
<stop offset="1" stop-color="#DE7C00"/>
</linearGradient>
<linearGradient id="paint17_linear_401_1162" x1="238.098" y1="203.103" x2="243.17" y2="203.103" gradientUnits="userSpaceOnUse">
<stop stop-color="#F0FF5F"/>
<stop offset="1" stop-color="#DE7C00"/>
</linearGradient>
<linearGradient id="paint18_linear_401_1162" x1="29.5688" y1="170.176" x2="34.7638" y2="176.228" gradientUnits="userSpaceOnUse">
<stop stop-color="#F0FF5F"/>
<stop offset="1" stop-color="#DE7C00"/>
</linearGradient>
<linearGradient id="paint19_linear_401_1162" x1="34.6694" y1="255.698" x2="42.0506" y2="255.698" gradientUnits="userSpaceOnUse">
<stop stop-color="#F0FF5F"/>
<stop offset="1" stop-color="#DE7C00"/>
</linearGradient>
<linearGradient id="paint20_linear_401_1162" x1="121.235" y1="245.709" x2="128.602" y2="245.709" gradientUnits="userSpaceOnUse">
<stop stop-color="#F0FF5F"/>
<stop offset="1" stop-color="#DE7C00"/>
</linearGradient>
<linearGradient id="paint21_linear_401_1162" x1="70.1986" y1="211.989" x2="86.1525" y2="228.303" gradientUnits="userSpaceOnUse">
<stop stop-color="#F0FF5F"/>
<stop offset="1" stop-color="#DE7C00"/>
</linearGradient>
<clipPath id="clip0_401_1162">
<rect width="406.681" height="239.41" fill="white" transform="translate(0 86.8679) rotate(-12.3335)"/>
</clipPath>
</defs>
</svg>
