<svg width="24" height="25" viewBox="0 0 24 25" fill="none" xmlns="http://www.w3.org/2000/svg">
    <path d="M21 12.5396V19.5396C21 20.07 20.7893 20.5787 20.4142 20.9538C20.0391 21.3288 19.5304 21.5396 19 21.5396H5C4.46957 21.5396 3.96086 21.3288 3.58579 20.9538C3.21071 20.5787 3 20.07 3 19.5396V12.5396H21ZM16 3.53955C16.2652 3.53955 16.5196 3.64491 16.7071 3.83244C16.8946 4.01998 17 4.27433 17 4.53955V5.53955H19C19.5304 5.53955 20.0391 5.75026 20.4142 6.12534C20.7893 6.50041 21 7.00912 21 7.53955V10.5396H3V7.53955C3 7.00912 3.21071 6.50041 3.58579 6.12534C3.96086 5.75026 4.46957 5.53955 5 5.53955H7V4.53955C7 4.27433 7.10536 4.01998 7.29289 3.83244C7.48043 3.64491 7.73478 3.53955 8 3.53955C8.26522 3.53955 8.51957 3.64491 8.70711 3.83244C8.89464 4.01998 9 4.27433 9 4.53955V5.53955H15V4.53955C15 4.27433 15.1054 4.01998 15.2929 3.83244C15.4804 3.64491 15.7348 3.53955 16 3.53955Z" fill="url(#paint0_linear_349_1481)"/>
    <defs>
        <linearGradient id="paint0_linear_349_1481" x1="12" y1="3.53955" x2="12" y2="21.5396" gradientUnits="userSpaceOnUse">
            <stop stop-color="#FDAC0E"/>
            <stop offset="1" stop-color="#FE820F"/>
        </linearGradient>
    </defs>
</svg>
