<svg width="432" height="317" viewBox="0 0 432 317" fill="none" xmlns="http://www.w3.org/2000/svg">
    <path d="M133.906 243.87C133.906 245.034 133.541 246.173 132.856 247.141C132.171 248.109 131.197 248.864 130.058 249.309C128.919 249.755 127.666 249.872 126.456 249.644C125.247 249.417 124.137 248.856 123.265 248.033C122.393 247.21 121.799 246.161 121.559 245.019C121.318 243.876 121.442 242.693 121.913 241.617C122.385 240.541 123.184 239.622 124.209 238.975C125.234 238.328 126.44 237.982 127.673 237.982C129.326 237.982 130.911 238.603 132.08 239.707C133.249 240.811 133.906 242.308 133.906 243.87Z" fill="url(#paint0_linear_162_665)"/>
    <path d="M404.063 49.065C410.617 29.5296 399.162 8.6754 378.478 2.48591C357.794 -3.70359 335.714 7.1154 329.161 26.6508C322.608 46.1863 334.063 67.0404 354.746 73.2299C375.43 79.4194 397.51 68.6004 404.063 49.065Z" fill="url(#paint1_linear_162_665)"/>
    <path opacity="0.1" d="M399.501 17.614C400.011 18.3633 400.506 19.126 400.917 19.9021C414.858 19.8085 424.279 22.0163 425.257 26.4052C426.234 30.7941 418.499 36.4274 405.607 41.6459C394.001 46.1581 381.966 49.6126 369.664 51.9625C357.406 54.4922 344.92 55.9081 332.376 56.1909C318.35 56.3247 308.858 54.1035 307.881 49.7146C306.903 45.3257 314.596 39.7325 327.389 34.5273C327.474 33.6308 327.587 32.7343 327.757 31.8512C310.643 38.2204 300.032 45.4461 301.264 51.0125C302.497 56.5789 315.432 59.1748 333.849 58.4656C346.039 57.904 358.159 56.4003 370.089 53.9697C382.044 51.6624 393.777 48.4267 405.168 44.2953C422.395 37.9127 433.091 30.6603 431.845 25.0671C430.598 19.4739 417.876 16.9316 399.501 17.614Z" fill="url(#paint2_linear_162_665)"/>
    <path d="M63.2767 297.946C76.3915 289.924 80.1373 273.379 71.6432 260.992C63.1491 248.605 45.6315 245.067 32.5166 253.09C19.4018 261.112 15.6559 277.658 24.15 290.044C32.6442 302.431 50.1618 305.969 63.2767 297.946Z" fill="url(#paint3_linear_162_665)"/>
    <path d="M75.7206 270.846C75.8481 271.475 75.9473 272.104 76.0181 272.746C85.2836 276.385 90.8797 280.36 90.1855 283.531C89.4913 286.702 82.7192 288.375 72.618 288.415C63.5756 288.333 54.5622 287.437 45.7 285.739C36.8176 284.164 28.1165 281.784 19.7172 278.633C10.381 274.994 4.74232 271.006 5.40818 267.835C6.07405 264.664 12.8319 262.991 22.8765 262.951C23.1906 262.377 23.5358 261.819 23.9107 261.279C10.6643 260.957 1.46967 262.924 0.633802 266.952C-0.20207 270.98 7.57579 276.104 20.0289 280.56C36.5808 286.218 53.9535 289.445 71.5412 290.128C84.8585 290.462 94.1098 288.508 94.9457 284.467C95.7815 280.426 88.117 275.261 75.7206 270.846Z" fill="url(#paint4_linear_162_665)"/>
    <path d="M254.768 301.367C254.77 304.396 253.822 307.358 252.042 309.877C250.262 312.396 247.731 314.36 244.769 315.521C241.807 316.681 238.547 316.985 235.402 316.395C232.257 315.805 229.367 314.347 227.1 312.205C224.832 310.063 223.288 307.335 222.664 304.364C222.039 301.393 222.361 298.314 223.589 295.517C224.818 292.719 226.897 290.328 229.565 288.647C232.232 286.966 235.368 286.071 238.574 286.073C242.868 286.077 246.985 287.689 250.021 290.557C253.057 293.424 254.764 297.312 254.768 301.367Z" fill="url(#paint5_linear_162_665)"/>
    <defs>
        <linearGradient id="paint0_linear_162_665" x1="121.793" y1="239.816" x2="132.888" y2="248.381" gradientUnits="userSpaceOnUse">
            <stop stop-color="#F0FF5F"/>
            <stop offset="1" stop-color="#DE7C00"/>
        </linearGradient>
        <linearGradient id="paint1_linear_162_665" x1="336.138" y1="14.4099" x2="394.284" y2="64.4826" gradientUnits="userSpaceOnUse">
            <stop stop-color="#2F00DE"/>
            <stop offset="1" stop-color="#2F42FF"/>
        </linearGradient>
        <linearGradient id="paint2_linear_162_665" x1="332.404" y1="11.78" x2="397.674" y2="67.9781" gradientUnits="userSpaceOnUse">
            <stop stop-color="#1B88E8"/>
            <stop offset="1" stop-color="#65CAEE"/>
        </linearGradient>
        <linearGradient id="paint3_linear_162_665" x1="71.6328" y1="259.759" x2="27.1914" y2="292.748" gradientUnits="userSpaceOnUse">
            <stop stop-color="#F0FF5F"/>
            <stop offset="1" stop-color="#DE7C00"/>
        </linearGradient>
        <linearGradient id="paint4_linear_162_665" x1="99.72" y1="265.841" x2="10.71" y2="284.684" gradientUnits="userSpaceOnUse">
            <stop stop-color="#F0FF5F"/>
            <stop offset="1" stop-color="#DE7C00"/>
        </linearGradient>
        <linearGradient id="paint5_linear_162_665" x1="223.245" y1="290.81" x2="252.137" y2="313.122" gradientUnits="userSpaceOnUse">
            <stop stop-color="#F0FF5F"/>
            <stop offset="1" stop-color="#DE7C00"/>
        </linearGradient>
    </defs>
</svg>
