<svg width="20" height="12" viewBox="0 0 20 12" fill="none" xmlns="http://www.w3.org/2000/svg">
    <path d="M19.5462 0.939428C19.2649 0.658221 18.8834 0.500248 18.4857 0.500248C18.0879 0.500248 17.7065 0.658221 17.4252 0.939428L10.0002 8.36443L2.57517 0.939428C2.29227 0.666191 1.91336 0.514999 1.52007 0.518417C1.12677 0.521834 0.750555 0.679588 0.472443 0.9577C0.19433 1.23581 0.0365791 1.61203 0.0331612 2.00533C0.0297432 2.39862 0.180935 2.77752 0.454172 3.06043L8.93967 11.5459C9.22096 11.8271 9.60243 11.9851 10.0002 11.9851C10.3979 11.9851 10.7794 11.8271 11.0607 11.5459L19.5462 3.06043C19.8274 2.77914 19.9854 2.39767 19.9854 1.99993C19.9854 1.60218 19.8274 1.22072 19.5462 0.939428Z" fill="#55C9FD"/>
</svg>
