<svg width="704" height="543" viewBox="0 0 704 543" fill="none" xmlns="http://www.w3.org/2000/svg">
    <path d="M583.334 433.522C584.343 432.492 587.104 431.681 586.594 434.026C582.319 436.447 584.029 439.858 585.204 443.793C604.091 486.003 641.61 518.548 681.004 541.411C682.332 542.535 685.78 542.62 685.406 544.795C685.282 545.077 685.052 545.299 684.767 545.414C684.481 545.528 684.162 545.527 683.878 545.41C648.36 527.022 617.272 499.096 594.514 466.258C590.881 460.507 576.774 438.767 583.334 433.522Z" fill="url(#paint0_linear_162_665)"/>
    <path d="M572.413 470.426C573.906 469.2 574.981 471.801 575.851 472.569C602.605 507.513 636.261 540.188 680.079 551.362C681.685 552.136 685.16 551.072 685.389 553.338C685.344 553.643 685.182 553.918 684.937 554.105C684.692 554.292 684.384 554.375 684.078 554.338C637.426 544.867 597.675 508.269 572.413 470.426Z" fill="url(#paint1_linear_162_665)"/>
    <path d="M0.142029 84.1598C-1.52797 87.6998 12.042 87.8198 14.462 88.8998C21.212 89.9698 27.932 91.2499 34.622 92.6199C36.872 92.6799 42.542 95.6199 42.192 91.4999C41.942 88.6999 37.932 87.1699 36.192 85.1299C27.962 78.1999 19.572 71.2098 10.612 65.3198C7.362 61.4198 2.32203 81.6498 0.142029 84.1598Z" fill="url(#paint2_linear_162_665)"/>
    <path d="M7.28217 46.56C6.88851 46.6241 6.51852 46.7902 6.20917 47.0419C5.89982 47.2937 5.66193 47.6222 5.51923 47.9946C5.37653 48.3671 5.33401 48.7704 5.39594 49.1644C5.45787 49.5584 5.62206 49.9293 5.87213 50.24C5.80213 53.43 10.3822 54.14 12.3522 56.03C18.1922 59.96 23.9222 64.03 29.9722 67.66C34.8422 71.34 39.1222 69.66 35.7922 63.47C26.0922 43.19 30.5722 42.39 7.28217 46.56Z" fill="url(#paint3_linear_162_665)"/>
    <path d="M549.32 27.753C538.335 31.3295 549.441 57.2256 552.983 64.1948C554.181 65.6868 555.173 70.303 557.536 69.4308C559.368 68.7799 553.162 60.6697 552.806 58.3541C546.873 46.0547 540.36 16.9793 562.664 36.0751C577.917 51.5928 591.627 68.5546 603.602 86.7217L603.509 86.577C614.547 106.678 626.805 129.52 624.559 153.055C623.766 157.606 619.627 167.609 613.702 164.676C613.558 164.628 613.404 164.609 613.252 164.62C613.1 164.631 612.951 164.672 612.814 164.741C612.678 164.809 612.556 164.905 612.457 165.021C612.358 165.137 612.282 165.271 612.235 165.417C611.747 167.258 615.04 167.494 616.254 167.569C636.843 158.235 624.335 127.351 618.475 111.461C611.082 91.9245 599.173 74.6725 585.784 58.7892C578.516 50.5424 560.896 25.0669 549.32 27.753Z" fill="url(#paint4_linear_162_665)"/>
    <path d="M544.01 15.0174C538.321 16.0912 540.194 21.0241 542.406 18.3166C559.123 12.1109 581.344 38.3717 591.48 49.7375L591.397 49.6233C597.74 57.564 603.555 65.9136 608.802 74.618C609.625 75.8502 611.593 74.5275 610.7 73.2915C596.336 51.5548 572.622 15.1192 544.01 15.0174Z" fill="url(#paint5_linear_162_665)"/>
    <path d="M618.267 51.1C616.426 52.4794 620.442 56.9278 620.845 58.9065C627.414 72.6998 632.913 86.9776 637.294 101.614C639.479 109.129 641.643 116.824 641.67 124.723C641.903 125.974 640.98 128.301 642.755 128.536C648.451 119.285 632.748 80.931 628.224 69.7553C626.599 67.2721 620.578 49.5261 618.267 51.1Z" fill="url(#paint6_linear_162_665)"/>
    <defs>
        <linearGradient id="paint0_linear_162_665" x1="647.117" y1="458.248" x2="621.488" y2="519.101" gradientUnits="userSpaceOnUse">
            <stop stop-color="#FDAC0E"/>
            <stop offset="1" stop-color="#FE820F"/>
        </linearGradient>
        <linearGradient id="paint1_linear_162_665" x1="691.113" y1="539.842" x2="565.465" y2="486.923" gradientUnits="userSpaceOnUse">
            <stop stop-color="#FDAC0E"/>
            <stop offset="1" stop-color="#FE820F"/>
        </linearGradient>
        <linearGradient id="paint2_linear_162_665" x1="21.1038" y1="64.8223" x2="21.1038" y2="93.6922" gradientUnits="userSpaceOnUse">
            <stop stop-color="#FDAC0E"/>
            <stop offset="1" stop-color="#FE820F"/>
        </linearGradient>
        <linearGradient id="paint3_linear_162_665" x1="36.9722" y1="57.06" x2="5.38214" y2="57.06" gradientUnits="userSpaceOnUse">
            <stop stop-color="#FDAC0E"/>
            <stop offset="1" stop-color="#FE820F"/>
        </linearGradient>
        <linearGradient id="paint4_linear_162_665" x1="582.177" y1="165.747" x2="589.457" y2="29.5946" gradientUnits="userSpaceOnUse">
            <stop stop-color="#FDAC0E"/>
            <stop offset="1" stop-color="#FE820F"/>
        </linearGradient>
        <linearGradient id="paint5_linear_162_665" x1="538.889" y1="43.0115" x2="612.359" y2="46.9396" gradientUnits="userSpaceOnUse">
            <stop stop-color="#FDAC0E"/>
            <stop offset="1" stop-color="#FE820F"/>
        </linearGradient>
        <linearGradient id="paint6_linear_162_665" x1="628.739" y1="127.787" x2="632.804" y2="51.761" gradientUnits="userSpaceOnUse">
            <stop stop-color="#FDAC0E"/>
            <stop offset="1" stop-color="#FE820F"/>
        </linearGradient>
    </defs>
</svg>
