<svg width="710" height="505" viewBox="0 0 710 505" fill="none" xmlns="http://www.w3.org/2000/svg">
    <path d="M101.865 95.8099C100.939 96.9144 98.2492 97.938 98.5761 95.5597C102.65 92.8146 100.68 89.5464 99.2034 85.715C77.0966 45.0983 37.164 15.5644 -3.88631 -4.1717C-5.29754 -5.18877 -8.74112 -5.0056 -8.53741 -7.20356C-8.4354 -7.49396 -8.22399 -7.733 -7.94821 -7.86971C-7.67243 -8.00641 -7.35419 -8.02999 -7.0613 -7.93534C29.7765 7.63961 62.9386 33.0682 88.1774 64.0405C92.2455 69.492 107.998 90.0716 101.865 95.8099Z" fill="url(#paint0_linear_162_665)"/>
    <path d="M109.888 58.1689C108.494 59.5078 107.221 56.998 106.294 56.2999C76.9078 23.538 40.8169 -6.42591 -3.73662 -14.1646C-5.39736 -14.8115 -8.77991 -13.4805 -9.1834 -15.7222C-9.16238 -16.0295 -9.02206 -16.3164 -8.79239 -16.5216C-8.56272 -16.7268 -8.26195 -16.8341 -7.95424 -16.8206C39.2919 -11.0005 81.7641 22.4019 109.888 58.1689Z" fill="url(#paint1_linear_162_665)"/>
    <path d="M695.305 398.679C692.566 397.065 691.498 401.7 689.942 403.043C684.325 410.452 678.253 417.442 672.524 424.795C670.632 428.484 639.618 461.441 658.014 454.033C674.042 447.527 689.699 440.14 704.913 431.906C706.921 430.295 704.261 427.075 704.018 424.889C702.019 417.683 699.525 410.547 698.021 403.271C697.626 401.729 697.587 399.248 695.733 399.145C695.608 398.974 695.465 398.818 695.305 398.679Z" fill="url(#paint2_linear_162_665)"/>
    <path d="M661.31 469.292C661.576 469.63 662.236 469.836 663.27 469.823C671.664 469.891 680.063 470.031 688.457 470.164C689.478 470.248 690.506 470.13 691.482 469.817C695.214 468.301 693.331 459.967 694.13 456.765C695.401 451.689 692.956 448.039 687.752 450.919C684.879 452.509 658.737 466.431 661.31 469.292Z" fill="url(#paint3_linear_162_665)"/>
    <path d="M57.0983 382.935C63.5956 372.789 86.8099 390.806 92.9121 396.213C94.1028 397.814 98.5008 400.028 96.9993 402.184C95.8608 403.862 89.3076 395.466 87.0642 394.499C76.2114 385.278 48.581 371.061 61.9887 398.591C73.6393 418.063 87.1527 436.358 102.339 453.219L102.217 453.088C119.601 469.511 139.431 487.887 163.773 491.807C168.574 492.204 179.757 490.656 178.355 483.906C178.344 483.747 178.365 483.588 178.416 483.437C178.467 483.286 178.548 483.146 178.653 483.027C178.758 482.907 178.886 482.81 179.03 482.74C179.173 482.67 179.329 482.629 179.488 482.62C181.474 482.612 180.847 485.996 180.603 487.242C165.771 505.566 137.891 484.824 123.396 474.733C105.623 462.136 91.343 445.582 78.8338 427.894C72.4217 418.391 51.3441 393.912 57.0983 382.935Z" fill="url(#paint4_linear_162_665)"/>
    <path d="M45.6415 374.229C48.2208 368.77 52.7067 371.957 49.3929 373.477C38.7353 388.716 59.3958 418.045 68.2013 431.263L68.108 431.148C74.454 439.638 81.3518 447.701 88.7567 455.285C89.7839 456.439 87.9317 458.078 86.919 456.852C68.7588 436.641 38.2224 403.13 45.6415 374.229Z" fill="url(#paint5_linear_162_665)"/>
    <path d="M62.534 458.655C64.4101 457.159 67.8437 462.381 69.7345 463.309C81.9278 473.564 94.8911 482.867 108.51 491.136C115.521 495.316 122.717 499.524 130.682 501.628C131.883 502.192 134.474 501.872 134.244 503.724C123.41 507.042 88.8323 481.111 78.7434 473.607C76.6644 471.314 60.3381 460.573 62.534 458.655Z" fill="url(#paint6_linear_162_665)"/>
    <defs>
        <linearGradient id="paint0_linear_162_665" x1="36.3546" y1="76.1101" x2="57.1826" y2="13.4511" gradientUnits="userSpaceOnUse">
            <stop stop-color="#FDAC0E"/>
            <stop offset="1" stop-color="#FE820F"/>
        </linearGradient>
        <linearGradient id="paint1_linear_162_665" x1="-13.843" y1="-1.82285" x2="115.534" y2="41.1824" gradientUnits="userSpaceOnUse">
            <stop stop-color="#FDAC0E"/>
            <stop offset="1" stop-color="#FE820F"/>
        </linearGradient>
        <linearGradient id="paint2_linear_162_665" x1="656.39" y1="424.209" x2="705.549" y2="431.246" gradientUnits="userSpaceOnUse">
            <stop stop-color="#FDAC0E"/>
            <stop offset="1" stop-color="#FE820F"/>
        </linearGradient>
        <linearGradient id="paint3_linear_162_665" x1="695.563" y1="453.624" x2="666.82" y2="476.282" gradientUnits="userSpaceOnUse">
            <stop stop-color="#FDAC0E"/>
            <stop offset="1" stop-color="#FE820F"/>
        </linearGradient>
        <linearGradient id="paint4_linear_162_665" x1="187.723" y1="452.373" x2="48.4051" y2="423.925" gradientUnits="userSpaceOnUse">
            <stop stop-color="#FDAC0E"/>
            <stop offset="1" stop-color="#FE820F"/>
        </linearGradient>
        <linearGradient id="paint5_linear_162_665" x1="75.2395" y1="376.42" x2="59.8887" y2="451.598" gradientUnits="userSpaceOnUse">
            <stop stop-color="#FDAC0E"/>
            <stop offset="1" stop-color="#FE820F"/>
        </linearGradient>
        <linearGradient id="paint6_linear_162_665" x1="137.173" y1="489.383" x2="59.3794" y2="473.499" gradientUnits="userSpaceOnUse">
            <stop stop-color="#FDAC0E"/>
            <stop offset="1" stop-color="#FE820F"/>
        </linearGradient>
    </defs>
</svg>
