<svg width="723" height="709" viewBox="0 0 723 709" fill="none" xmlns="http://www.w3.org/2000/svg">
    <path d="M-134.922 -127.15C-73.3291 -218.29 92.9114 -220.973 154.038 -89.5043C201.279 12.1232 255.875 -1.45851 332.77 -21.1137C409.665 -40.7689 551.328 -17.3459 543.913 80.2509C536.498 177.848 425.458 196.566 435.444 261.961C445.431 327.356 615.109 271.272 691.305 373.271C768.708 476.881 700.191 644.271 531.002 693.718C361.814 743.166 242.432 658.57 217.598 569.215C193.774 483.502 159.563 484.034 118.099 534.664C76.6342 585.294 -20.9333 611.51 -29.3889 504.286C-37.8444 397.061 -175.8 388.923 -196.55 315.598C-208.588 273.084 -174.078 230.57 -140.776 181.424C-89.7796 106.122 -206.513 -21.1849 -134.922 -127.15Z" fill="#482AFF"/>
</svg>
