<svg width="667" height="415" viewBox="0 0 667 415" fill="none" xmlns="http://www.w3.org/2000/svg">
    <path d="M330.421 395.504C327.121 395.354 323.421 393.414 323.321 389.744C323.151 388.744 322.861 386.744 324.321 386.744C332.931 420.744 493.021 296.604 513.012 281.744C552.682 249.534 594.172 217.564 623.452 175.124C625.652 172.124 631.301 158.324 631.771 165.034C605.721 224.214 392.241 387.704 330.421 395.504Z" fill="#FDAC0E"/>
    <path d="M313.661 413.434C291.361 402.804 309.521 375.514 318.801 361.434C318.959 361.169 319.216 360.977 319.515 360.901C319.814 360.825 320.131 360.872 320.396 361.029C320.662 361.187 320.853 361.444 320.929 361.743C321.005 362.042 320.959 362.359 320.801 362.624C283.421 416.984 320.421 421.884 366.111 400.984C407.781 383.544 445.021 357.334 481.341 330.864C529.111 296.504 576.341 260.764 615.441 216.454C632.651 196.454 678.721 148.454 660.761 121.584C638.101 102.054 577.831 149.164 561.131 165.924C557.771 165.164 562.711 161.294 563.711 160.204C585.311 141.594 608.981 122.824 637.241 116.074C655.651 110.934 669.531 118.714 667.241 139.274C661.351 168.064 640.591 191.204 621.851 212.814C580.061 264.984 377.111 429.294 313.661 413.434Z" fill="#FDAC0E"/>
    <path d="M141.961 32.1653C142.954 33.2097 143.667 35.9983 141.341 35.405C139.073 31.0473 135.595 32.6312 131.63 33.6703C88.7681 51.046 54.9239 87.3933 30.6795 125.953C29.5006 127.236 29.3029 130.683 27.142 130.232C26.8649 130.098 26.6513 129.861 26.5466 129.571C26.4419 129.282 26.4544 128.963 26.5815 128.683C46.2157 93.8389 75.2256 63.7596 108.84 42.1746C114.689 38.7353 136.924 25.4109 141.961 32.1653Z" fill="#FDAC0E"/>
    <path d="M105.439 19.9315C106.603 21.463 103.974 22.4491 103.167 23.2873C67.2971 48.7868 33.4592 81.2683 20.731 124.659C19.9098 126.24 20.8505 129.752 18.5685 129.895C18.268 129.838 18.0017 129.666 17.8257 129.415C17.6497 129.165 17.5777 128.856 17.6249 128.554C28.7417 82.2671 66.7255 43.8374 105.439 19.9315Z" fill="#FDAC0E"/>
    <path d="M0.141884 344.16C-1.52811 347.7 12.0419 347.82 14.4619 348.9C21.2119 349.97 27.9419 351.25 34.6319 352.62C36.8819 352.68 42.5519 355.62 42.1919 351.5C41.9419 348.7 37.9419 347.17 36.1919 345.13C27.9619 338.2 19.5819 331.21 10.6119 325.32C7.33192 321.42 2.30188 341.65 0.141884 344.16Z" fill="#FDAC0E"/>
    <path d="M7.26199 306.56C6.86668 306.621 6.4946 306.786 6.18338 307.037C5.87215 307.288 5.63283 307.618 5.48971 307.991C5.34659 308.365 5.30476 308.769 5.36837 309.164C5.43199 309.559 5.59883 309.93 5.85202 310.24C5.77202 313.43 10.352 314.14 12.332 316.03C18.172 319.96 23.892 324.03 29.942 327.66C34.822 331.34 39.092 329.66 35.762 323.47C26.072 303.19 30.552 302.39 7.26199 306.56Z" fill="#FDAC0E"/>
</svg>
