<svg width="669" height="415" viewBox="0 0 669 415" fill="none" xmlns="http://www.w3.org/2000/svg">
    <path d="M336.068 395.504C339.368 395.354 343.068 393.414 343.168 389.744C343.338 388.744 343.628 386.744 342.168 386.744C333.558 420.744 173.468 296.604 153.478 281.744C113.808 249.534 72.3175 217.564 43.0375 175.124C40.8375 172.124 35.1876 158.324 34.7176 165.034C60.7675 224.214 274.248 387.704 336.068 395.504Z" fill="#FDAC0E"/>
    <path d="M352.828 413.434C375.128 402.804 356.968 375.514 347.688 361.434C347.53 361.169 347.273 360.977 346.974 360.901C346.675 360.825 346.358 360.872 346.093 361.029C345.827 361.187 345.636 361.444 345.56 361.743C345.484 362.042 345.53 362.359 345.688 362.624C383.068 416.984 346.068 421.884 300.378 400.984C258.708 383.544 221.468 357.334 185.148 330.864C137.378 296.504 90.1476 260.764 51.0476 216.454C33.8376 196.454 -12.2324 148.454 5.72757 121.584C28.3876 102.054 88.6576 149.164 105.358 165.924C108.718 165.164 103.778 161.294 102.778 160.204C81.1776 141.594 57.5076 122.824 29.2476 116.074C10.8376 110.934 -3.04242 118.714 -0.752411 139.274C5.1376 168.064 25.8976 191.204 44.6376 212.814C86.4276 264.984 289.378 429.294 352.828 413.434Z" fill="#FDAC0E"/>
    <path d="M519.97 32.1653C518.978 33.2097 518.264 35.9983 520.59 35.405C522.858 31.0473 526.337 32.6312 530.301 33.6703C573.163 51.046 607.007 87.3933 631.252 125.953C632.431 127.236 632.629 130.683 634.789 130.232C635.066 130.098 635.28 129.861 635.385 129.571C635.49 129.282 635.477 128.963 635.35 128.683C615.716 93.8389 586.706 63.7596 553.091 42.1746C547.242 38.7353 525.007 25.4109 519.97 32.1653Z" fill="#FDAC0E"/>
    <path d="M556.492 19.9315C555.329 21.463 557.957 22.4491 558.764 23.2873C594.634 48.7868 628.472 81.2683 641.2 124.659C642.022 126.24 641.081 129.752 643.363 129.895C643.663 129.838 643.93 129.666 644.106 129.415C644.282 129.165 644.354 128.856 644.306 128.554C633.19 82.2671 595.206 43.8374 556.492 19.9315Z" fill="#FDAC0E"/>
    <path d="M668.066 344.16C669.736 347.7 656.166 347.82 653.746 348.9C646.996 349.97 640.266 351.25 633.576 352.62C631.326 352.68 625.656 355.62 626.016 351.5C626.266 348.7 630.266 347.17 632.016 345.13C640.246 338.2 648.626 331.21 657.596 325.32C660.876 321.42 665.906 341.65 668.066 344.16Z" fill="#FDAC0E"/>
    <path d="M660.946 306.56C661.342 306.621 661.714 306.786 662.025 307.037C662.336 307.288 662.575 307.618 662.719 307.991C662.862 308.365 662.903 308.769 662.84 309.164C662.776 309.559 662.609 309.93 662.356 310.24C662.436 313.43 657.856 314.14 655.876 316.03C650.036 319.96 644.316 324.03 638.266 327.66C633.386 331.34 629.116 329.66 632.446 323.47C642.136 303.19 637.656 302.39 660.946 306.56Z" fill="#FDAC0E"/>
</svg>
