<svg width="24" height="25" viewBox="0 0 24 25" fill="none" xmlns="http://www.w3.org/2000/svg">
    <path d="M17.867 3.04355C17.512 2.41955 16.486 2.42055 16.131 3.04355L12.132 10.0436C12.0451 10.1956 11.9997 10.3678 12.0003 10.5429C12.0009 10.718 12.0475 10.8899 12.1354 11.0414C12.2233 11.1929 12.3494 11.3186 12.5011 11.406C12.6528 11.4935 12.8249 11.5395 13 11.5396H21C21.1751 11.5395 21.3472 11.4935 21.4989 11.406C21.6506 11.3186 21.7767 11.1929 21.8646 11.0414C21.9525 10.8899 21.9991 10.718 21.9997 10.5429C22.0003 10.3678 21.9549 10.1956 21.868 10.0436L17.867 3.04355ZM3 22.5396H10C10.2652 22.5396 10.5196 22.4342 10.7071 22.2467C10.8946 22.0591 11 21.8048 11 21.5396V14.5396C11 14.2743 10.8946 14.02 10.7071 13.8324C10.5196 13.6449 10.2652 13.5396 10 13.5396H3C2.73478 13.5396 2.48043 13.6449 2.29289 13.8324C2.10536 14.02 2 14.2743 2 14.5396V21.5396C2 21.8048 2.10536 22.0591 2.29289 22.2467C2.48043 22.4342 2.73478 22.5396 3 22.5396ZM17.5 13.5396C15.019 13.5396 13 15.5586 13 18.0396C13 20.5206 15.019 22.5396 17.5 22.5396C19.981 22.5396 22 20.5206 22 18.0396C22 15.5586 19.981 13.5396 17.5 13.5396Z" fill="url(#paint0_linear_349_1487)"/>
    <defs>
        <linearGradient id="paint0_linear_349_1487" x1="12" y1="2.57593" x2="12" y2="22.5396" gradientUnits="userSpaceOnUse">
            <stop stop-color="#FDAC0E"/>
            <stop offset="1" stop-color="#FE820F"/>
        </linearGradient>
    </defs>
</svg>
