<svg width="1111" height="294" viewBox="0 0 1111 294" fill="none" xmlns="http://www.w3.org/2000/svg">
    <path d="M3.21113 48V25.6H7.37113V48H3.21113ZM22.7419 30.72C24.1072 30.72 25.3232 30.9867 26.3899 31.52C27.4779 32.0533 28.3312 32.8747 28.9499 33.984C29.5685 35.072 29.8779 36.48 29.8779 38.208V48H25.8779V38.72C25.8779 37.2053 25.5152 36.0747 24.7899 35.328C24.0859 34.5813 23.0939 34.208 21.8139 34.208C20.8752 34.208 20.0432 34.4 19.3179 34.784C18.5925 35.168 18.0272 35.744 17.6219 36.512C17.2379 37.2587 17.0459 38.208 17.0459 39.36V48H13.0459V30.912H16.8539V35.52L16.1819 34.112C16.7792 33.024 17.6432 32.192 18.7739 31.616C19.9259 31.0187 21.2485 30.72 22.7419 30.72ZM40.2321 48.224C38.8028 48.224 37.4268 48.0427 36.1041 47.68C34.8028 47.296 33.7681 46.8373 33.0001 46.304L34.5361 43.264C35.3041 43.7547 36.2215 44.16 37.2881 44.48C38.3548 44.8 39.4215 44.96 40.4881 44.96C41.7468 44.96 42.6535 44.7893 43.2081 44.448C43.7841 44.1067 44.0721 43.648 44.0721 43.072C44.0721 42.6027 43.8801 42.2507 43.4961 42.016C43.1121 41.76 42.6108 41.568 41.9921 41.44C41.3735 41.312 40.6801 41.1947 39.9121 41.088C39.1655 40.9813 38.4081 40.8427 37.6401 40.672C36.8935 40.48 36.2108 40.2133 35.5921 39.872C34.9735 39.5093 34.4721 39.0293 34.0881 38.432C33.7041 37.8347 33.5121 37.0453 33.5121 36.064C33.5121 34.976 33.8215 34.0373 34.4401 33.248C35.0588 32.4373 35.9228 31.8187 37.0321 31.392C38.1628 30.944 39.4961 30.72 41.0321 30.72C42.1841 30.72 43.3468 30.848 44.5201 31.104C45.6935 31.36 46.6641 31.7227 47.4321 32.192L45.8961 35.232C45.0855 34.7413 44.2641 34.4107 43.4321 34.24C42.6215 34.048 41.8108 33.952 41.0001 33.952C39.7841 33.952 38.8775 34.1333 38.2801 34.496C37.7041 34.8587 37.4161 35.3173 37.4161 35.872C37.4161 36.384 37.6081 36.768 37.9921 37.024C38.3761 37.28 38.8775 37.4827 39.4961 37.632C40.1148 37.7813 40.7975 37.9093 41.5441 38.016C42.3121 38.1013 43.0695 38.24 43.8161 38.432C44.5628 38.624 45.2455 38.8907 45.8641 39.232C46.5041 39.552 47.0161 40.0107 47.4001 40.608C47.7841 41.2053 47.9761 41.984 47.9761 42.944C47.9761 44.0107 47.6561 44.9387 47.0161 45.728C46.3975 46.5173 45.5121 47.136 44.3601 47.584C43.2081 48.0107 41.8321 48.224 40.2321 48.224ZM51.4209 48V30.912H55.4209V48H51.4209ZM53.4369 28.096C52.6902 28.096 52.0715 27.8613 51.5809 27.392C51.1115 26.9227 50.8769 26.3573 50.8769 25.696C50.8769 25.0133 51.1115 24.448 51.5809 24C52.0715 23.5307 52.6902 23.296 53.4369 23.296C54.1835 23.296 54.7915 23.52 55.2609 23.968C55.7515 24.3947 55.9969 24.9387 55.9969 25.6C55.9969 26.304 55.7622 26.9013 55.2929 27.392C54.8235 27.8613 54.2049 28.096 53.4369 28.096ZM67.9029 48.224C66.2602 48.224 64.7775 47.8613 63.4549 47.136C62.1535 46.3893 61.1295 45.3653 60.3829 44.064C59.6362 42.7627 59.2629 41.2267 59.2629 39.456C59.2629 37.6853 59.6362 36.1493 60.3829 34.848C61.1295 33.5467 62.1535 32.5333 63.4549 31.808C64.7775 31.0827 66.2602 30.72 67.9029 30.72C69.3322 30.72 70.6122 31.04 71.7429 31.68C72.8735 32.2987 73.7695 33.248 74.4309 34.528C75.0922 35.808 75.4229 37.4507 75.4229 39.456C75.4229 41.44 75.1029 43.0827 74.4629 44.384C73.8229 45.664 72.9375 46.624 71.8069 47.264C70.6762 47.904 69.3749 48.224 67.9029 48.224ZM68.3829 44.8C69.3429 44.8 70.1962 44.5867 70.9429 44.16C71.7109 43.7333 72.3189 43.1147 72.7669 42.304C73.2362 41.4933 73.4709 40.544 73.4709 39.456C73.4709 38.3467 73.2362 37.3973 72.7669 36.608C72.3189 35.7973 71.7109 35.1787 70.9429 34.752C70.1962 34.3253 69.3429 34.112 68.3829 34.112C67.4229 34.112 66.5589 34.3253 65.7909 34.752C65.0442 35.1787 64.4362 35.7973 63.9669 36.608C63.5189 37.3973 63.2949 38.3467 63.2949 39.456C63.2949 40.544 63.5189 41.4933 63.9669 42.304C64.4362 43.1147 65.0442 43.7333 65.7909 44.16C66.5589 44.5867 67.4229 44.8 68.3829 44.8ZM73.5669 48V43.968L73.7269 39.424L73.4069 34.88V24.256H77.3749V48H73.5669ZM90.6716 48.224C88.773 48.224 87.109 47.8507 85.6796 47.104C84.2716 46.336 83.173 45.2907 82.3836 43.968C81.6156 42.6453 81.2316 41.1413 81.2316 39.456C81.2316 37.7493 81.605 36.2453 82.3516 34.944C83.1196 33.6213 84.165 32.5867 85.4876 31.84C86.8316 31.0933 88.357 30.72 90.0636 30.72C91.7276 30.72 93.2103 31.0827 94.5116 31.808C95.813 32.5333 96.837 33.5573 97.5836 34.88C98.3303 36.2027 98.7036 37.76 98.7036 39.552C98.7036 39.7227 98.693 39.9147 98.6716 40.128C98.6716 40.3413 98.661 40.544 98.6396 40.736H84.3996V38.08H96.5276L94.9596 38.912C94.981 37.9307 94.7783 37.0667 94.3516 36.32C93.925 35.5733 93.3383 34.9867 92.5916 34.56C91.8663 34.1333 91.0236 33.92 90.0636 33.92C89.0823 33.92 88.2183 34.1333 87.4716 34.56C86.7463 34.9867 86.1703 35.584 85.7436 36.352C85.3383 37.0987 85.1356 37.984 85.1356 39.008V39.648C85.1356 40.672 85.3703 41.5787 85.8396 42.368C86.309 43.1573 86.9703 43.7653 87.8236 44.192C88.677 44.6187 89.6583 44.832 90.7676 44.832C91.7276 44.832 92.5916 44.6827 93.3596 44.384C94.1276 44.0853 94.8103 43.616 95.4076 42.976L97.5516 45.44C96.7836 46.336 95.813 47.0293 94.6396 47.52C93.4876 47.9893 92.165 48.224 90.6716 48.224ZM130.761 48V44.544L130.537 43.808V37.76C130.537 36.5867 130.185 35.68 129.481 35.04C128.777 34.3787 127.711 34.048 126.281 34.048C125.321 34.048 124.372 34.1973 123.433 34.496C122.516 34.7947 121.737 35.2107 121.097 35.744L119.529 32.832C120.447 32.128 121.535 31.6053 122.793 31.264C124.073 30.9013 125.396 30.72 126.761 30.72C129.236 30.72 131.145 31.3173 132.489 32.512C133.855 33.6853 134.537 35.5093 134.537 37.984V48H130.761ZM125.385 48.224C124.105 48.224 122.985 48.0107 122.025 47.584C121.065 47.136 120.319 46.528 119.785 45.76C119.273 44.9707 119.017 44.0853 119.017 43.104C119.017 42.144 119.241 41.28 119.689 40.512C120.159 39.744 120.916 39.136 121.961 38.688C123.007 38.24 124.393 38.016 126.121 38.016H131.081V40.672H126.409C125.044 40.672 124.127 40.896 123.657 41.344C123.188 41.7707 122.953 42.304 122.953 42.944C122.953 43.6693 123.241 44.2453 123.817 44.672C124.393 45.0987 125.193 45.312 126.217 45.312C127.199 45.312 128.073 45.088 128.841 44.64C129.631 44.192 130.196 43.5307 130.537 42.656L131.209 45.056C130.825 46.0587 130.132 46.8373 129.129 47.392C128.148 47.9467 126.9 48.224 125.385 48.224ZM148.515 48V30.912H152.323V35.616L151.875 34.24C152.387 33.088 153.187 32.2133 154.275 31.616C155.384 31.0187 156.76 30.72 158.403 30.72V34.528C158.232 34.4853 158.072 34.464 157.923 34.464C157.773 34.4427 157.624 34.432 157.475 34.432C155.96 34.432 154.755 34.88 153.859 35.776C152.963 36.6507 152.515 37.9627 152.515 39.712V48H148.515ZM171.105 48V44.544L170.881 43.808V37.76C170.881 36.5867 170.529 35.68 169.825 35.04C169.121 34.3787 168.054 34.048 166.625 34.048C165.665 34.048 164.716 34.1973 163.777 34.496C162.86 34.7947 162.081 35.2107 161.441 35.744L159.873 32.832C160.79 32.128 161.878 31.6053 163.137 31.264C164.417 30.9013 165.74 30.72 167.105 30.72C169.58 30.72 171.489 31.3173 172.833 32.512C174.198 33.6853 174.881 35.5093 174.881 37.984V48H171.105ZM165.729 48.224C164.449 48.224 163.329 48.0107 162.369 47.584C161.409 47.136 160.662 46.528 160.129 45.76C159.617 44.9707 159.361 44.0853 159.361 43.104C159.361 42.144 159.585 41.28 160.033 40.512C160.502 39.744 161.26 39.136 162.305 38.688C163.35 38.24 164.737 38.016 166.465 38.016H171.425V40.672H166.753C165.388 40.672 164.47 40.896 164.001 41.344C163.532 41.7707 163.297 42.304 163.297 42.944C163.297 43.6693 163.585 44.2453 164.161 44.672C164.737 45.0987 165.537 45.312 166.561 45.312C167.542 45.312 168.417 45.088 169.185 44.64C169.974 44.192 170.54 43.5307 170.881 42.656L171.553 45.056C171.169 46.0587 170.476 46.8373 169.473 47.392C168.492 47.9467 167.244 48.224 165.729 48.224ZM180.015 48V30.912H184.015V48H180.015ZM182.031 28.096C181.284 28.096 180.665 27.8613 180.175 27.392C179.705 26.9227 179.471 26.3573 179.471 25.696C179.471 25.0133 179.705 24.448 180.175 24C180.665 23.5307 181.284 23.296 182.031 23.296C182.777 23.296 183.385 23.52 183.855 23.968C184.345 24.3947 184.591 24.9387 184.591 25.6C184.591 26.304 184.356 26.9013 183.887 27.392C183.417 27.8613 182.799 28.096 182.031 28.096ZM198.961 30.72C200.326 30.72 201.542 30.9867 202.609 31.52C203.697 32.0533 204.55 32.8747 205.169 33.984C205.787 35.072 206.097 36.48 206.097 38.208V48H202.097V38.72C202.097 37.2053 201.734 36.0747 201.009 35.328C200.305 34.5813 199.313 34.208 198.033 34.208C197.094 34.208 196.262 34.4 195.537 34.784C194.811 35.168 194.246 35.744 193.841 36.512C193.457 37.2587 193.265 38.208 193.265 39.36V48H189.265V30.912H193.073V35.52L192.401 34.112C192.998 33.024 193.862 32.192 194.993 31.616C196.145 31.0187 197.467 30.72 198.961 30.72ZM211.715 48V29.952C211.715 28.16 212.238 26.7307 213.283 25.664C214.35 24.576 215.864 24.032 217.827 24.032C218.531 24.032 219.192 24.1067 219.811 24.256C220.451 24.4053 220.984 24.64 221.411 24.96L220.323 27.968C220.024 27.7333 219.683 27.5627 219.299 27.456C218.915 27.328 218.52 27.264 218.115 27.264C217.283 27.264 216.654 27.4987 216.227 27.968C215.8 28.416 215.587 29.0987 215.587 30.016V31.936L215.715 33.728V48H211.715ZM208.899 34.24V31.04H220.291V34.24H208.899ZM230.413 48.224C228.664 48.224 227.107 47.8507 225.741 47.104C224.376 46.336 223.299 45.2907 222.509 43.968C221.72 42.6453 221.325 41.1413 221.325 39.456C221.325 37.7493 221.72 36.2453 222.509 34.944C223.299 33.6213 224.376 32.5867 225.741 31.84C227.107 31.0933 228.664 30.72 230.413 30.72C232.184 30.72 233.752 31.0933 235.117 31.84C236.504 32.5867 237.581 33.6107 238.349 34.912C239.139 36.2133 239.533 37.728 239.533 39.456C239.533 41.1413 239.139 42.6453 238.349 43.968C237.581 45.2907 236.504 46.336 235.117 47.104C233.752 47.8507 232.184 48.224 230.413 48.224ZM230.413 44.8C231.395 44.8 232.269 44.5867 233.037 44.16C233.805 43.7333 234.403 43.1147 234.829 42.304C235.277 41.4933 235.501 40.544 235.501 39.456C235.501 38.3467 235.277 37.3973 234.829 36.608C234.403 35.7973 233.805 35.1787 233.037 34.752C232.269 34.3253 231.405 34.112 230.445 34.112C229.464 34.112 228.589 34.3253 227.821 34.752C227.075 35.1787 226.477 35.7973 226.029 36.608C225.581 37.3973 225.357 38.3467 225.357 39.456C225.357 40.544 225.581 41.4933 226.029 42.304C226.477 43.1147 227.075 43.7333 227.821 44.16C228.589 44.5867 229.453 44.8 230.413 44.8ZM243.358 48V30.912H247.166V35.616L246.718 34.24C247.23 33.088 248.03 32.2133 249.118 31.616C250.228 31.0187 251.604 30.72 253.246 30.72V34.528C253.076 34.4853 252.916 34.464 252.766 34.464C252.617 34.4427 252.468 34.432 252.318 34.432C250.804 34.432 249.598 34.88 248.702 35.776C247.806 36.6507 247.358 37.9627 247.358 39.712V48H243.358ZM264.515 48.224C262.617 48.224 260.953 47.8507 259.523 47.104C258.115 46.336 257.017 45.2907 256.227 43.968C255.459 42.6453 255.075 41.1413 255.075 39.456C255.075 37.7493 255.449 36.2453 256.195 34.944C256.963 33.6213 258.009 32.5867 259.331 31.84C260.675 31.0933 262.201 30.72 263.907 30.72C265.571 30.72 267.054 31.0827 268.355 31.808C269.657 32.5333 270.681 33.5573 271.427 34.88C272.174 36.2027 272.547 37.76 272.547 39.552C272.547 39.7227 272.537 39.9147 272.515 40.128C272.515 40.3413 272.505 40.544 272.483 40.736H258.243V38.08H270.371L268.803 38.912C268.825 37.9307 268.622 37.0667 268.195 36.32C267.769 35.5733 267.182 34.9867 266.435 34.56C265.71 34.1333 264.867 33.92 263.907 33.92C262.926 33.92 262.062 34.1333 261.315 34.56C260.59 34.9867 260.014 35.584 259.587 36.352C259.182 37.0987 258.979 37.984 258.979 39.008V39.648C258.979 40.672 259.214 41.5787 259.683 42.368C260.153 43.1573 260.814 43.7653 261.667 44.192C262.521 44.6187 263.502 44.832 264.611 44.832C265.571 44.832 266.435 44.6827 267.203 44.384C267.971 44.0853 268.654 43.616 269.251 42.976L271.395 45.44C270.627 46.336 269.657 47.0293 268.483 47.52C267.331 47.9893 266.009 48.224 264.515 48.224ZM281.67 48.224C280.24 48.224 278.864 48.0427 277.542 47.68C276.24 47.296 275.206 46.8373 274.438 46.304L275.974 43.264C276.742 43.7547 277.659 44.16 278.726 44.48C279.792 44.8 280.859 44.96 281.926 44.96C283.184 44.96 284.091 44.7893 284.646 44.448C285.222 44.1067 285.51 43.648 285.51 43.072C285.51 42.6027 285.318 42.2507 284.934 42.016C284.55 41.76 284.048 41.568 283.43 41.44C282.811 41.312 282.118 41.1947 281.35 41.088C280.603 40.9813 279.846 40.8427 279.078 40.672C278.331 40.48 277.648 40.2133 277.03 39.872C276.411 39.5093 275.91 39.0293 275.526 38.432C275.142 37.8347 274.95 37.0453 274.95 36.064C274.95 34.976 275.259 34.0373 275.878 33.248C276.496 32.4373 277.36 31.8187 278.47 31.392C279.6 30.944 280.934 30.72 282.47 30.72C283.622 30.72 284.784 30.848 285.958 31.104C287.131 31.36 288.102 31.7227 288.87 32.192L287.334 35.232C286.523 34.7413 285.702 34.4107 284.87 34.24C284.059 34.048 283.248 33.952 282.438 33.952C281.222 33.952 280.315 34.1333 279.718 34.496C279.142 34.8587 278.854 35.3173 278.854 35.872C278.854 36.384 279.046 36.768 279.43 37.024C279.814 37.28 280.315 37.4827 280.934 37.632C281.552 37.7813 282.235 37.9093 282.982 38.016C283.75 38.1013 284.507 38.24 285.254 38.432C286 38.624 286.683 38.8907 287.302 39.232C287.942 39.552 288.454 40.0107 288.838 40.608C289.222 41.2053 289.414 41.984 289.414 42.944C289.414 44.0107 289.094 44.9387 288.454 45.728C287.835 46.5173 286.95 47.136 285.798 47.584C284.646 48.0107 283.27 48.224 281.67 48.224ZM299.29 48.224C297.413 48.224 295.962 47.744 294.938 46.784C293.914 45.8027 293.402 44.3627 293.402 42.464V27.136H297.402V42.368C297.402 43.1787 297.605 43.808 298.01 44.256C298.437 44.704 299.024 44.928 299.77 44.928C300.666 44.928 301.413 44.6933 302.01 44.224L303.13 47.072C302.661 47.456 302.085 47.744 301.402 47.936C300.72 48.128 300.016 48.224 299.29 48.224ZM290.586 34.24V31.04H301.978V34.24H290.586Z" fill="#55C9FD"/>
    <path d="M440.446 139V116.6H443.87L453.662 132.952H451.87L461.502 116.6H464.926L464.958 139H461.022L460.99 122.776H461.822L453.63 136.44H451.774L443.454 122.776H444.414V139H440.446ZM470.624 139V121.912H474.624V139H470.624ZM472.64 119.096C471.893 119.096 471.275 118.861 470.784 118.392C470.315 117.923 470.08 117.357 470.08 116.696C470.08 116.013 470.315 115.448 470.784 115C471.275 114.531 471.893 114.296 472.64 114.296C473.387 114.296 473.995 114.52 474.464 114.968C474.955 115.395 475.2 115.939 475.2 116.6C475.2 117.304 474.965 117.901 474.496 118.392C474.027 118.861 473.408 119.096 472.64 119.096ZM487.714 139.224C485.922 139.224 484.322 138.851 482.914 138.104C481.527 137.336 480.439 136.291 479.65 134.968C478.861 133.645 478.466 132.141 478.466 130.456C478.466 128.749 478.861 127.245 479.65 125.944C480.439 124.621 481.527 123.587 482.914 122.84C484.322 122.093 485.922 121.72 487.714 121.72C489.378 121.72 490.839 122.061 492.098 122.744C493.378 123.405 494.349 124.387 495.01 125.688L491.938 127.48C491.426 126.669 490.797 126.072 490.05 125.688C489.325 125.304 488.535 125.112 487.682 125.112C486.701 125.112 485.815 125.325 485.026 125.752C484.237 126.179 483.618 126.797 483.17 127.608C482.722 128.397 482.498 129.347 482.498 130.456C482.498 131.565 482.722 132.525 483.17 133.336C483.618 134.125 484.237 134.733 485.026 135.16C485.815 135.587 486.701 135.8 487.682 135.8C488.535 135.8 489.325 135.608 490.05 135.224C490.797 134.84 491.426 134.243 491.938 133.432L495.01 135.224C494.349 136.504 493.378 137.496 492.098 138.2C490.839 138.883 489.378 139.224 487.714 139.224ZM498.468 139V121.912H502.276V126.616L501.828 125.24C502.34 124.088 503.14 123.213 504.228 122.616C505.337 122.019 506.713 121.72 508.356 121.72V125.528C508.185 125.485 508.025 125.464 507.876 125.464C507.726 125.443 507.577 125.432 507.428 125.432C505.913 125.432 504.708 125.88 503.812 126.776C502.916 127.651 502.468 128.963 502.468 130.712V139H498.468ZM519.273 139.224C517.523 139.224 515.966 138.851 514.601 138.104C513.235 137.336 512.158 136.291 511.369 134.968C510.579 133.645 510.185 132.141 510.185 130.456C510.185 128.749 510.579 127.245 511.369 125.944C512.158 124.621 513.235 123.587 514.601 122.84C515.966 122.093 517.523 121.72 519.273 121.72C521.043 121.72 522.611 122.093 523.977 122.84C525.363 123.587 526.441 124.611 527.209 125.912C527.998 127.213 528.393 128.728 528.393 130.456C528.393 132.141 527.998 133.645 527.209 134.968C526.441 136.291 525.363 137.336 523.977 138.104C522.611 138.851 521.043 139.224 519.273 139.224ZM519.273 135.8C520.254 135.8 521.129 135.587 521.897 135.16C522.665 134.733 523.262 134.115 523.689 133.304C524.137 132.493 524.361 131.544 524.361 130.456C524.361 129.347 524.137 128.397 523.689 127.608C523.262 126.797 522.665 126.179 521.897 125.752C521.129 125.325 520.265 125.112 519.305 125.112C518.323 125.112 517.449 125.325 516.681 125.752C515.934 126.179 515.337 126.797 514.889 127.608C514.441 128.397 514.217 129.347 514.217 130.456C514.217 131.544 514.441 132.493 514.889 133.304C515.337 134.115 515.934 134.733 516.681 135.16C517.449 135.587 518.313 135.8 519.273 135.8ZM532.218 139V115.256H536.218V139H532.218ZM541.468 139V121.912H545.468V139H541.468ZM543.484 119.096C542.737 119.096 542.118 118.861 541.628 118.392C541.158 117.923 540.924 117.357 540.924 116.696C540.924 116.013 541.158 115.448 541.628 115C542.118 114.531 542.737 114.296 543.484 114.296C544.23 114.296 544.838 114.52 545.308 114.968C545.798 115.395 546.044 115.939 546.044 116.6C546.044 117.304 545.809 117.901 545.34 118.392C544.87 118.861 544.252 119.096 543.484 119.096ZM551.262 139V120.952C551.262 119.16 551.784 117.731 552.83 116.664C553.896 115.576 555.411 115.032 557.374 115.032C558.078 115.032 558.739 115.107 559.358 115.256C559.998 115.405 560.531 115.64 560.958 115.96L559.87 118.968C559.571 118.733 559.23 118.563 558.846 118.456C558.462 118.328 558.067 118.264 557.662 118.264C556.83 118.264 556.2 118.499 555.774 118.968C555.347 119.416 555.134 120.099 555.134 121.016V122.936L555.262 124.728V139H551.262ZM548.446 125.24V122.04H559.838V125.24H548.446ZM570.312 139.224C568.414 139.224 566.75 138.851 565.32 138.104C563.912 137.336 562.814 136.291 562.024 134.968C561.256 133.645 560.872 132.141 560.872 130.456C560.872 128.749 561.246 127.245 561.992 125.944C562.76 124.621 563.806 123.587 565.128 122.84C566.472 122.093 567.998 121.72 569.704 121.72C571.368 121.72 572.851 122.083 574.152 122.808C575.454 123.533 576.478 124.557 577.224 125.88C577.971 127.203 578.344 128.76 578.344 130.552C578.344 130.723 578.334 130.915 578.312 131.128C578.312 131.341 578.302 131.544 578.28 131.736H564.04V129.08H576.168L574.6 129.912C574.622 128.931 574.419 128.067 573.992 127.32C573.566 126.573 572.979 125.987 572.232 125.56C571.507 125.133 570.664 124.92 569.704 124.92C568.723 124.92 567.859 125.133 567.112 125.56C566.387 125.987 565.811 126.584 565.384 127.352C564.979 128.099 564.776 128.984 564.776 130.008V130.648C564.776 131.672 565.011 132.579 565.48 133.368C565.95 134.157 566.611 134.765 567.464 135.192C568.318 135.619 569.299 135.832 570.408 135.832C571.368 135.832 572.232 135.683 573 135.384C573.768 135.085 574.451 134.616 575.048 133.976L577.192 136.44C576.424 137.336 575.454 138.029 574.28 138.52C573.128 138.989 571.806 139.224 570.312 139.224Z" fill="#55C9FD"/>
    <path d="M691.88 274V255.12H684.456V251.6H703.464V255.12H696.04V274H691.88ZM715.824 274V270.544L715.6 269.808V263.76C715.6 262.587 715.248 261.68 714.544 261.04C713.84 260.379 712.773 260.048 711.344 260.048C710.384 260.048 709.435 260.197 708.496 260.496C707.579 260.795 706.8 261.211 706.16 261.744L704.592 258.832C705.509 258.128 706.597 257.605 707.856 257.264C709.136 256.901 710.459 256.72 711.824 256.72C714.299 256.72 716.208 257.317 717.552 258.512C718.917 259.685 719.6 261.509 719.6 263.984V274H715.824ZM710.448 274.224C709.168 274.224 708.048 274.011 707.088 273.584C706.128 273.136 705.381 272.528 704.848 271.76C704.336 270.971 704.08 270.085 704.08 269.104C704.08 268.144 704.304 267.28 704.752 266.512C705.221 265.744 705.979 265.136 707.024 264.688C708.069 264.24 709.456 264.016 711.184 264.016H716.144V266.672H711.472C710.107 266.672 709.189 266.896 708.72 267.344C708.251 267.771 708.016 268.304 708.016 268.944C708.016 269.669 708.304 270.245 708.88 270.672C709.456 271.099 710.256 271.312 711.28 271.312C712.261 271.312 713.136 271.088 713.904 270.64C714.693 270.192 715.259 269.531 715.6 268.656L716.272 271.056C715.888 272.059 715.195 272.837 714.192 273.392C713.211 273.947 711.963 274.224 710.448 274.224ZM727.997 270.192L728.093 265.168L737.021 256.912H741.821L734.237 264.528L732.125 266.288L727.997 270.192ZM724.733 274V250.256H728.733V274H724.733ZM737.629 274L731.389 266.288L733.917 263.088L742.493 274H737.629ZM752.422 274.224C750.523 274.224 748.859 273.851 747.43 273.104C746.022 272.336 744.923 271.291 744.134 269.968C743.366 268.645 742.982 267.141 742.982 265.456C742.982 263.749 743.355 262.245 744.102 260.944C744.87 259.621 745.915 258.587 747.238 257.84C748.582 257.093 750.107 256.72 751.814 256.72C753.478 256.72 754.96 257.083 756.262 257.808C757.563 258.533 758.587 259.557 759.334 260.88C760.08 262.203 760.454 263.76 760.454 265.552C760.454 265.723 760.443 265.915 760.422 266.128C760.422 266.341 760.411 266.544 760.39 266.736H746.15V264.08H758.278L756.71 264.912C756.731 263.931 756.528 263.067 756.102 262.32C755.675 261.573 755.088 260.987 754.342 260.56C753.616 260.133 752.774 259.92 751.814 259.92C750.832 259.92 749.968 260.133 749.222 260.56C748.496 260.987 747.92 261.584 747.494 262.352C747.088 263.099 746.886 263.984 746.886 265.008V265.648C746.886 266.672 747.12 267.579 747.59 268.368C748.059 269.157 748.72 269.765 749.574 270.192C750.427 270.619 751.408 270.832 752.518 270.832C753.478 270.832 754.342 270.683 755.11 270.384C755.878 270.085 756.56 269.616 757.158 268.976L759.302 271.44C758.534 272.336 757.563 273.029 756.39 273.52C755.238 273.989 753.915 274.224 752.422 274.224ZM779.572 274.224C777.694 274.224 776.244 273.744 775.22 272.784C774.196 271.803 773.684 270.363 773.684 268.464V253.136H777.684V268.368C777.684 269.179 777.886 269.808 778.292 270.256C778.718 270.704 779.305 270.928 780.052 270.928C780.948 270.928 781.694 270.693 782.292 270.224L783.412 273.072C782.942 273.456 782.366 273.744 781.684 273.936C781.001 274.128 780.297 274.224 779.572 274.224ZM770.868 260.24V257.04H782.26V260.24H770.868ZM793.82 274.224C792.07 274.224 790.513 273.851 789.148 273.104C787.782 272.336 786.705 271.291 785.916 269.968C785.126 268.645 784.732 267.141 784.732 265.456C784.732 263.749 785.126 262.245 785.916 260.944C786.705 259.621 787.782 258.587 789.148 257.84C790.513 257.093 792.07 256.72 793.82 256.72C795.59 256.72 797.158 257.093 798.524 257.84C799.91 258.587 800.988 259.611 801.756 260.912C802.545 262.213 802.94 263.728 802.94 265.456C802.94 267.141 802.545 268.645 801.756 269.968C800.988 271.291 799.91 272.336 798.524 273.104C797.158 273.851 795.59 274.224 793.82 274.224ZM793.82 270.8C794.801 270.8 795.676 270.587 796.444 270.16C797.212 269.733 797.809 269.115 798.236 268.304C798.684 267.493 798.908 266.544 798.908 265.456C798.908 264.347 798.684 263.397 798.236 262.608C797.809 261.797 797.212 261.179 796.444 260.752C795.676 260.325 794.812 260.112 793.852 260.112C792.87 260.112 791.996 260.325 791.228 260.752C790.481 261.179 789.884 261.797 789.436 262.608C788.988 263.397 788.764 264.347 788.764 265.456C788.764 266.544 788.988 267.493 789.436 268.304C789.884 269.115 790.481 269.733 791.228 270.16C791.996 270.587 792.86 270.8 793.82 270.8ZM822.04 274.224C820.163 274.224 818.712 273.744 817.688 272.784C816.664 271.803 816.152 270.363 816.152 268.464V253.136H820.152V268.368C820.152 269.179 820.355 269.808 820.76 270.256C821.187 270.704 821.774 270.928 822.52 270.928C823.416 270.928 824.163 270.693 824.76 270.224L825.88 273.072C825.411 273.456 824.835 273.744 824.152 273.936C823.47 274.128 822.766 274.224 822.04 274.224ZM813.336 260.24V257.04H824.728V260.24H813.336ZM838.867 256.72C840.232 256.72 841.448 256.987 842.515 257.52C843.603 258.053 844.456 258.875 845.075 259.984C845.694 261.072 846.003 262.48 846.003 264.208V274H842.003V264.72C842.003 263.205 841.64 262.075 840.915 261.328C840.211 260.581 839.219 260.208 837.939 260.208C837 260.208 836.168 260.4 835.443 260.784C834.718 261.168 834.152 261.744 833.747 262.512C833.363 263.259 833.171 264.208 833.171 265.36V274H829.171V250.256H833.171V261.52L832.307 260.112C832.904 259.024 833.768 258.192 834.899 257.616C836.051 257.019 837.374 256.72 838.867 256.72ZM859.14 274.224C857.242 274.224 855.578 273.851 854.148 273.104C852.74 272.336 851.642 271.291 850.852 269.968C850.084 268.645 849.7 267.141 849.7 265.456C849.7 263.749 850.074 262.245 850.82 260.944C851.588 259.621 852.634 258.587 853.956 257.84C855.3 257.093 856.826 256.72 858.532 256.72C860.196 256.72 861.679 257.083 862.98 257.808C864.282 258.533 865.306 259.557 866.052 260.88C866.799 262.203 867.172 263.76 867.172 265.552C867.172 265.723 867.162 265.915 867.14 266.128C867.14 266.341 867.13 266.544 867.108 266.736H852.868V264.08H864.996L863.428 264.912C863.45 263.931 863.247 263.067 862.82 262.32C862.394 261.573 861.807 260.987 861.06 260.56C860.335 260.133 859.492 259.92 858.532 259.92C857.551 259.92 856.687 260.133 855.94 260.56C855.215 260.987 854.639 261.584 854.212 262.352C853.807 263.099 853.604 263.984 853.604 265.008V265.648C853.604 266.672 853.839 267.579 854.308 268.368C854.778 269.157 855.439 269.765 856.292 270.192C857.146 270.619 858.127 270.832 859.236 270.832C860.196 270.832 861.06 270.683 861.828 270.384C862.596 270.085 863.279 269.616 863.876 268.976L866.02 271.44C865.252 272.336 864.282 273.029 863.108 273.52C861.956 273.989 860.634 274.224 859.14 274.224ZM885.138 274.224C883.709 274.224 882.333 274.043 881.01 273.68C879.709 273.296 878.674 272.837 877.906 272.304L879.442 269.264C880.21 269.755 881.128 270.16 882.194 270.48C883.261 270.8 884.328 270.96 885.394 270.96C886.653 270.96 887.56 270.789 888.114 270.448C888.69 270.107 888.978 269.648 888.978 269.072C888.978 268.603 888.786 268.251 888.402 268.016C888.018 267.76 887.517 267.568 886.898 267.44C886.28 267.312 885.586 267.195 884.818 267.088C884.072 266.981 883.314 266.843 882.546 266.672C881.8 266.48 881.117 266.213 880.498 265.872C879.88 265.509 879.378 265.029 878.994 264.432C878.61 263.835 878.418 263.045 878.418 262.064C878.418 260.976 878.728 260.037 879.346 259.248C879.965 258.437 880.829 257.819 881.938 257.392C883.069 256.944 884.402 256.72 885.938 256.72C887.09 256.72 888.253 256.848 889.426 257.104C890.6 257.36 891.57 257.723 892.338 258.192L890.802 261.232C889.992 260.741 889.17 260.411 888.338 260.24C887.528 260.048 886.717 259.952 885.906 259.952C884.69 259.952 883.784 260.133 883.186 260.496C882.61 260.859 882.322 261.317 882.322 261.872C882.322 262.384 882.514 262.768 882.898 263.024C883.282 263.28 883.784 263.483 884.402 263.632C885.021 263.781 885.704 263.909 886.45 264.016C887.218 264.101 887.976 264.24 888.722 264.432C889.469 264.624 890.152 264.891 890.77 265.232C891.41 265.552 891.922 266.011 892.306 266.608C892.69 267.205 892.882 267.984 892.882 268.944C892.882 270.011 892.562 270.939 891.922 271.728C891.304 272.517 890.418 273.136 889.266 273.584C888.114 274.011 886.738 274.224 885.138 274.224ZM899.591 270.192L899.687 265.168L908.615 256.912H913.415L905.831 264.528L903.719 266.288L899.591 270.192ZM896.327 274V250.256H900.327V274H896.327ZM909.223 274L902.983 266.288L905.511 263.088L914.087 274H909.223ZM916.671 274V256.912H920.671V274H916.671ZM918.687 254.096C917.94 254.096 917.322 253.861 916.831 253.392C916.362 252.923 916.127 252.357 916.127 251.696C916.127 251.013 916.362 250.448 916.831 250C917.322 249.531 917.94 249.296 918.687 249.296C919.434 249.296 920.042 249.52 920.511 249.968C921.002 250.395 921.247 250.939 921.247 251.6C921.247 252.304 921.012 252.901 920.543 253.392C920.074 253.861 919.455 254.096 918.687 254.096ZM933.953 274.224C932.054 274.224 930.39 273.851 928.961 273.104C927.553 272.336 926.454 271.291 925.665 269.968C924.897 268.645 924.513 267.141 924.513 265.456C924.513 263.749 924.886 262.245 925.633 260.944C926.401 259.621 927.446 258.587 928.769 257.84C930.113 257.093 931.638 256.72 933.345 256.72C935.009 256.72 936.492 257.083 937.793 257.808C939.094 258.533 940.118 259.557 940.865 260.88C941.612 262.203 941.985 263.76 941.985 265.552C941.985 265.723 941.974 265.915 941.953 266.128C941.953 266.341 941.942 266.544 941.921 266.736H927.681V264.08H939.809L938.241 264.912C938.262 263.931 938.06 263.067 937.633 262.32C937.206 261.573 936.62 260.987 935.873 260.56C935.148 260.133 934.305 259.92 933.345 259.92C932.364 259.92 931.5 260.133 930.753 260.56C930.028 260.987 929.452 261.584 929.025 262.352C928.62 263.099 928.417 263.984 928.417 265.008V265.648C928.417 266.672 928.652 267.579 929.121 268.368C929.59 269.157 930.252 269.765 931.105 270.192C931.958 270.619 932.94 270.832 934.049 270.832C935.009 270.832 935.873 270.683 936.641 270.384C937.409 270.085 938.092 269.616 938.689 268.976L940.833 271.44C940.065 272.336 939.094 273.029 937.921 273.52C936.769 273.989 935.446 274.224 933.953 274.224ZM951.107 274.224C949.678 274.224 948.302 274.043 946.979 273.68C945.678 273.296 944.643 272.837 943.875 272.304L945.411 269.264C946.179 269.755 947.096 270.16 948.163 270.48C949.23 270.8 950.296 270.96 951.363 270.96C952.622 270.96 953.528 270.789 954.083 270.448C954.659 270.107 954.947 269.648 954.947 269.072C954.947 268.603 954.755 268.251 954.371 268.016C953.987 267.76 953.486 267.568 952.867 267.44C952.248 267.312 951.555 267.195 950.787 267.088C950.04 266.981 949.283 266.843 948.515 266.672C947.768 266.48 947.086 266.213 946.467 265.872C945.848 265.509 945.347 265.029 944.963 264.432C944.579 263.835 944.387 263.045 944.387 262.064C944.387 260.976 944.696 260.037 945.315 259.248C945.934 258.437 946.798 257.819 947.907 257.392C949.038 256.944 950.371 256.72 951.907 256.72C953.059 256.72 954.222 256.848 955.395 257.104C956.568 257.36 957.539 257.723 958.307 258.192L956.771 261.232C955.96 260.741 955.139 260.411 954.307 260.24C953.496 260.048 952.686 259.952 951.875 259.952C950.659 259.952 949.752 260.133 949.155 260.496C948.579 260.859 948.291 261.317 948.291 261.872C948.291 262.384 948.483 262.768 948.867 263.024C949.251 263.28 949.752 263.483 950.371 263.632C950.99 263.781 951.672 263.909 952.419 264.016C953.187 264.101 953.944 264.24 954.691 264.432C955.438 264.624 956.12 264.891 956.739 265.232C957.379 265.552 957.891 266.011 958.275 266.608C958.659 267.205 958.851 267.984 958.851 268.944C958.851 270.011 958.531 270.939 957.891 271.728C957.272 272.517 956.387 273.136 955.235 273.584C954.083 274.011 952.707 274.224 951.107 274.224Z" fill="#55C9FD"/>
    <path d="M778.755 31V12.12H771.331V8.6H790.339V12.12H782.915V31H778.755ZM802.773 13.72C804.138 13.72 805.354 13.9867 806.421 14.52C807.509 15.0533 808.362 15.8747 808.981 16.984C809.6 18.072 809.909 19.48 809.909 21.208V31H805.909V21.72C805.909 20.2053 805.546 19.0747 804.821 18.328C804.117 17.5813 803.125 17.208 801.845 17.208C800.906 17.208 800.074 17.4 799.349 17.784C798.624 18.168 798.058 18.744 797.653 19.512C797.269 20.2587 797.077 21.208 797.077 22.36V31H793.077V7.256H797.077V18.52L796.213 17.112C796.81 16.024 797.674 15.192 798.805 14.616C799.957 14.0187 801.28 13.72 802.773 13.72ZM823.047 31.224C821.148 31.224 819.484 30.8507 818.055 30.104C816.647 29.336 815.548 28.2907 814.759 26.968C813.991 25.6453 813.607 24.1413 813.607 22.456C813.607 20.7493 813.98 19.2453 814.727 17.944C815.495 16.6213 816.54 15.5867 817.863 14.84C819.207 14.0933 820.732 13.72 822.439 13.72C824.103 13.72 825.585 14.0827 826.887 14.808C828.188 15.5333 829.212 16.5573 829.959 17.88C830.705 19.2027 831.079 20.76 831.079 22.552C831.079 22.7227 831.068 22.9147 831.047 23.128C831.047 23.3413 831.036 23.544 831.015 23.736H816.775V21.08H828.903L827.335 21.912C827.356 20.9307 827.153 20.0667 826.727 19.32C826.3 18.5733 825.713 17.9867 824.967 17.56C824.241 17.1333 823.399 16.92 822.439 16.92C821.457 16.92 820.593 17.1333 819.847 17.56C819.121 17.9867 818.545 18.584 818.119 19.352C817.713 20.0987 817.511 20.984 817.511 22.008V22.648C817.511 23.672 817.745 24.5787 818.215 25.368C818.684 26.1573 819.345 26.7653 820.199 27.192C821.052 27.6187 822.033 27.832 823.143 27.832C824.103 27.832 824.967 27.6827 825.735 27.384C826.503 27.0853 827.185 26.616 827.783 25.976L829.927 28.44C829.159 29.336 828.188 30.0293 827.015 30.52C825.863 30.9893 824.54 31.224 823.047 31.224ZM847.541 31L841.269 13.912H845.045L850.421 28.984H848.629L854.261 13.912H857.621L863.093 28.984H861.333L866.869 13.912H870.421L864.117 31H860.277L855.285 17.656H856.469L851.381 31H847.541ZM880.734 31.224C878.835 31.224 877.171 30.8507 875.742 30.104C874.334 29.336 873.235 28.2907 872.446 26.968C871.678 25.6453 871.294 24.1413 871.294 22.456C871.294 20.7493 871.667 19.2453 872.414 17.944C873.182 16.6213 874.227 15.5867 875.55 14.84C876.894 14.0933 878.419 13.72 880.126 13.72C881.79 13.72 883.273 14.0827 884.574 14.808C885.875 15.5333 886.899 16.5573 887.646 17.88C888.393 19.2027 888.766 20.76 888.766 22.552C888.766 22.7227 888.755 22.9147 888.734 23.128C888.734 23.3413 888.723 23.544 888.702 23.736H874.462V21.08H886.59L885.022 21.912C885.043 20.9307 884.841 20.0667 884.414 19.32C883.987 18.5733 883.401 17.9867 882.654 17.56C881.929 17.1333 881.086 16.92 880.126 16.92C879.145 16.92 878.281 17.1333 877.534 17.56C876.809 17.9867 876.233 18.584 875.806 19.352C875.401 20.0987 875.198 20.984 875.198 22.008V22.648C875.198 23.672 875.433 24.5787 875.902 25.368C876.371 26.1573 877.033 26.7653 877.886 27.192C878.739 27.6187 879.721 27.832 880.83 27.832C881.79 27.832 882.654 27.6827 883.422 27.384C884.19 27.0853 884.873 26.616 885.47 25.976L887.614 28.44C886.846 29.336 885.875 30.0293 884.702 30.52C883.55 30.9893 882.227 31.224 880.734 31.224ZM902.668 31V27.544L902.444 26.808V20.76C902.444 19.5867 902.092 18.68 901.388 18.04C900.684 17.3787 899.617 17.048 898.188 17.048C897.228 17.048 896.278 17.1973 895.34 17.496C894.422 17.7947 893.644 18.2107 893.004 18.744L891.436 15.832C892.353 15.128 893.441 14.6053 894.7 14.264C895.98 13.9013 897.302 13.72 898.668 13.72C901.142 13.72 903.052 14.3173 904.396 15.512C905.761 16.6853 906.444 18.5093 906.444 20.984V31H902.668ZM897.292 31.224C896.012 31.224 894.892 31.0107 893.932 30.584C892.972 30.136 892.225 29.528 891.692 28.76C891.18 27.9707 890.924 27.0853 890.924 26.104C890.924 25.144 891.148 24.28 891.596 23.512C892.065 22.744 892.822 22.136 893.868 21.688C894.913 21.24 896.3 21.016 898.028 21.016H902.988V23.672H898.316C896.95 23.672 896.033 23.896 895.564 24.344C895.094 24.7707 894.86 25.304 894.86 25.944C894.86 26.6693 895.148 27.2453 895.724 27.672C896.3 28.0987 897.1 28.312 898.124 28.312C899.105 28.312 899.98 28.088 900.748 27.64C901.537 27.192 902.102 26.5307 902.444 25.656L903.116 28.056C902.732 29.0587 902.038 29.8373 901.036 30.392C900.054 30.9467 898.806 31.224 897.292 31.224ZM918.009 31.224C916.132 31.224 914.681 30.744 913.657 29.784C912.633 28.8027 912.121 27.3627 912.121 25.464V10.136H916.121V25.368C916.121 26.1787 916.324 26.808 916.729 27.256C917.156 27.704 917.742 27.928 918.489 27.928C919.385 27.928 920.132 27.6933 920.729 27.224L921.849 30.072C921.38 30.456 920.804 30.744 920.121 30.936C919.438 31.128 918.734 31.224 918.009 31.224ZM909.305 17.24V14.04H920.697V17.24H909.305ZM934.836 13.72C936.201 13.72 937.417 13.9867 938.484 14.52C939.572 15.0533 940.425 15.8747 941.044 16.984C941.662 18.072 941.972 19.48 941.972 21.208V31H937.972V21.72C937.972 20.2053 937.609 19.0747 936.884 18.328C936.18 17.5813 935.188 17.208 933.908 17.208C932.969 17.208 932.137 17.4 931.412 17.784C930.686 18.168 930.121 18.744 929.716 19.512C929.332 20.2587 929.14 21.208 929.14 22.36V31H925.14V7.256H929.14V18.52L928.276 17.112C928.873 16.024 929.737 15.192 930.868 14.616C932.02 14.0187 933.342 13.72 934.836 13.72ZM955.109 31.224C953.21 31.224 951.546 30.8507 950.117 30.104C948.709 29.336 947.61 28.2907 946.821 26.968C946.053 25.6453 945.669 24.1413 945.669 22.456C945.669 20.7493 946.042 19.2453 946.789 17.944C947.557 16.6213 948.602 15.5867 949.925 14.84C951.269 14.0933 952.794 13.72 954.501 13.72C956.165 13.72 957.648 14.0827 958.949 14.808C960.25 15.5333 961.274 16.5573 962.021 17.88C962.768 19.2027 963.141 20.76 963.141 22.552C963.141 22.7227 963.13 22.9147 963.109 23.128C963.109 23.3413 963.098 23.544 963.077 23.736H948.837V21.08H960.965L959.397 21.912C959.418 20.9307 959.216 20.0667 958.789 19.32C958.362 18.5733 957.776 17.9867 957.029 17.56C956.304 17.1333 955.461 16.92 954.501 16.92C953.52 16.92 952.656 17.1333 951.909 17.56C951.184 17.9867 950.608 18.584 950.181 19.352C949.776 20.0987 949.573 20.984 949.573 22.008V22.648C949.573 23.672 949.808 24.5787 950.277 25.368C950.746 26.1573 951.408 26.7653 952.261 27.192C953.114 27.6187 954.096 27.832 955.205 27.832C956.165 27.832 957.029 27.6827 957.797 27.384C958.565 27.0853 959.248 26.616 959.845 25.976L961.989 28.44C961.221 29.336 960.25 30.0293 959.077 30.52C957.925 30.9893 956.602 31.224 955.109 31.224ZM966.983 31V13.912H970.791V18.616L970.343 17.24C970.855 16.088 971.655 15.2133 972.743 14.616C973.853 14.0187 975.229 13.72 976.871 13.72V17.528C976.701 17.4853 976.541 17.464 976.391 17.464C976.242 17.4427 976.093 17.432 975.943 17.432C974.429 17.432 973.223 17.88 972.327 18.776C971.431 19.6507 970.983 20.9627 970.983 22.712V31H966.983Z" fill="#55C9FD"/>
    <path d="M294.086 286V263.6H303.302C305.286 263.6 306.982 263.92 308.39 264.56C309.819 265.2 310.918 266.117 311.686 267.312C312.454 268.507 312.838 269.925 312.838 271.568C312.838 273.211 312.454 274.629 311.686 275.824C310.918 277.019 309.819 277.936 308.39 278.576C306.982 279.216 305.286 279.536 303.302 279.536H296.39L298.246 277.584V286H294.086ZM298.246 278.032L296.39 276.016H303.11C304.945 276.016 306.321 275.632 307.238 274.864C308.177 274.075 308.646 272.976 308.646 271.568C308.646 270.139 308.177 269.04 307.238 268.272C306.321 267.504 304.945 267.12 303.11 267.12H296.39L298.246 265.072V278.032ZM316.921 286V262.256H320.921V286H316.921ZM336.699 286V282.544L336.475 281.808V275.76C336.475 274.587 336.123 273.68 335.419 273.04C334.715 272.379 333.648 272.048 332.219 272.048C331.259 272.048 330.31 272.197 329.371 272.496C328.454 272.795 327.675 273.211 327.035 273.744L325.467 270.832C326.384 270.128 327.472 269.605 328.731 269.264C330.011 268.901 331.334 268.72 332.699 268.72C335.174 268.72 337.083 269.317 338.427 270.512C339.792 271.685 340.475 273.509 340.475 275.984V286H336.699ZM331.323 286.224C330.043 286.224 328.923 286.011 327.963 285.584C327.003 285.136 326.256 284.528 325.723 283.76C325.211 282.971 324.955 282.085 324.955 281.104C324.955 280.144 325.179 279.28 325.627 278.512C326.096 277.744 326.854 277.136 327.899 276.688C328.944 276.24 330.331 276.016 332.059 276.016H337.019V278.672H332.347C330.982 278.672 330.064 278.896 329.595 279.344C329.126 279.771 328.891 280.304 328.891 280.944C328.891 281.669 329.179 282.245 329.755 282.672C330.331 283.099 331.131 283.312 332.155 283.312C333.136 283.312 334.011 283.088 334.779 282.64C335.568 282.192 336.134 281.531 336.475 280.656L337.147 283.056C336.763 284.059 336.07 284.837 335.067 285.392C334.086 285.947 332.838 286.224 331.323 286.224ZM355.304 268.72C356.67 268.72 357.886 268.987 358.952 269.52C360.04 270.053 360.894 270.875 361.512 271.984C362.131 273.072 362.44 274.48 362.44 276.208V286H358.44V276.72C358.44 275.205 358.078 274.075 357.352 273.328C356.648 272.581 355.656 272.208 354.376 272.208C353.438 272.208 352.606 272.4 351.88 272.784C351.155 273.168 350.59 273.744 350.184 274.512C349.8 275.259 349.608 276.208 349.608 277.36V286H345.608V268.912H349.416V273.52L348.744 272.112C349.342 271.024 350.206 270.192 351.336 269.616C352.488 269.019 353.811 268.72 355.304 268.72ZM373.947 286.224C372.069 286.224 370.619 285.744 369.595 284.784C368.571 283.803 368.059 282.363 368.059 280.464V265.136H372.059V280.368C372.059 281.179 372.261 281.808 372.667 282.256C373.093 282.704 373.68 282.928 374.427 282.928C375.323 282.928 376.069 282.693 376.667 282.224L377.787 285.072C377.317 285.456 376.741 285.744 376.059 285.936C375.376 286.128 374.672 286.224 373.947 286.224ZM365.243 272.24V269.04H376.635V272.24H365.243ZM386.357 286.224C384.928 286.224 383.552 286.043 382.229 285.68C380.928 285.296 379.893 284.837 379.125 284.304L380.661 281.264C381.429 281.755 382.346 282.16 383.413 282.48C384.48 282.8 385.546 282.96 386.613 282.96C387.872 282.96 388.778 282.789 389.333 282.448C389.909 282.107 390.197 281.648 390.197 281.072C390.197 280.603 390.005 280.251 389.621 280.016C389.237 279.76 388.736 279.568 388.117 279.44C387.498 279.312 386.805 279.195 386.037 279.088C385.29 278.981 384.533 278.843 383.765 278.672C383.018 278.48 382.336 278.213 381.717 277.872C381.098 277.509 380.597 277.029 380.213 276.432C379.829 275.835 379.637 275.045 379.637 274.064C379.637 272.976 379.946 272.037 380.565 271.248C381.184 270.437 382.048 269.819 383.157 269.392C384.288 268.944 385.621 268.72 387.157 268.72C388.309 268.72 389.472 268.848 390.645 269.104C391.818 269.36 392.789 269.723 393.557 270.192L392.021 273.232C391.21 272.741 390.389 272.411 389.557 272.24C388.746 272.048 387.936 271.952 387.125 271.952C385.909 271.952 385.002 272.133 384.405 272.496C383.829 272.859 383.541 273.317 383.541 273.872C383.541 274.384 383.733 274.768 384.117 275.024C384.501 275.28 385.002 275.483 385.621 275.632C386.24 275.781 386.922 275.909 387.669 276.016C388.437 276.101 389.194 276.24 389.941 276.432C390.688 276.624 391.37 276.891 391.989 277.232C392.629 277.552 393.141 278.011 393.525 278.608C393.909 279.205 394.101 279.984 394.101 280.944C394.101 282.011 393.781 282.939 393.141 283.728C392.522 284.517 391.637 285.136 390.485 285.584C389.333 286.011 387.957 286.224 386.357 286.224Z" fill="#55C9FD"/>
    <path d="M904.005 139V120.12H896.581V116.6H915.589V120.12H908.165V139H904.005ZM928.023 121.72C929.388 121.72 930.604 121.987 931.671 122.52C932.759 123.053 933.612 123.875 934.231 124.984C934.85 126.072 935.159 127.48 935.159 129.208V139H931.159V129.72C931.159 128.205 930.796 127.075 930.071 126.328C929.367 125.581 928.375 125.208 927.095 125.208C926.156 125.208 925.324 125.4 924.599 125.784C923.874 126.168 923.308 126.744 922.903 127.512C922.519 128.259 922.327 129.208 922.327 130.36V139H918.327V115.256H922.327V126.52L921.463 125.112C922.06 124.024 922.924 123.192 924.055 122.616C925.207 122.019 926.53 121.72 928.023 121.72ZM948.297 139.224C946.398 139.224 944.734 138.851 943.305 138.104C941.897 137.336 940.798 136.291 940.009 134.968C939.241 133.645 938.857 132.141 938.857 130.456C938.857 128.749 939.23 127.245 939.977 125.944C940.745 124.621 941.79 123.587 943.113 122.84C944.457 122.093 945.982 121.72 947.689 121.72C949.353 121.72 950.835 122.083 952.137 122.808C953.438 123.533 954.462 124.557 955.209 125.88C955.955 127.203 956.329 128.76 956.329 130.552C956.329 130.723 956.318 130.915 956.297 131.128C956.297 131.341 956.286 131.544 956.265 131.736H942.025V129.08H954.153L952.585 129.912C952.606 128.931 952.403 128.067 951.977 127.32C951.55 126.573 950.963 125.987 950.217 125.56C949.491 125.133 948.649 124.92 947.689 124.92C946.707 124.92 945.843 125.133 945.097 125.56C944.371 125.987 943.795 126.584 943.369 127.352C942.963 128.099 942.761 128.984 942.761 130.008V130.648C942.761 131.672 942.995 132.579 943.465 133.368C943.934 134.157 944.595 134.765 945.449 135.192C946.302 135.619 947.283 135.832 948.393 135.832C949.353 135.832 950.217 135.683 950.985 135.384C951.753 135.085 952.435 134.616 953.033 133.976L955.177 136.44C954.409 137.336 953.438 138.029 952.265 138.52C951.113 138.989 949.79 139.224 948.297 139.224ZM979.031 139.32C975.959 139.32 973.548 138.456 971.799 136.728C970.071 135 969.207 132.504 969.207 129.24V116.6H973.367V129.08C973.367 131.384 973.857 133.059 974.839 134.104C975.841 135.149 977.249 135.672 979.063 135.672C980.876 135.672 982.273 135.149 983.255 134.104C984.236 133.059 984.727 131.384 984.727 129.08V116.6H988.823V129.24C988.823 132.504 987.948 135 986.199 136.728C984.471 138.456 982.081 139.32 979.031 139.32ZM1003.96 121.72C1005.33 121.72 1006.54 121.987 1007.61 122.52C1008.7 123.053 1009.55 123.875 1010.17 124.984C1010.79 126.072 1011.1 127.48 1011.1 129.208V139H1007.1V129.72C1007.1 128.205 1006.73 127.075 1006.01 126.328C1005.3 125.581 1004.31 125.208 1003.03 125.208C1002.09 125.208 1001.26 125.4 1000.54 125.784C999.811 126.168 999.246 126.744 998.841 127.512C998.457 128.259 998.265 129.208 998.265 130.36V139H994.265V121.912H998.073V126.52L997.401 125.112C997.998 124.024 998.862 123.192 999.993 122.616C1001.14 122.019 1002.47 121.72 1003.96 121.72ZM1016.17 139V121.912H1020.17V139H1016.17ZM1018.19 119.096C1017.44 119.096 1016.82 118.861 1016.33 118.392C1015.86 117.923 1015.63 117.357 1015.63 116.696C1015.63 116.013 1015.86 115.448 1016.33 115C1016.82 114.531 1017.44 114.296 1018.19 114.296C1018.93 114.296 1019.54 114.52 1020.01 114.968C1020.5 115.395 1020.75 115.939 1020.75 116.6C1020.75 117.304 1020.51 117.901 1020.04 118.392C1019.57 118.861 1018.95 119.096 1018.19 119.096ZM1029.96 139L1022.64 121.912H1026.8L1033.1 136.984H1031.05L1037.58 121.912H1041.42L1034.09 139H1029.96ZM1051.48 139.224C1049.59 139.224 1047.92 138.851 1046.49 138.104C1045.08 137.336 1043.99 136.291 1043.2 134.968C1042.43 133.645 1042.04 132.141 1042.04 130.456C1042.04 128.749 1042.42 127.245 1043.16 125.944C1043.93 124.621 1044.98 123.587 1046.3 122.84C1047.64 122.093 1049.17 121.72 1050.88 121.72C1052.54 121.72 1054.02 122.083 1055.32 122.808C1056.63 123.533 1057.65 124.557 1058.4 125.88C1059.14 127.203 1059.52 128.76 1059.52 130.552C1059.52 130.723 1059.51 130.915 1059.48 131.128C1059.48 131.341 1059.47 131.544 1059.45 131.736H1045.21V129.08H1057.34L1055.77 129.912C1055.79 128.931 1055.59 128.067 1055.16 127.32C1054.74 126.573 1054.15 125.987 1053.4 125.56C1052.68 125.133 1051.84 124.92 1050.88 124.92C1049.89 124.92 1049.03 125.133 1048.28 125.56C1047.56 125.987 1046.98 126.584 1046.56 127.352C1046.15 128.099 1045.95 128.984 1045.95 130.008V130.648C1045.95 131.672 1046.18 132.579 1046.65 133.368C1047.12 134.157 1047.78 134.765 1048.64 135.192C1049.49 135.619 1050.47 135.832 1051.58 135.832C1052.54 135.832 1053.4 135.683 1054.17 135.384C1054.94 135.085 1055.62 134.616 1056.22 133.976L1058.36 136.44C1057.6 137.336 1056.63 138.029 1055.45 138.52C1054.3 138.989 1052.98 139.224 1051.48 139.224ZM1063.36 139V121.912H1067.17V126.616L1066.72 125.24C1067.23 124.088 1068.03 123.213 1069.12 122.616C1070.23 122.019 1071.6 121.72 1073.25 121.72V125.528C1073.08 125.485 1072.92 125.464 1072.77 125.464C1072.62 125.443 1072.47 125.432 1072.32 125.432C1070.8 125.432 1069.6 125.88 1068.7 126.776C1067.81 127.651 1067.36 128.963 1067.36 130.712V139H1063.36ZM1082.08 139.224C1080.65 139.224 1079.27 139.043 1077.95 138.68C1076.65 138.296 1075.61 137.837 1074.84 137.304L1076.38 134.264C1077.15 134.755 1078.07 135.16 1079.13 135.48C1080.2 135.8 1081.27 135.96 1082.33 135.96C1083.59 135.96 1084.5 135.789 1085.05 135.448C1085.63 135.107 1085.92 134.648 1085.92 134.072C1085.92 133.603 1085.72 133.251 1085.34 133.016C1084.96 132.76 1084.45 132.568 1083.84 132.44C1083.22 132.312 1082.52 132.195 1081.76 132.088C1081.01 131.981 1080.25 131.843 1079.48 131.672C1078.74 131.48 1078.05 131.213 1077.44 130.872C1076.82 130.509 1076.32 130.029 1075.93 129.432C1075.55 128.835 1075.36 128.045 1075.36 127.064C1075.36 125.976 1075.67 125.037 1076.28 124.248C1076.9 123.437 1077.77 122.819 1078.88 122.392C1080.01 121.944 1081.34 121.72 1082.88 121.72C1084.03 121.72 1085.19 121.848 1086.36 122.104C1087.54 122.36 1088.51 122.723 1089.28 123.192L1087.74 126.232C1086.93 125.741 1086.11 125.411 1085.28 125.24C1084.47 125.048 1083.65 124.952 1082.84 124.952C1081.63 124.952 1080.72 125.133 1080.12 125.496C1079.55 125.859 1079.26 126.317 1079.26 126.872C1079.26 127.384 1079.45 127.768 1079.84 128.024C1080.22 128.28 1080.72 128.483 1081.34 128.632C1081.96 128.781 1082.64 128.909 1083.39 129.016C1084.16 129.101 1084.91 129.24 1085.66 129.432C1086.41 129.624 1087.09 129.891 1087.71 130.232C1088.35 130.552 1088.86 131.011 1089.24 131.608C1089.63 132.205 1089.82 132.984 1089.82 133.944C1089.82 135.011 1089.5 135.939 1088.86 136.728C1088.24 137.517 1087.36 138.136 1086.2 138.584C1085.05 139.011 1083.68 139.224 1082.08 139.224ZM1101.3 139.224C1099.4 139.224 1097.73 138.851 1096.3 138.104C1094.9 137.336 1093.8 136.291 1093.01 134.968C1092.24 133.645 1091.86 132.141 1091.86 130.456C1091.86 128.749 1092.23 127.245 1092.98 125.944C1093.74 124.621 1094.79 123.587 1096.11 122.84C1097.46 122.093 1098.98 121.72 1100.69 121.72C1102.35 121.72 1103.84 122.083 1105.14 122.808C1106.44 123.533 1107.46 124.557 1108.21 125.88C1108.96 127.203 1109.33 128.76 1109.33 130.552C1109.33 130.723 1109.32 130.915 1109.3 131.128C1109.3 131.341 1109.29 131.544 1109.26 131.736H1095.02V129.08H1107.15L1105.58 129.912C1105.61 128.931 1105.4 128.067 1104.98 127.32C1104.55 126.573 1103.96 125.987 1103.22 125.56C1102.49 125.133 1101.65 124.92 1100.69 124.92C1099.71 124.92 1098.84 125.133 1098.1 125.56C1097.37 125.987 1096.8 126.584 1096.37 127.352C1095.96 128.099 1095.76 128.984 1095.76 130.008V130.648C1095.76 131.672 1096 132.579 1096.46 133.368C1096.93 134.157 1097.6 134.765 1098.45 135.192C1099.3 135.619 1100.28 135.832 1101.39 135.832C1102.35 135.832 1103.22 135.683 1103.98 135.384C1104.75 135.085 1105.44 134.616 1106.03 133.976L1108.18 136.44C1107.41 137.336 1106.44 138.029 1105.26 138.52C1104.11 138.989 1102.79 139.224 1101.3 139.224Z" fill="#55C9FD"/>
    <path d="M79.0364 198V179.12H71.6124V175.6H90.6204V179.12H83.1964V198H79.0364ZM103.054 180.72C104.42 180.72 105.636 180.987 106.702 181.52C107.79 182.053 108.644 182.875 109.262 183.984C109.881 185.072 110.19 186.48 110.19 188.208V198H106.19V188.72C106.19 187.205 105.828 186.075 105.102 185.328C104.398 184.581 103.406 184.208 102.126 184.208C101.188 184.208 100.356 184.4 99.6304 184.784C98.905 185.168 98.3397 185.744 97.9344 186.512C97.5504 187.259 97.3584 188.208 97.3584 189.36V198H93.3584V174.256H97.3584V185.52L96.4944 184.112C97.0917 183.024 97.9557 182.192 99.0864 181.616C100.238 181.019 101.561 180.72 103.054 180.72ZM123.328 198.224C121.429 198.224 119.765 197.851 118.336 197.104C116.928 196.336 115.829 195.291 115.04 193.968C114.272 192.645 113.888 191.141 113.888 189.456C113.888 187.749 114.261 186.245 115.008 184.944C115.776 183.621 116.821 182.587 118.144 181.84C119.488 181.093 121.013 180.72 122.72 180.72C124.384 180.72 125.867 181.083 127.168 181.808C128.469 182.533 129.493 183.557 130.24 184.88C130.987 186.203 131.36 187.76 131.36 189.552C131.36 189.723 131.349 189.915 131.328 190.128C131.328 190.341 131.317 190.544 131.296 190.736H117.056V188.08H129.184L127.616 188.912C127.637 187.931 127.435 187.067 127.008 186.32C126.581 185.573 125.995 184.987 125.248 184.56C124.523 184.133 123.68 183.92 122.72 183.92C121.739 183.92 120.875 184.133 120.128 184.56C119.403 184.987 118.827 185.584 118.4 186.352C117.995 187.099 117.792 187.984 117.792 189.008V189.648C117.792 190.672 118.027 191.579 118.496 192.368C118.965 193.157 119.627 193.765 120.48 194.192C121.333 194.619 122.315 194.832 123.424 194.832C124.384 194.832 125.248 194.683 126.016 194.384C126.784 194.085 127.467 193.616 128.064 192.976L130.208 195.44C129.44 196.336 128.469 197.029 127.296 197.52C126.144 197.989 124.821 198.224 123.328 198.224ZM148.27 184.912H159.406V188.336H148.27V184.912ZM148.59 194.512H161.23V198H144.43V175.6H160.782V179.088H148.59V194.512ZM175.855 198V194.544L175.631 193.808V187.76C175.631 186.587 175.279 185.68 174.575 185.04C173.871 184.379 172.804 184.048 171.375 184.048C170.415 184.048 169.466 184.197 168.527 184.496C167.61 184.795 166.831 185.211 166.191 185.744L164.623 182.832C165.54 182.128 166.628 181.605 167.887 181.264C169.167 180.901 170.49 180.72 171.855 180.72C174.33 180.72 176.239 181.317 177.583 182.512C178.948 183.685 179.631 185.509 179.631 187.984V198H175.855ZM170.479 198.224C169.199 198.224 168.079 198.011 167.119 197.584C166.159 197.136 165.412 196.528 164.879 195.76C164.367 194.971 164.111 194.085 164.111 193.104C164.111 192.144 164.335 191.28 164.783 190.512C165.252 189.744 166.01 189.136 167.055 188.688C168.1 188.24 169.487 188.016 171.215 188.016H176.175V190.672H171.503C170.138 190.672 169.22 190.896 168.751 191.344C168.282 191.771 168.047 192.304 168.047 192.944C168.047 193.669 168.335 194.245 168.911 194.672C169.487 195.099 170.287 195.312 171.311 195.312C172.292 195.312 173.167 195.088 173.935 194.64C174.724 194.192 175.29 193.531 175.631 192.656L176.303 195.056C175.919 196.059 175.226 196.837 174.223 197.392C173.242 197.947 171.994 198.224 170.479 198.224ZM184.765 198V180.912H188.573V185.616L188.125 184.24C188.637 183.088 189.437 182.213 190.525 181.616C191.634 181.019 193.01 180.72 194.653 180.72V184.528C194.482 184.485 194.322 184.464 194.173 184.464C194.023 184.443 193.874 184.432 193.725 184.432C192.21 184.432 191.005 184.88 190.109 185.776C189.213 186.651 188.765 187.963 188.765 189.712V198H184.765ZM205.103 198.224C203.226 198.224 201.775 197.744 200.751 196.784C199.727 195.803 199.215 194.363 199.215 192.464V177.136H203.215V192.368C203.215 193.179 203.418 193.808 203.823 194.256C204.25 194.704 204.836 194.928 205.583 194.928C206.479 194.928 207.226 194.693 207.823 194.224L208.943 197.072C208.474 197.456 207.898 197.744 207.215 197.936C206.532 198.128 205.828 198.224 205.103 198.224ZM196.399 184.24V181.04H207.791V184.24H196.399ZM221.929 180.72C223.295 180.72 224.511 180.987 225.577 181.52C226.665 182.053 227.519 182.875 228.137 183.984C228.756 185.072 229.065 186.48 229.065 188.208V198H225.065V188.72C225.065 187.205 224.703 186.075 223.977 185.328C223.273 184.581 222.281 184.208 221.001 184.208C220.063 184.208 219.231 184.4 218.505 184.784C217.78 185.168 217.215 185.744 216.809 186.512C216.425 187.259 216.233 188.208 216.233 189.36V198H212.233V174.256H216.233V185.52L215.369 184.112C215.967 183.024 216.831 182.192 217.961 181.616C219.113 181.019 220.436 180.72 221.929 180.72Z" fill="#55C9FD"/>
</svg>
