<svg width="1143" height="314" viewBox="0 0 1143 314" fill="none" xmlns="http://www.w3.org/2000/svg">
    <path d="M7.64575 60V41.12H0.22175V37.6H19.2298V41.12H11.8058V60H7.64575ZM31.6638 42.72C33.0291 42.72 34.2451 42.9867 35.3118 43.52C36.3998 44.0533 37.2531 44.8747 37.8718 45.984C38.4904 47.072 38.7998 48.48 38.7998 50.208V60H34.7998V50.72C34.7998 49.2053 34.4371 48.0747 33.7118 47.328C33.0078 46.5813 32.0158 46.208 30.7358 46.208C29.7971 46.208 28.9651 46.4 28.2398 46.784C27.5144 47.168 26.9491 47.744 26.5438 48.512C26.1598 49.2587 25.9678 50.208 25.9678 51.36V60H21.9678V36.256H25.9678V47.52L25.1038 46.112C25.7011 45.024 26.5651 44.192 27.6958 43.616C28.8478 43.0187 30.1704 42.72 31.6638 42.72ZM51.9373 60.224C50.0386 60.224 48.3746 59.8507 46.9453 59.104C45.5373 58.336 44.4386 57.2907 43.6493 55.968C42.8813 54.6453 42.4973 53.1413 42.4973 51.456C42.4973 49.7493 42.8706 48.2453 43.6173 46.944C44.3853 45.6213 45.4306 44.5867 46.7533 43.84C48.0973 43.0933 49.6226 42.72 51.3293 42.72C52.9933 42.72 54.4759 43.0827 55.7773 43.808C57.0786 44.5333 58.1026 45.5573 58.8493 46.88C59.5959 48.2027 59.9693 49.76 59.9693 51.552C59.9693 51.7227 59.9586 51.9147 59.9373 52.128C59.9373 52.3413 59.9266 52.544 59.9053 52.736H45.6653V50.08H57.7933L56.2253 50.912C56.2466 49.9307 56.0439 49.0667 55.6173 48.32C55.1906 47.5733 54.6039 46.9867 53.8573 46.56C53.1319 46.1333 52.2893 45.92 51.3293 45.92C50.3479 45.92 49.4839 46.1333 48.7373 46.56C48.0119 46.9867 47.4359 47.584 47.0093 48.352C46.6039 49.0987 46.4013 49.984 46.4013 51.008V51.648C46.4013 52.672 46.6359 53.5787 47.1053 54.368C47.5746 55.1573 48.2359 55.7653 49.0893 56.192C49.9426 56.6187 50.9239 56.832 52.0333 56.832C52.9933 56.832 53.8573 56.6827 54.6253 56.384C55.3933 56.0853 56.0759 55.616 56.6733 54.976L58.8173 57.44C58.0493 58.336 57.0786 59.0293 55.9053 59.52C54.7533 59.9893 53.4306 60.224 51.9373 60.224ZM79.9833 60.32C78.2339 60.32 76.5593 60.0747 74.9593 59.584C73.3593 59.072 72.0899 58.4213 71.1513 57.632L72.5913 54.4C73.4873 55.104 74.5966 55.6907 75.9193 56.16C77.2419 56.6293 78.5966 56.864 79.9833 56.864C81.1566 56.864 82.1059 56.736 82.8313 56.48C83.5566 56.224 84.0899 55.8827 84.4313 55.456C84.7726 55.008 84.9433 54.5067 84.9433 53.952C84.9433 53.2693 84.6979 52.7253 84.2073 52.32C83.7166 51.8933 83.0766 51.5627 82.2873 51.328C81.5193 51.072 80.6553 50.8373 79.6953 50.624C78.7566 50.4107 77.8073 50.1653 76.8473 49.888C75.9086 49.5893 75.0446 49.216 74.2552 48.768C73.4873 48.2987 72.8579 47.68 72.3673 46.912C71.8766 46.144 71.6313 45.1627 71.6313 43.968C71.6313 42.752 71.9513 41.6427 72.5913 40.64C73.2526 39.616 74.2446 38.8053 75.5673 38.208C76.9113 37.5893 78.6073 37.28 80.6553 37.28C81.9993 37.28 83.3326 37.4507 84.6553 37.792C85.9779 38.1333 87.1299 38.624 88.1112 39.264L86.7993 42.496C85.7966 41.8987 84.7619 41.4613 83.6953 41.184C82.6286 40.8853 81.6046 40.736 80.6233 40.736C79.4713 40.736 78.5326 40.8747 77.8073 41.152C77.1033 41.4293 76.5806 41.792 76.2393 42.24C75.9193 42.688 75.7593 43.2 75.7593 43.776C75.7593 44.4587 75.9939 45.0133 76.4633 45.44C76.9539 45.8453 77.5833 46.1653 78.3513 46.4C79.1406 46.6347 80.0153 46.8693 80.9753 47.104C81.9353 47.3173 82.8846 47.5627 83.8233 47.84C84.7833 48.1173 85.6473 48.48 86.4153 48.928C87.2046 49.376 87.8339 49.984 88.3033 50.752C88.7939 51.52 89.0393 52.4907 89.0393 53.664C89.0393 54.8587 88.7086 55.968 88.0473 56.992C87.4073 57.9947 86.4153 58.8053 85.0713 59.424C83.7273 60.0213 82.0313 60.32 79.9833 60.32ZM100.46 60.224C98.7109 60.224 97.1536 59.8507 95.7883 59.104C94.4229 58.336 93.3456 57.2907 92.5563 55.968C91.7669 54.6453 91.3723 53.1413 91.3723 51.456C91.3723 49.7493 91.7669 48.2453 92.5563 46.944C93.3456 45.6213 94.4229 44.5867 95.7883 43.84C97.1536 43.0933 98.7109 42.72 100.46 42.72C102.231 42.72 103.799 43.0933 105.164 43.84C106.551 44.5867 107.628 45.6107 108.396 46.912C109.186 48.2133 109.58 49.728 109.58 51.456C109.58 53.1413 109.186 54.6453 108.396 55.968C107.628 57.2907 106.551 58.336 105.164 59.104C103.799 59.8507 102.231 60.224 100.46 60.224ZM100.46 56.8C101.442 56.8 102.316 56.5867 103.084 56.16C103.852 55.7333 104.45 55.1147 104.876 54.304C105.324 53.4933 105.548 52.544 105.548 51.456C105.548 50.3467 105.324 49.3973 104.876 48.608C104.45 47.7973 103.852 47.1787 103.084 46.752C102.316 46.3253 101.452 46.112 100.492 46.112C99.5109 46.112 98.6363 46.3253 97.8683 46.752C97.1216 47.1787 96.5243 47.7973 96.0763 48.608C95.6283 49.3973 95.4043 50.3467 95.4043 51.456C95.4043 52.544 95.6283 53.4933 96.0763 54.304C96.5243 55.1147 97.1216 55.7333 97.8683 56.16C98.6363 56.5867 99.5003 56.8 100.46 56.8ZM113.405 60V36.256H117.405V60H113.405ZM133.183 60V56.544L132.959 55.808V49.76C132.959 48.5867 132.607 47.68 131.903 47.04C131.199 46.3787 130.133 46.048 128.703 46.048C127.743 46.048 126.794 46.1973 125.855 46.496C124.938 46.7947 124.159 47.2107 123.519 47.744L121.951 44.832C122.869 44.128 123.957 43.6053 125.215 43.264C126.495 42.9013 127.818 42.72 129.183 42.72C131.658 42.72 133.567 43.3173 134.911 44.512C136.277 45.6853 136.959 47.5093 136.959 49.984V60H133.183ZM127.807 60.224C126.527 60.224 125.407 60.0107 124.447 59.584C123.487 59.136 122.741 58.528 122.207 57.76C121.695 56.9707 121.439 56.0853 121.439 55.104C121.439 54.144 121.663 53.28 122.111 52.512C122.581 51.744 123.338 51.136 124.383 50.688C125.429 50.24 126.815 50.016 128.543 50.016H133.503V52.672H128.831C127.466 52.672 126.549 52.896 126.079 53.344C125.61 53.7707 125.375 54.304 125.375 54.944C125.375 55.6693 125.663 56.2453 126.239 56.672C126.815 57.0987 127.615 57.312 128.639 57.312C129.621 57.312 130.495 57.088 131.263 56.64C132.053 56.192 132.618 55.5307 132.959 54.656L133.631 57.056C133.247 58.0587 132.554 58.8373 131.551 59.392C130.57 59.9467 129.322 60.224 127.807 60.224ZM142.093 60V42.912H145.901V47.616L145.453 46.24C145.965 45.088 146.765 44.2133 147.853 43.616C148.962 43.0187 150.338 42.72 151.981 42.72V46.528C151.81 46.4853 151.65 46.464 151.501 46.464C151.351 46.4427 151.202 46.432 151.053 46.432C149.538 46.432 148.333 46.88 147.437 47.776C146.541 48.6507 146.093 49.9627 146.093 51.712V60H142.093ZM171.702 60.32C169.953 60.32 168.278 60.0747 166.678 59.584C165.078 59.072 163.809 58.4213 162.87 57.632L164.31 54.4C165.206 55.104 166.315 55.6907 167.638 56.16C168.961 56.6293 170.315 56.864 171.702 56.864C172.875 56.864 173.825 56.736 174.55 56.48C175.275 56.224 175.809 55.8827 176.15 55.456C176.491 55.008 176.662 54.5067 176.662 53.952C176.662 53.2693 176.417 52.7253 175.926 52.32C175.435 51.8933 174.795 51.5627 174.006 51.328C173.238 51.072 172.374 50.8373 171.414 50.624C170.475 50.4107 169.526 50.1653 168.566 49.888C167.627 49.5893 166.763 49.216 165.974 48.768C165.206 48.2987 164.577 47.68 164.086 46.912C163.595 46.144 163.35 45.1627 163.35 43.968C163.35 42.752 163.67 41.6427 164.31 40.64C164.971 39.616 165.963 38.8053 167.286 38.208C168.63 37.5893 170.326 37.28 172.374 37.28C173.718 37.28 175.051 37.4507 176.374 37.792C177.697 38.1333 178.849 38.624 179.83 39.264L178.518 42.496C177.515 41.8987 176.481 41.4613 175.414 41.184C174.347 40.8853 173.323 40.736 172.342 40.736C171.19 40.736 170.251 40.8747 169.526 41.152C168.822 41.4293 168.299 41.792 167.958 42.24C167.638 42.688 167.478 43.2 167.478 43.776C167.478 44.4587 167.713 45.0133 168.182 45.44C168.673 45.8453 169.302 46.1653 170.07 46.4C170.859 46.6347 171.734 46.8693 172.694 47.104C173.654 47.3173 174.603 47.5627 175.542 47.84C176.502 48.1173 177.366 48.48 178.134 48.928C178.923 49.376 179.553 49.984 180.022 50.752C180.513 51.52 180.758 52.4907 180.758 53.664C180.758 54.8587 180.427 55.968 179.766 56.992C179.126 57.9947 178.134 58.8053 176.79 59.424C175.446 60.0213 173.75 60.32 171.702 60.32ZM185.595 66.432C184.763 66.432 183.931 66.2933 183.099 66.016C182.267 65.7387 181.573 65.3547 181.018 64.864L182.618 61.92C183.024 62.2827 183.483 62.5707 183.995 62.784C184.507 62.9973 185.029 63.104 185.562 63.104C186.288 63.104 186.875 62.9227 187.323 62.56C187.771 62.1973 188.187 61.5893 188.571 60.736L189.562 58.496L189.883 58.016L196.347 42.912H200.187L192.187 61.376C191.653 62.656 191.056 63.6693 190.395 64.416C189.755 65.1627 189.029 65.6853 188.219 65.984C187.429 66.2827 186.555 66.432 185.595 66.432ZM189.115 60.608L181.402 42.912H185.562L191.835 57.664L189.115 60.608ZM207.748 60.224C206.318 60.224 204.942 60.0427 203.62 59.68C202.318 59.296 201.284 58.8373 200.516 58.304L202.052 55.264C202.82 55.7547 203.737 56.16 204.804 56.48C205.87 56.8 206.937 56.96 208.004 56.96C209.262 56.96 210.169 56.7893 210.724 56.448C211.3 56.1067 211.588 55.648 211.588 55.072C211.588 54.6027 211.396 54.2507 211.012 54.016C210.628 53.76 210.126 53.568 209.508 53.44C208.889 53.312 208.196 53.1947 207.428 53.088C206.681 52.9813 205.924 52.8427 205.156 52.672C204.409 52.48 203.726 52.2133 203.108 51.872C202.489 51.5093 201.988 51.0293 201.604 50.432C201.22 49.8347 201.028 49.0453 201.028 48.064C201.028 46.976 201.337 46.0373 201.956 45.248C202.574 44.4373 203.438 43.8187 204.548 43.392C205.678 42.944 207.012 42.72 208.548 42.72C209.7 42.72 210.862 42.848 212.036 43.104C213.209 43.36 214.18 43.7227 214.948 44.192L213.412 47.232C212.601 46.7413 211.78 46.4107 210.948 46.24C210.137 46.048 209.326 45.952 208.516 45.952C207.3 45.952 206.393 46.1333 205.796 46.496C205.22 46.8587 204.932 47.3173 204.932 47.872C204.932 48.384 205.124 48.768 205.508 49.024C205.892 49.28 206.393 49.4827 207.012 49.632C207.63 49.7813 208.313 49.9093 209.06 50.016C209.828 50.1013 210.585 50.24 211.332 50.432C212.078 50.624 212.761 50.8907 213.38 51.232C214.02 51.552 214.532 52.0107 214.916 52.608C215.3 53.2053 215.492 53.984 215.492 54.944C215.492 56.0107 215.172 56.9387 214.532 57.728C213.913 58.5173 213.028 59.136 211.876 59.584C210.724 60.0107 209.348 60.224 207.748 60.224ZM225.369 60.224C223.491 60.224 222.041 59.744 221.016 58.784C219.993 57.8027 219.481 56.3627 219.481 54.464V39.136H223.481V54.368C223.481 55.1787 223.683 55.808 224.089 56.256C224.515 56.704 225.102 56.928 225.849 56.928C226.745 56.928 227.491 56.6933 228.089 56.224L229.209 59.072C228.739 59.456 228.163 59.744 227.481 59.936C226.798 60.128 226.094 60.224 225.369 60.224ZM216.665 46.24V43.04H228.057V46.24H216.665ZM239.969 60.224C238.07 60.224 236.406 59.8507 234.977 59.104C233.569 58.336 232.47 57.2907 231.681 55.968C230.913 54.6453 230.529 53.1413 230.529 51.456C230.529 49.7493 230.902 48.2453 231.649 46.944C232.417 45.6213 233.462 44.5867 234.785 43.84C236.129 43.0933 237.654 42.72 239.361 42.72C241.025 42.72 242.507 43.0827 243.809 43.808C245.11 44.5333 246.134 45.5573 246.881 46.88C247.627 48.2027 248.001 49.76 248.001 51.552C248.001 51.7227 247.99 51.9147 247.969 52.128C247.969 52.3413 247.958 52.544 247.937 52.736H233.697V50.08H245.825L244.257 50.912C244.278 49.9307 244.075 49.0667 243.649 48.32C243.222 47.5733 242.635 46.9867 241.889 46.56C241.163 46.1333 240.321 45.92 239.361 45.92C238.379 45.92 237.515 46.1333 236.769 46.56C236.043 46.9867 235.467 47.584 235.041 48.352C234.635 49.0987 234.433 49.984 234.433 51.008V51.648C234.433 52.672 234.667 53.5787 235.137 54.368C235.606 55.1573 236.267 55.7653 237.121 56.192C237.974 56.6187 238.955 56.832 240.065 56.832C241.025 56.832 241.889 56.6827 242.657 56.384C243.425 56.0853 244.107 55.616 244.705 54.976L246.849 57.44C246.081 58.336 245.11 59.0293 243.937 59.52C242.785 59.9893 241.462 60.224 239.969 60.224ZM273.411 42.72C274.776 42.72 275.981 42.9867 277.027 43.52C278.093 44.0533 278.925 44.8747 279.523 45.984C280.12 47.072 280.419 48.48 280.419 50.208V60H276.419V50.72C276.419 49.2053 276.088 48.0747 275.427 47.328C274.765 46.5813 273.816 46.208 272.579 46.208C271.704 46.208 270.925 46.4 270.243 46.784C269.581 47.168 269.059 47.7333 268.675 48.48C268.312 49.2267 268.131 50.176 268.131 51.328V60H264.131V50.72C264.131 49.2053 263.8 48.0747 263.139 47.328C262.477 46.5813 261.528 46.208 260.291 46.208C259.416 46.208 258.637 46.4 257.955 46.784C257.293 47.168 256.771 47.7333 256.387 48.48C256.024 49.2267 255.843 50.176 255.843 51.328V60H251.843V42.912H255.651V47.456L254.979 46.112C255.555 45.0027 256.387 44.16 257.475 43.584C258.584 43.008 259.843 42.72 261.251 42.72C262.851 42.72 264.237 43.1147 265.411 43.904C266.605 44.6933 267.395 45.888 267.779 47.488L266.211 46.944C266.765 45.664 267.683 44.64 268.963 43.872C270.243 43.104 271.725 42.72 273.411 42.72Z" fill="#55C9FD"/>
    <path d="M392.941 156.904H404.109V160.424H392.941V156.904ZM393.293 169H389.133V146.6H405.485V150.088H393.293V169ZM408.812 169V151.912H412.62V156.616L412.172 155.24C412.684 154.088 413.484 153.213 414.572 152.616C415.681 152.019 417.057 151.72 418.7 151.72V155.528C418.529 155.485 418.369 155.464 418.22 155.464C418.07 155.443 417.921 155.432 417.772 155.432C416.257 155.432 415.052 155.88 414.156 156.776C413.26 157.651 412.812 158.963 412.812 160.712V169H408.812ZM422.093 169V151.912H426.093V169H422.093ZM424.109 149.096C423.362 149.096 422.743 148.861 422.253 148.392C421.783 147.923 421.549 147.357 421.549 146.696C421.549 146.013 421.783 145.448 422.253 145C422.743 144.531 423.362 144.296 424.109 144.296C424.855 144.296 425.463 144.52 425.933 144.968C426.423 145.395 426.669 145.939 426.669 146.6C426.669 147.304 426.434 147.901 425.965 148.392C425.495 148.861 424.877 149.096 424.109 149.096ZM439.183 169.224C437.391 169.224 435.791 168.851 434.383 168.104C432.996 167.336 431.908 166.291 431.119 164.968C430.329 163.645 429.935 162.141 429.935 160.456C429.935 158.749 430.329 157.245 431.119 155.944C431.908 154.621 432.996 153.587 434.383 152.84C435.791 152.093 437.391 151.72 439.183 151.72C440.847 151.72 442.308 152.061 443.567 152.744C444.847 153.405 445.817 154.387 446.479 155.688L443.407 157.48C442.895 156.669 442.265 156.072 441.519 155.688C440.793 155.304 440.004 155.112 439.151 155.112C438.169 155.112 437.284 155.325 436.495 155.752C435.705 156.179 435.087 156.797 434.639 157.608C434.191 158.397 433.967 159.347 433.967 160.456C433.967 161.565 434.191 162.525 434.639 163.336C435.087 164.125 435.705 164.733 436.495 165.16C437.284 165.587 438.169 165.8 439.151 165.8C440.004 165.8 440.793 165.608 441.519 165.224C442.265 164.84 442.895 164.243 443.407 163.432L446.479 165.224C445.817 166.504 444.847 167.496 443.567 168.2C442.308 168.883 440.847 169.224 439.183 169.224ZM456.587 169.224C454.71 169.224 453.259 168.744 452.235 167.784C451.211 166.803 450.699 165.363 450.699 163.464V148.136H454.699V163.368C454.699 164.179 454.902 164.808 455.307 165.256C455.734 165.704 456.321 165.928 457.067 165.928C457.963 165.928 458.71 165.693 459.307 165.224L460.427 168.072C459.958 168.456 459.382 168.744 458.699 168.936C458.017 169.128 457.313 169.224 456.587 169.224ZM447.883 155.24V152.04H459.275V155.24H447.883ZM463.718 169V151.912H467.718V169H463.718ZM465.734 149.096C464.987 149.096 464.368 148.861 463.878 148.392C463.408 147.923 463.174 147.357 463.174 146.696C463.174 146.013 463.408 145.448 463.878 145C464.368 144.531 464.987 144.296 465.734 144.296C466.48 144.296 467.088 144.52 467.558 144.968C468.048 145.395 468.294 145.939 468.294 146.6C468.294 147.304 468.059 147.901 467.59 148.392C467.12 148.861 466.502 149.096 465.734 149.096ZM480.648 169.224C478.898 169.224 477.341 168.851 475.976 168.104C474.61 167.336 473.533 166.291 472.744 164.968C471.954 163.645 471.56 162.141 471.56 160.456C471.56 158.749 471.954 157.245 472.744 155.944C473.533 154.621 474.61 153.587 475.976 152.84C477.341 152.093 478.898 151.72 480.648 151.72C482.418 151.72 483.986 152.093 485.352 152.84C486.738 153.587 487.816 154.611 488.584 155.912C489.373 157.213 489.768 158.728 489.768 160.456C489.768 162.141 489.373 163.645 488.584 164.968C487.816 166.291 486.738 167.336 485.352 168.104C483.986 168.851 482.418 169.224 480.648 169.224ZM480.648 165.8C481.629 165.8 482.504 165.587 483.272 165.16C484.04 164.733 484.637 164.115 485.064 163.304C485.512 162.493 485.736 161.544 485.736 160.456C485.736 159.347 485.512 158.397 485.064 157.608C484.637 156.797 484.04 156.179 483.272 155.752C482.504 155.325 481.64 155.112 480.68 155.112C479.698 155.112 478.824 155.325 478.056 155.752C477.309 156.179 476.712 156.797 476.264 157.608C475.816 158.397 475.592 159.347 475.592 160.456C475.592 161.544 475.816 162.493 476.264 163.304C476.712 164.115 477.309 164.733 478.056 165.16C478.824 165.587 479.688 165.8 480.648 165.8ZM503.289 151.72C504.654 151.72 505.87 151.987 506.937 152.52C508.025 153.053 508.878 153.875 509.497 154.984C510.115 156.072 510.425 157.48 510.425 159.208V169H506.425V159.72C506.425 158.205 506.062 157.075 505.337 156.328C504.633 155.581 503.641 155.208 502.361 155.208C501.422 155.208 500.59 155.4 499.865 155.784C499.139 156.168 498.574 156.744 498.169 157.512C497.785 158.259 497.593 159.208 497.593 160.36V169H493.593V151.912H497.401V156.52L496.729 155.112C497.326 154.024 498.19 153.192 499.321 152.616C500.473 152.019 501.795 151.72 503.289 151.72Z" fill="#55C9FD"/>
    <path d="M76.223 216.912H87.359V220.336H76.223V216.912ZM76.543 226.512H89.183V230H72.383V207.6H88.735V211.088H76.543V226.512ZM97.7618 230L90.4337 212.912H94.5938L100.898 227.984H98.8498L105.378 212.912H109.218L101.89 230H97.7618ZM118.929 230.224C117.18 230.224 115.622 229.851 114.257 229.104C112.892 228.336 111.814 227.291 111.025 225.968C110.236 224.645 109.841 223.141 109.841 221.456C109.841 219.749 110.236 218.245 111.025 216.944C111.814 215.621 112.892 214.587 114.257 213.84C115.622 213.093 117.18 212.72 118.929 212.72C120.7 212.72 122.268 213.093 123.633 213.84C125.02 214.587 126.097 215.611 126.865 216.912C127.654 218.213 128.049 219.728 128.049 221.456C128.049 223.141 127.654 224.645 126.865 225.968C126.097 227.291 125.02 228.336 123.633 229.104C122.268 229.851 120.7 230.224 118.929 230.224ZM118.929 226.8C119.91 226.8 120.785 226.587 121.553 226.16C122.321 225.733 122.918 225.115 123.345 224.304C123.793 223.493 124.017 222.544 124.017 221.456C124.017 220.347 123.793 219.397 123.345 218.608C122.918 217.797 122.321 217.179 121.553 216.752C120.785 216.325 119.921 216.112 118.961 216.112C117.98 216.112 117.105 216.325 116.337 216.752C115.59 217.179 114.993 217.797 114.545 218.608C114.097 219.397 113.873 220.347 113.873 221.456C113.873 222.544 114.097 223.493 114.545 224.304C114.993 225.115 115.59 225.733 116.337 226.16C117.105 226.587 117.969 226.8 118.929 226.8ZM131.874 230V206.256H135.874V230H131.874ZM148.356 230.224C146.905 230.224 145.625 229.957 144.516 229.424C143.407 228.869 142.543 228.037 141.924 226.928C141.305 225.797 140.996 224.379 140.996 222.672V212.912H144.996V222.128C144.996 223.664 145.337 224.816 146.02 225.584C146.724 226.331 147.716 226.704 148.996 226.704C149.935 226.704 150.745 226.512 151.428 226.128C152.132 225.744 152.676 225.168 153.06 224.4C153.465 223.632 153.668 222.683 153.668 221.552V212.912H157.668V230H153.86V225.392L154.532 226.8C153.956 227.909 153.113 228.763 152.004 229.36C150.895 229.936 149.679 230.224 148.356 230.224ZM169.337 230.224C167.46 230.224 166.009 229.744 164.985 228.784C163.961 227.803 163.449 226.363 163.449 224.464V209.136H167.449V224.368C167.449 225.179 167.652 225.808 168.057 226.256C168.484 226.704 169.071 226.928 169.817 226.928C170.713 226.928 171.46 226.693 172.057 226.224L173.177 229.072C172.708 229.456 172.132 229.744 171.449 229.936C170.767 230.128 170.063 230.224 169.337 230.224ZM160.633 216.24V213.04H172.025V216.24H160.633ZM176.468 230V212.912H180.468V230H176.468ZM178.484 210.096C177.737 210.096 177.118 209.861 176.628 209.392C176.158 208.923 175.924 208.357 175.924 207.696C175.924 207.013 176.158 206.448 176.628 206C177.118 205.531 177.737 205.296 178.484 205.296C179.23 205.296 179.838 205.52 180.308 205.968C180.798 206.395 181.044 206.939 181.044 207.6C181.044 208.304 180.809 208.901 180.34 209.392C179.87 209.861 179.252 210.096 178.484 210.096ZM193.398 230.224C191.648 230.224 190.091 229.851 188.726 229.104C187.36 228.336 186.283 227.291 185.494 225.968C184.704 224.645 184.31 223.141 184.31 221.456C184.31 219.749 184.704 218.245 185.494 216.944C186.283 215.621 187.36 214.587 188.726 213.84C190.091 213.093 191.648 212.72 193.398 212.72C195.168 212.72 196.736 213.093 198.102 213.84C199.488 214.587 200.566 215.611 201.334 216.912C202.123 218.213 202.518 219.728 202.518 221.456C202.518 223.141 202.123 224.645 201.334 225.968C200.566 227.291 199.488 228.336 198.102 229.104C196.736 229.851 195.168 230.224 193.398 230.224ZM193.398 226.8C194.379 226.8 195.254 226.587 196.022 226.16C196.79 225.733 197.387 225.115 197.814 224.304C198.262 223.493 198.486 222.544 198.486 221.456C198.486 220.347 198.262 219.397 197.814 218.608C197.387 217.797 196.79 217.179 196.022 216.752C195.254 216.325 194.39 216.112 193.43 216.112C192.448 216.112 191.574 216.325 190.806 216.752C190.059 217.179 189.462 217.797 189.014 218.608C188.566 219.397 188.342 220.347 188.342 221.456C188.342 222.544 188.566 223.493 189.014 224.304C189.462 225.115 190.059 225.733 190.806 226.16C191.574 226.587 192.438 226.8 193.398 226.8ZM216.039 212.72C217.404 212.72 218.62 212.987 219.687 213.52C220.775 214.053 221.628 214.875 222.247 215.984C222.865 217.072 223.175 218.48 223.175 220.208V230H219.175V220.72C219.175 219.205 218.812 218.075 218.087 217.328C217.383 216.581 216.391 216.208 215.111 216.208C214.172 216.208 213.34 216.4 212.615 216.784C211.889 217.168 211.324 217.744 210.919 218.512C210.535 219.259 210.343 220.208 210.343 221.36V230H206.343V212.912H210.151V217.52L209.479 216.112C210.076 215.024 210.94 214.192 212.071 213.616C213.223 213.019 214.545 212.72 216.039 212.72Z" fill="#55C9FD"/>
    <path d="M595.196 259V236.6H604.412C606.396 236.6 608.092 236.92 609.5 237.56C610.929 238.2 612.028 239.117 612.796 240.312C613.564 241.507 613.948 242.925 613.948 244.568C613.948 246.211 613.564 247.629 612.796 248.824C612.028 249.997 610.929 250.904 609.5 251.544C608.092 252.163 606.396 252.472 604.412 252.472H597.5L599.356 250.584V259H595.196ZM609.852 259L604.188 250.872H608.635L614.332 259H609.852ZM599.356 251.032L597.5 249.048H604.22C606.054 249.048 607.43 248.653 608.347 247.864C609.286 247.075 609.756 245.976 609.756 244.568C609.756 243.139 609.286 242.04 608.347 241.272C607.43 240.504 606.054 240.12 604.22 240.12H597.5L599.356 238.072V251.032ZM625.898 259.224C624.148 259.224 622.591 258.851 621.226 258.104C619.86 257.336 618.783 256.291 617.994 254.968C617.204 253.645 616.81 252.141 616.81 250.456C616.81 248.749 617.204 247.245 617.994 245.944C618.783 244.621 619.86 243.587 621.226 242.84C622.591 242.093 624.148 241.72 625.898 241.72C627.668 241.72 629.236 242.093 630.602 242.84C631.988 243.587 633.066 244.611 633.834 245.912C634.623 247.213 635.018 248.728 635.018 250.456C635.018 252.141 634.623 253.645 633.834 254.968C633.066 256.291 631.988 257.336 630.602 258.104C629.236 258.851 627.668 259.224 625.898 259.224ZM625.898 255.8C626.879 255.8 627.754 255.587 628.522 255.16C629.29 254.733 629.887 254.115 630.314 253.304C630.762 252.493 630.986 251.544 630.986 250.456C630.986 249.347 630.762 248.397 630.314 247.608C629.887 246.797 629.29 246.179 628.522 245.752C627.754 245.325 626.89 245.112 625.93 245.112C624.948 245.112 624.074 245.325 623.306 245.752C622.559 246.179 621.962 246.797 621.514 247.608C621.066 248.397 620.842 249.347 620.842 250.456C620.842 251.544 621.066 252.493 621.514 253.304C621.962 254.115 622.559 254.733 623.306 255.16C624.074 255.587 624.938 255.8 625.898 255.8ZM648.315 259.224C646.864 259.224 645.573 258.904 644.443 258.264C643.312 257.624 642.416 256.664 641.755 255.384C641.115 254.083 640.795 252.44 640.795 250.456C640.795 248.451 641.125 246.808 641.787 245.528C642.469 244.248 643.376 243.299 644.507 242.68C645.659 242.04 646.928 241.72 648.315 241.72C650 241.72 651.483 242.083 652.763 242.808C654.064 243.533 655.088 244.547 655.835 245.848C656.603 247.149 656.987 248.685 656.987 250.456C656.987 252.227 656.603 253.763 655.835 255.064C655.088 256.365 654.064 257.389 652.763 258.136C651.483 258.861 650 259.224 648.315 259.224ZM638.843 259V235.256H642.843V245.88L642.523 250.424L642.651 254.968V259H638.843ZM647.867 255.8C648.827 255.8 649.68 255.587 650.427 255.16C651.195 254.733 651.803 254.115 652.251 253.304C652.699 252.493 652.923 251.544 652.923 250.456C652.923 249.347 652.699 248.397 652.251 247.608C651.803 246.797 651.195 246.179 650.427 245.752C649.68 245.325 648.827 245.112 647.867 245.112C646.907 245.112 646.043 245.325 645.275 245.752C644.507 246.179 643.899 246.797 643.451 247.608C643.003 248.397 642.779 249.347 642.779 250.456C642.779 251.544 643.003 252.493 643.451 253.304C643.899 254.115 644.507 254.733 645.275 255.16C646.043 255.587 646.907 255.8 647.867 255.8ZM668.46 259.224C666.711 259.224 665.154 258.851 663.788 258.104C662.423 257.336 661.346 256.291 660.556 254.968C659.767 253.645 659.372 252.141 659.372 250.456C659.372 248.749 659.767 247.245 660.556 245.944C661.346 244.621 662.423 243.587 663.788 242.84C665.154 242.093 666.711 241.72 668.46 241.72C670.231 241.72 671.799 242.093 673.164 242.84C674.551 243.587 675.628 244.611 676.396 245.912C677.186 247.213 677.58 248.728 677.58 250.456C677.58 252.141 677.186 253.645 676.396 254.968C675.628 256.291 674.551 257.336 673.164 258.104C671.799 258.851 670.231 259.224 668.46 259.224ZM668.46 255.8C669.442 255.8 670.316 255.587 671.084 255.16C671.852 254.733 672.45 254.115 672.876 253.304C673.324 252.493 673.548 251.544 673.548 250.456C673.548 249.347 673.324 248.397 672.876 247.608C672.45 246.797 671.852 246.179 671.084 245.752C670.316 245.325 669.452 245.112 668.492 245.112C667.511 245.112 666.636 245.325 665.868 245.752C665.122 246.179 664.524 246.797 664.076 247.608C663.628 248.397 663.404 249.347 663.404 250.456C663.404 251.544 663.628 252.493 664.076 253.304C664.524 254.115 665.122 254.733 665.868 255.16C666.636 255.587 667.5 255.8 668.46 255.8ZM687.837 259.224C685.96 259.224 684.509 258.744 683.485 257.784C682.461 256.803 681.949 255.363 681.949 253.464V238.136H685.949V253.368C685.949 254.179 686.152 254.808 686.557 255.256C686.984 255.704 687.571 255.928 688.317 255.928C689.213 255.928 689.96 255.693 690.557 255.224L691.677 258.072C691.208 258.456 690.632 258.744 689.949 258.936C689.267 259.128 688.563 259.224 687.837 259.224ZM679.133 245.24V242.04H690.525V245.24H679.133ZM700.248 259.224C698.818 259.224 697.442 259.043 696.12 258.68C694.818 258.296 693.784 257.837 693.016 257.304L694.552 254.264C695.32 254.755 696.237 255.16 697.304 255.48C698.37 255.8 699.437 255.96 700.504 255.96C701.762 255.96 702.669 255.789 703.224 255.448C703.8 255.107 704.088 254.648 704.088 254.072C704.088 253.603 703.896 253.251 703.512 253.016C703.128 252.76 702.626 252.568 702.008 252.44C701.389 252.312 700.696 252.195 699.928 252.088C699.181 251.981 698.424 251.843 697.656 251.672C696.909 251.48 696.226 251.213 695.608 250.872C694.989 250.509 694.488 250.029 694.104 249.432C693.72 248.835 693.528 248.045 693.528 247.064C693.528 245.976 693.837 245.037 694.456 244.248C695.074 243.437 695.938 242.819 697.048 242.392C698.178 241.944 699.512 241.72 701.048 241.72C702.2 241.72 703.362 241.848 704.536 242.104C705.709 242.36 706.68 242.723 707.448 243.192L705.912 246.232C705.101 245.741 704.28 245.411 703.448 245.24C702.637 245.048 701.826 244.952 701.016 244.952C699.8 244.952 698.893 245.133 698.296 245.496C697.72 245.859 697.432 246.317 697.432 246.872C697.432 247.384 697.624 247.768 698.008 248.024C698.392 248.28 698.893 248.483 699.512 248.632C700.13 248.781 700.813 248.909 701.56 249.016C702.328 249.101 703.085 249.24 703.832 249.432C704.578 249.624 705.261 249.891 705.88 250.232C706.52 250.552 707.032 251.011 707.416 251.608C707.8 252.205 707.992 252.984 707.992 253.944C707.992 255.011 707.672 255.939 707.032 256.728C706.413 257.517 705.528 258.136 704.376 258.584C703.224 259.011 701.848 259.224 700.248 259.224Z" fill="#55C9FD"/>
    <path d="M868.421 139.32C866.671 139.32 864.997 139.075 863.397 138.584C861.797 138.072 860.527 137.421 859.589 136.632L861.029 133.4C861.925 134.104 863.034 134.691 864.357 135.16C865.679 135.629 867.034 135.864 868.421 135.864C869.594 135.864 870.543 135.736 871.269 135.48C871.994 135.224 872.527 134.883 872.869 134.456C873.21 134.008 873.381 133.507 873.381 132.952C873.381 132.269 873.135 131.725 872.645 131.32C872.154 130.893 871.514 130.563 870.725 130.328C869.957 130.072 869.093 129.837 868.133 129.624C867.194 129.411 866.245 129.165 865.285 128.888C864.346 128.589 863.482 128.216 862.693 127.768C861.925 127.299 861.295 126.68 860.805 125.912C860.314 125.144 860.069 124.163 860.069 122.968C860.069 121.752 860.389 120.643 861.029 119.64C861.69 118.616 862.682 117.805 864.005 117.208C865.349 116.589 867.045 116.28 869.093 116.28C870.437 116.28 871.77 116.451 873.093 116.792C874.415 117.133 875.567 117.624 876.549 118.264L875.237 121.496C874.234 120.899 873.199 120.461 872.133 120.184C871.066 119.885 870.042 119.736 869.061 119.736C867.909 119.736 866.97 119.875 866.245 120.152C865.541 120.429 865.018 120.792 864.677 121.24C864.357 121.688 864.197 122.2 864.197 122.776C864.197 123.459 864.431 124.013 864.901 124.44C865.391 124.845 866.021 125.165 866.789 125.4C867.578 125.635 868.453 125.869 869.413 126.104C870.373 126.317 871.322 126.563 872.261 126.84C873.221 127.117 874.085 127.48 874.853 127.928C875.642 128.376 876.271 128.984 876.741 129.752C877.231 130.52 877.477 131.491 877.477 132.664C877.477 133.859 877.146 134.968 876.485 135.992C875.845 136.995 874.853 137.805 873.509 138.424C872.165 139.021 870.469 139.32 868.421 139.32ZM881.218 139V121.912H885.218V139H881.218ZM883.234 119.096C882.487 119.096 881.868 118.861 881.378 118.392C880.908 117.923 880.674 117.357 880.674 116.696C880.674 116.013 880.908 115.448 881.378 115C881.868 114.531 882.487 114.296 883.234 114.296C883.98 114.296 884.588 114.52 885.058 114.968C885.548 115.395 885.794 115.939 885.794 116.6C885.794 117.304 885.559 117.901 885.09 118.392C884.62 118.861 884.002 119.096 883.234 119.096ZM912.036 121.72C913.401 121.72 914.606 121.987 915.652 122.52C916.718 123.053 917.55 123.875 918.148 124.984C918.745 126.072 919.044 127.48 919.044 129.208V139H915.044V129.72C915.044 128.205 914.713 127.075 914.052 126.328C913.39 125.581 912.441 125.208 911.204 125.208C910.329 125.208 909.55 125.4 908.868 125.784C908.206 126.168 907.684 126.733 907.3 127.48C906.937 128.227 906.756 129.176 906.756 130.328V139H902.756V129.72C902.756 128.205 902.425 127.075 901.764 126.328C901.102 125.581 900.153 125.208 898.916 125.208C898.041 125.208 897.262 125.4 896.58 125.784C895.918 126.168 895.396 126.733 895.012 127.48C894.649 128.227 894.468 129.176 894.468 130.328V139H890.468V121.912H894.276V126.456L893.604 125.112C894.18 124.003 895.012 123.16 896.1 122.584C897.209 122.008 898.468 121.72 899.876 121.72C901.476 121.72 902.862 122.115 904.036 122.904C905.23 123.693 906.02 124.888 906.404 126.488L904.836 125.944C905.39 124.664 906.308 123.64 907.588 122.872C908.868 122.104 910.35 121.72 912.036 121.72ZM933.627 139.224C932.241 139.224 930.971 138.904 929.819 138.264C928.689 137.624 927.782 136.664 927.099 135.384C926.438 134.083 926.107 132.44 926.107 130.456C926.107 128.451 926.427 126.808 927.067 125.528C927.729 124.248 928.625 123.299 929.755 122.68C930.886 122.04 932.177 121.72 933.627 121.72C935.313 121.72 936.795 122.083 938.075 122.808C939.377 123.533 940.401 124.547 941.147 125.848C941.915 127.149 942.299 128.685 942.299 130.456C942.299 132.227 941.915 133.773 941.147 135.096C940.401 136.397 939.377 137.411 938.075 138.136C936.795 138.861 935.313 139.224 933.627 139.224ZM924.155 145.208V121.912H927.963V125.944L927.835 130.488L928.155 135.032V145.208H924.155ZM933.179 135.8C934.139 135.8 934.993 135.587 935.739 135.16C936.507 134.733 937.115 134.115 937.563 133.304C938.011 132.493 938.235 131.544 938.235 130.456C938.235 129.347 938.011 128.397 937.563 127.608C937.115 126.797 936.507 126.179 935.739 125.752C934.993 125.325 934.139 125.112 933.179 125.112C932.219 125.112 931.355 125.325 930.587 125.752C929.819 126.179 929.211 126.797 928.763 127.608C928.315 128.397 928.091 129.347 928.091 130.456C928.091 131.544 928.315 132.493 928.763 133.304C929.211 134.115 929.819 134.733 930.587 135.16C931.355 135.587 932.219 135.8 933.179 135.8ZM946.093 139V115.256H950.093V139H946.093ZM963.375 139.224C961.476 139.224 959.812 138.851 958.383 138.104C956.975 137.336 955.876 136.291 955.087 134.968C954.319 133.645 953.935 132.141 953.935 130.456C953.935 128.749 954.308 127.245 955.055 125.944C955.823 124.621 956.868 123.587 958.191 122.84C959.535 122.093 961.06 121.72 962.767 121.72C964.431 121.72 965.913 122.083 967.215 122.808C968.516 123.533 969.54 124.557 970.287 125.88C971.033 127.203 971.407 128.76 971.407 130.552C971.407 130.723 971.396 130.915 971.375 131.128C971.375 131.341 971.364 131.544 971.343 131.736H957.103V129.08H969.231L967.663 129.912C967.684 128.931 967.481 128.067 967.055 127.32C966.628 126.573 966.041 125.987 965.295 125.56C964.569 125.133 963.727 124.92 962.767 124.92C961.785 124.92 960.921 125.133 960.175 125.56C959.449 125.987 958.873 126.584 958.447 127.352C958.041 128.099 957.839 128.984 957.839 130.008V130.648C957.839 131.672 958.073 132.579 958.543 133.368C959.012 134.157 959.673 134.765 960.527 135.192C961.38 135.619 962.361 135.832 963.471 135.832C964.431 135.832 965.295 135.683 966.063 135.384C966.831 135.085 967.513 134.616 968.111 133.976L970.255 136.44C969.487 137.336 968.516 138.029 967.343 138.52C966.191 138.989 964.868 139.224 963.375 139.224ZM1005.66 121.72C1007.03 121.72 1008.23 121.987 1009.28 122.52C1010.34 123.053 1011.18 123.875 1011.77 124.984C1012.37 126.072 1012.67 127.48 1012.67 129.208V139H1008.67V129.72C1008.67 128.205 1008.34 127.075 1007.68 126.328C1007.02 125.581 1006.07 125.208 1004.83 125.208C1003.95 125.208 1003.18 125.4 1002.49 125.784C1001.83 126.168 1001.31 126.733 1000.92 127.48C1000.56 128.227 1000.38 129.176 1000.38 130.328V139H996.381V129.72C996.381 128.205 996.05 127.075 995.389 126.328C994.727 125.581 993.778 125.208 992.541 125.208C991.666 125.208 990.887 125.4 990.205 125.784C989.543 126.168 989.021 126.733 988.637 127.48C988.274 128.227 988.093 129.176 988.093 130.328V139H984.093V121.912H987.901V126.456L987.229 125.112C987.805 124.003 988.637 123.16 989.725 122.584C990.834 122.008 992.093 121.72 993.501 121.72C995.101 121.72 996.487 122.115 997.661 122.904C998.855 123.693 999.645 124.888 1000.03 126.488L998.461 125.944C999.015 124.664 999.933 123.64 1001.21 122.872C1002.49 122.104 1003.98 121.72 1005.66 121.72ZM1028.31 139V135.544L1028.08 134.808V128.76C1028.08 127.587 1027.73 126.68 1027.03 126.04C1026.32 125.379 1025.26 125.048 1023.83 125.048C1022.87 125.048 1021.92 125.197 1020.98 125.496C1020.06 125.795 1019.28 126.211 1018.64 126.744L1017.08 123.832C1017.99 123.128 1019.08 122.605 1020.34 122.264C1021.62 121.901 1022.94 121.72 1024.31 121.72C1026.78 121.72 1028.69 122.317 1030.04 123.512C1031.4 124.685 1032.08 126.509 1032.08 128.984V139H1028.31ZM1022.93 139.224C1021.65 139.224 1020.53 139.011 1019.57 138.584C1018.61 138.136 1017.87 137.528 1017.33 136.76C1016.82 135.971 1016.56 135.085 1016.56 134.104C1016.56 133.144 1016.79 132.28 1017.24 131.512C1017.71 130.744 1018.46 130.136 1019.51 129.688C1020.55 129.24 1021.94 129.016 1023.67 129.016H1028.63V131.672H1023.96C1022.59 131.672 1021.67 131.896 1021.2 132.344C1020.73 132.771 1020.5 133.304 1020.5 133.944C1020.5 134.669 1020.79 135.245 1021.36 135.672C1021.94 136.099 1022.74 136.312 1023.76 136.312C1024.75 136.312 1025.62 136.088 1026.39 135.64C1027.18 135.192 1027.74 134.531 1028.08 133.656L1028.76 136.056C1028.37 137.059 1027.68 137.837 1026.68 138.392C1025.69 138.947 1024.45 139.224 1022.93 139.224ZM1045.09 139.224C1043.3 139.224 1041.7 138.851 1040.29 138.104C1038.9 137.336 1037.81 136.291 1037.03 134.968C1036.24 133.645 1035.84 132.141 1035.84 130.456C1035.84 128.749 1036.24 127.245 1037.03 125.944C1037.81 124.621 1038.9 123.587 1040.29 122.84C1041.7 122.093 1043.3 121.72 1045.09 121.72C1046.75 121.72 1048.21 122.061 1049.47 122.744C1050.75 123.405 1051.72 124.387 1052.39 125.688L1049.31 127.48C1048.8 126.669 1048.17 126.072 1047.43 125.688C1046.7 125.304 1045.91 125.112 1045.06 125.112C1044.08 125.112 1043.19 125.325 1042.4 125.752C1041.61 126.179 1040.99 126.797 1040.55 127.608C1040.1 128.397 1039.87 129.347 1039.87 130.456C1039.87 131.565 1040.1 132.525 1040.55 133.336C1040.99 134.125 1041.61 134.733 1042.4 135.16C1043.19 135.587 1044.08 135.8 1045.06 135.8C1045.91 135.8 1046.7 135.608 1047.43 135.224C1048.17 134.84 1048.8 134.243 1049.31 133.432L1052.39 135.224C1051.72 136.504 1050.75 137.496 1049.47 138.2C1048.21 138.883 1046.75 139.224 1045.09 139.224ZM1065.38 121.72C1066.75 121.72 1067.96 121.987 1069.03 122.52C1070.12 123.053 1070.97 123.875 1071.59 124.984C1072.21 126.072 1072.52 127.48 1072.52 129.208V139H1068.52V129.72C1068.52 128.205 1068.16 127.075 1067.43 126.328C1066.73 125.581 1065.73 125.208 1064.45 125.208C1063.52 125.208 1062.68 125.4 1061.96 125.784C1061.23 126.168 1060.67 126.744 1060.26 127.512C1059.88 128.259 1059.69 129.208 1059.69 130.36V139H1055.69V115.256H1059.69V126.52L1058.82 125.112C1059.42 124.024 1060.28 123.192 1061.41 122.616C1062.57 122.019 1063.89 121.72 1065.38 121.72ZM1077.59 139V121.912H1081.59V139H1077.59ZM1079.61 119.096C1078.86 119.096 1078.24 118.861 1077.75 118.392C1077.28 117.923 1077.05 117.357 1077.05 116.696C1077.05 116.013 1077.28 115.448 1077.75 115C1078.24 114.531 1078.86 114.296 1079.61 114.296C1080.36 114.296 1080.96 114.52 1081.43 114.968C1081.92 115.395 1082.17 115.939 1082.17 116.6C1082.17 117.304 1081.93 117.901 1081.46 118.392C1081 118.861 1080.38 119.096 1079.61 119.096ZM1096.54 121.72C1097.9 121.72 1099.12 121.987 1100.19 122.52C1101.27 123.053 1102.13 123.875 1102.75 124.984C1103.37 126.072 1103.67 127.48 1103.67 129.208V139H1099.67V129.72C1099.67 128.205 1099.31 127.075 1098.59 126.328C1097.88 125.581 1096.89 125.208 1095.61 125.208C1094.67 125.208 1093.84 125.4 1093.11 125.784C1092.39 126.168 1091.82 126.744 1091.42 127.512C1091.03 128.259 1090.84 129.208 1090.84 130.36V139H1086.84V121.912H1090.65V126.52L1089.98 125.112C1090.58 124.024 1091.44 123.192 1092.57 122.616C1093.72 122.019 1095.05 121.72 1096.54 121.72ZM1116.81 139.224C1114.91 139.224 1113.25 138.851 1111.82 138.104C1110.41 137.336 1109.31 136.291 1108.52 134.968C1107.76 133.645 1107.37 132.141 1107.37 130.456C1107.37 128.749 1107.75 127.245 1108.49 125.944C1109.26 124.621 1110.31 123.587 1111.63 122.84C1112.97 122.093 1114.5 121.72 1116.2 121.72C1117.87 121.72 1119.35 122.083 1120.65 122.808C1121.95 123.533 1122.98 124.557 1123.72 125.88C1124.47 127.203 1124.84 128.76 1124.84 130.552C1124.84 130.723 1124.83 130.915 1124.81 131.128C1124.81 131.341 1124.8 131.544 1124.78 131.736H1110.54V129.08H1122.67L1121.1 129.912C1121.12 128.931 1120.92 128.067 1120.49 127.32C1120.07 126.573 1119.48 125.987 1118.73 125.56C1118.01 125.133 1117.16 124.92 1116.2 124.92C1115.22 124.92 1114.36 125.133 1113.61 125.56C1112.89 125.987 1112.31 126.584 1111.88 127.352C1111.48 128.099 1111.28 128.984 1111.28 130.008V130.648C1111.28 131.672 1111.51 132.579 1111.98 133.368C1112.45 134.157 1113.11 134.765 1113.96 135.192C1114.82 135.619 1115.8 135.832 1116.91 135.832C1117.87 135.832 1118.73 135.683 1119.5 135.384C1120.27 135.085 1120.95 134.616 1121.55 133.976L1123.69 136.44C1122.92 137.336 1121.95 138.029 1120.78 138.52C1119.63 138.989 1118.31 139.224 1116.81 139.224ZM1133.97 139.224C1132.54 139.224 1131.16 139.043 1129.84 138.68C1128.54 138.296 1127.5 137.837 1126.73 137.304L1128.27 134.264C1129.04 134.755 1129.96 135.16 1131.02 135.48C1132.09 135.8 1133.16 135.96 1134.22 135.96C1135.48 135.96 1136.39 135.789 1136.94 135.448C1137.52 135.107 1137.81 134.648 1137.81 134.072C1137.81 133.603 1137.61 133.251 1137.23 133.016C1136.85 132.76 1136.35 132.568 1135.73 132.44C1135.11 132.312 1134.41 132.195 1133.65 132.088C1132.9 131.981 1132.14 131.843 1131.37 131.672C1130.63 131.48 1129.95 131.213 1129.33 130.872C1128.71 130.509 1128.21 130.029 1127.82 129.432C1127.44 128.835 1127.25 128.045 1127.25 127.064C1127.25 125.976 1127.56 125.037 1128.17 124.248C1128.79 123.437 1129.66 122.819 1130.77 122.392C1131.9 121.944 1133.23 121.72 1134.77 121.72C1135.92 121.72 1137.08 121.848 1138.25 122.104C1139.43 122.36 1140.4 122.723 1141.17 123.192L1139.63 126.232C1138.82 125.741 1138 125.411 1137.17 125.24C1136.36 125.048 1135.55 124.952 1134.73 124.952C1133.52 124.952 1132.61 125.133 1132.01 125.496C1131.44 125.859 1131.15 126.317 1131.15 126.872C1131.15 127.384 1131.34 127.768 1131.73 128.024C1132.11 128.28 1132.61 128.483 1133.23 128.632C1133.85 128.781 1134.53 128.909 1135.28 129.016C1136.05 129.101 1136.8 129.24 1137.55 129.432C1138.3 129.624 1138.98 129.891 1139.6 130.232C1140.24 130.552 1140.75 131.011 1141.13 131.608C1141.52 132.205 1141.71 132.984 1141.71 133.944C1141.71 135.011 1141.39 135.939 1140.75 136.728C1140.13 137.517 1139.25 138.136 1138.09 138.584C1136.94 139.011 1135.57 139.224 1133.97 139.224Z" fill="#55C9FD"/>
    <path d="M638.879 17.912H650.015V21.336H638.879V17.912ZM639.199 27.512H651.839V31H635.039V8.6H651.391V12.088H639.199V27.512ZM656.093 31V7.256H660.093V31H656.093ZM673.375 31.224C671.476 31.224 669.812 30.8507 668.383 30.104C666.975 29.336 665.876 28.2907 665.087 26.968C664.319 25.6453 663.935 24.1413 663.935 22.456C663.935 20.7493 664.308 19.2453 665.055 17.944C665.823 16.6213 666.868 15.5867 668.191 14.84C669.535 14.0933 671.06 13.72 672.767 13.72C674.431 13.72 675.913 14.0827 677.215 14.808C678.516 15.5333 679.54 16.5573 680.287 17.88C681.033 19.2027 681.407 20.76 681.407 22.552C681.407 22.7227 681.396 22.9147 681.375 23.128C681.375 23.3413 681.364 23.544 681.343 23.736H667.103V21.08H679.231L677.663 21.912C677.684 20.9307 677.481 20.0667 677.055 19.32C676.628 18.5733 676.041 17.9867 675.295 17.56C674.569 17.1333 673.727 16.92 672.767 16.92C671.785 16.92 670.921 17.1333 670.175 17.56C669.449 17.9867 668.873 18.584 668.447 19.352C668.041 20.0987 667.839 20.984 667.839 22.008V22.648C667.839 23.672 668.073 24.5787 668.543 25.368C669.012 26.1573 669.673 26.7653 670.527 27.192C671.38 27.6187 672.361 27.832 673.471 27.832C674.431 27.832 675.295 27.6827 676.063 27.384C676.831 27.0853 677.513 26.616 678.111 25.976L680.255 28.44C679.487 29.336 678.516 30.0293 677.343 30.52C676.191 30.9893 674.868 31.224 673.375 31.224ZM693.089 31.224C691.297 31.224 689.697 30.8507 688.289 30.104C686.902 29.336 685.814 28.2907 685.025 26.968C684.236 25.6453 683.841 24.1413 683.841 22.456C683.841 20.7493 684.236 19.2453 685.025 17.944C685.814 16.6213 686.902 15.5867 688.289 14.84C689.697 14.0933 691.297 13.72 693.089 13.72C694.753 13.72 696.214 14.0613 697.473 14.744C698.753 15.4053 699.724 16.3867 700.385 17.688L697.313 19.48C696.801 18.6693 696.172 18.072 695.425 17.688C694.7 17.304 693.91 17.112 693.057 17.112C692.076 17.112 691.19 17.3253 690.401 17.752C689.612 18.1787 688.993 18.7973 688.545 19.608C688.097 20.3973 687.873 21.3467 687.873 22.456C687.873 23.5653 688.097 24.5253 688.545 25.336C688.993 26.1253 689.612 26.7333 690.401 27.16C691.19 27.5867 692.076 27.8 693.057 27.8C693.91 27.8 694.7 27.608 695.425 27.224C696.172 26.84 696.801 26.2427 697.313 25.432L700.385 27.224C699.724 28.504 698.753 29.496 697.473 30.2C696.214 30.8827 694.753 31.224 693.089 31.224ZM710.494 31.224C708.616 31.224 707.166 30.744 706.141 29.784C705.118 28.8027 704.606 27.3627 704.606 25.464V10.136H708.606V25.368C708.606 26.1787 708.808 26.808 709.214 27.256C709.64 27.704 710.227 27.928 710.974 27.928C711.87 27.928 712.616 27.6933 713.214 27.224L714.334 30.072C713.864 30.456 713.288 30.744 712.606 30.936C711.923 31.128 711.219 31.224 710.494 31.224ZM701.79 17.24V14.04H713.182V17.24H701.79ZM717.624 31V13.912H721.432V18.616L720.984 17.24C721.496 16.088 722.296 15.2133 723.384 14.616C724.493 14.0187 725.869 13.72 727.512 13.72V17.528C727.341 17.4853 727.181 17.464 727.032 17.464C726.883 17.4427 726.733 17.432 726.584 17.432C725.069 17.432 723.864 17.88 722.968 18.776C722.072 19.6507 721.624 20.9627 721.624 22.712V31H717.624ZM730.905 31V13.912H734.905V31H730.905ZM732.921 11.096C732.175 11.096 731.556 10.8613 731.065 10.392C730.596 9.92267 730.361 9.35733 730.361 8.696C730.361 8.01333 730.596 7.448 731.065 7C731.556 6.53067 732.175 6.296 732.921 6.296C733.668 6.296 734.276 6.52 734.745 6.968C735.236 7.39467 735.481 7.93867 735.481 8.6C735.481 9.304 735.247 9.90133 734.777 10.392C734.308 10.8613 733.689 11.096 732.921 11.096ZM747.995 31.224C746.203 31.224 744.603 30.8507 743.195 30.104C741.809 29.336 740.721 28.2907 739.931 26.968C739.142 25.6453 738.747 24.1413 738.747 22.456C738.747 20.7493 739.142 19.2453 739.931 17.944C740.721 16.6213 741.809 15.5867 743.195 14.84C744.603 14.0933 746.203 13.72 747.995 13.72C749.659 13.72 751.121 14.0613 752.379 14.744C753.659 15.4053 754.63 16.3867 755.291 17.688L752.219 19.48C751.707 18.6693 751.078 18.072 750.331 17.688C749.606 17.304 748.817 17.112 747.963 17.112C746.982 17.112 746.097 17.3253 745.307 17.752C744.518 18.1787 743.899 18.7973 743.451 19.608C743.003 20.3973 742.779 21.3467 742.779 22.456C742.779 23.5653 743.003 24.5253 743.451 25.336C743.899 26.1253 744.518 26.7333 745.307 27.16C746.097 27.5867 746.982 27.8 747.963 27.8C748.817 27.8 749.606 27.608 750.331 27.224C751.078 26.84 751.707 26.2427 752.219 25.432L755.291 27.224C754.63 28.504 753.659 29.496 752.379 30.2C751.121 30.8827 749.659 31.224 747.995 31.224ZM758.593 31V13.912H762.593V31H758.593ZM760.609 11.096C759.862 11.096 759.243 10.8613 758.753 10.392C758.283 9.92267 758.049 9.35733 758.049 8.696C758.049 8.01333 758.283 7.448 758.753 7C759.243 6.53067 759.862 6.296 760.609 6.296C761.355 6.296 761.963 6.52 762.433 6.968C762.923 7.39467 763.169 7.93867 763.169 8.6C763.169 9.304 762.934 9.90133 762.465 10.392C761.995 10.8613 761.377 11.096 760.609 11.096ZM774.275 31.224C772.397 31.224 770.947 30.744 769.923 29.784C768.899 28.8027 768.387 27.3627 768.387 25.464V10.136H772.387V25.368C772.387 26.1787 772.589 26.808 772.995 27.256C773.421 27.704 774.008 27.928 774.755 27.928C775.651 27.928 776.397 27.6933 776.995 27.224L778.115 30.072C777.645 30.456 777.069 30.744 776.387 30.936C775.704 31.128 775 31.224 774.275 31.224ZM765.571 17.24V14.04H776.963V17.24H765.571ZM782.501 37.432C781.669 37.432 780.837 37.2933 780.005 37.016C779.173 36.7387 778.479 36.3547 777.925 35.864L779.525 32.92C779.93 33.2827 780.389 33.5707 780.901 33.784C781.413 33.9973 781.935 34.104 782.469 34.104C783.194 34.104 783.781 33.9227 784.229 33.56C784.677 33.1973 785.093 32.5893 785.477 31.736L786.469 29.496L786.789 29.016L793.253 13.912H797.093L789.093 32.376C788.559 33.656 787.962 34.6693 787.301 35.416C786.661 36.1627 785.935 36.6853 785.125 36.984C784.335 37.2827 783.461 37.432 782.501 37.432ZM786.021 31.608L778.309 13.912H782.469L788.741 28.664L786.021 31.608Z" fill="#55C9FD"/>
    <path d="M917.321 306V283.6H920.745L930.537 299.952H928.745L938.377 283.6H941.801L941.833 306H937.897L937.865 289.776H938.697L930.505 303.44H928.649L920.329 289.776H921.289V306H917.321ZM955.531 306.224C953.632 306.224 951.968 305.851 950.539 305.104C949.131 304.336 948.032 303.291 947.243 301.968C946.475 300.645 946.091 299.141 946.091 297.456C946.091 295.749 946.464 294.245 947.211 292.944C947.979 291.621 949.024 290.587 950.347 289.84C951.691 289.093 953.216 288.72 954.923 288.72C956.587 288.72 958.07 289.083 959.371 289.808C960.672 290.533 961.696 291.557 962.443 292.88C963.19 294.203 963.563 295.76 963.563 297.552C963.563 297.723 963.552 297.915 963.531 298.128C963.531 298.341 963.52 298.544 963.499 298.736H949.259V296.08H961.387L959.819 296.912C959.84 295.931 959.638 295.067 959.211 294.32C958.784 293.573 958.198 292.987 957.451 292.56C956.726 292.133 955.883 291.92 954.923 291.92C953.942 291.92 953.078 292.133 952.331 292.56C951.606 292.987 951.03 293.584 950.603 294.352C950.198 295.099 949.995 295.984 949.995 297.008V297.648C949.995 298.672 950.23 299.579 950.699 300.368C951.168 301.157 951.83 301.765 952.683 302.192C953.536 302.619 954.518 302.832 955.627 302.832C956.587 302.832 957.451 302.683 958.219 302.384C958.987 302.085 959.67 301.616 960.267 300.976L962.411 303.44C961.643 304.336 960.672 305.029 959.499 305.52C958.347 305.989 957.024 306.224 955.531 306.224ZM977.465 306V302.544L977.241 301.808V295.76C977.241 294.587 976.889 293.68 976.185 293.04C975.481 292.379 974.414 292.048 972.985 292.048C972.025 292.048 971.075 292.197 970.137 292.496C969.219 292.795 968.441 293.211 967.801 293.744L966.233 290.832C967.15 290.128 968.238 289.605 969.497 289.264C970.777 288.901 972.099 288.72 973.465 288.72C975.939 288.72 977.849 289.317 979.193 290.512C980.558 291.685 981.241 293.509 981.241 295.984V306H977.465ZM972.089 306.224C970.809 306.224 969.689 306.011 968.729 305.584C967.769 305.136 967.022 304.528 966.489 303.76C965.977 302.971 965.721 302.085 965.721 301.104C965.721 300.144 965.945 299.28 966.393 298.512C966.862 297.744 967.619 297.136 968.665 296.688C969.71 296.24 971.097 296.016 972.825 296.016H977.785V298.672H973.113C971.747 298.672 970.83 298.896 970.361 299.344C969.891 299.771 969.657 300.304 969.657 300.944C969.657 301.669 969.945 302.245 970.521 302.672C971.097 303.099 971.897 303.312 972.921 303.312C973.902 303.312 974.777 303.088 975.545 302.64C976.334 302.192 976.899 301.531 977.241 300.656L977.913 303.056C977.529 304.059 976.835 304.837 975.833 305.392C974.851 305.947 973.603 306.224 972.089 306.224ZM991.654 306.224C990.225 306.224 988.849 306.043 987.526 305.68C986.225 305.296 985.19 304.837 984.422 304.304L985.958 301.264C986.726 301.755 987.643 302.16 988.71 302.48C989.777 302.8 990.843 302.96 991.91 302.96C993.169 302.96 994.075 302.789 994.63 302.448C995.206 302.107 995.494 301.648 995.494 301.072C995.494 300.603 995.302 300.251 994.918 300.016C994.534 299.76 994.033 299.568 993.414 299.44C992.795 299.312 992.102 299.195 991.334 299.088C990.587 298.981 989.83 298.843 989.062 298.672C988.315 298.48 987.633 298.213 987.014 297.872C986.395 297.509 985.894 297.029 985.51 296.432C985.126 295.835 984.934 295.045 984.934 294.064C984.934 292.976 985.243 292.037 985.862 291.248C986.481 290.437 987.345 289.819 988.454 289.392C989.585 288.944 990.918 288.72 992.454 288.72C993.606 288.72 994.769 288.848 995.942 289.104C997.115 289.36 998.086 289.723 998.854 290.192L997.318 293.232C996.507 292.741 995.686 292.411 994.854 292.24C994.043 292.048 993.233 291.952 992.422 291.952C991.206 291.952 990.299 292.133 989.702 292.496C989.126 292.859 988.838 293.317 988.838 293.872C988.838 294.384 989.03 294.768 989.414 295.024C989.798 295.28 990.299 295.483 990.918 295.632C991.537 295.781 992.219 295.909 992.966 296.016C993.734 296.101 994.491 296.24 995.238 296.432C995.985 296.624 996.667 296.891 997.286 297.232C997.926 297.552 998.438 298.011 998.822 298.608C999.206 299.205 999.398 299.984 999.398 300.944C999.398 302.011 999.078 302.939 998.438 303.728C997.819 304.517 996.934 305.136 995.782 305.584C994.63 306.011 993.254 306.224 991.654 306.224ZM1010.07 306.224C1008.62 306.224 1007.34 305.957 1006.23 305.424C1005.13 304.869 1004.26 304.037 1003.64 302.928C1003.02 301.797 1002.71 300.379 1002.71 298.672V288.912H1006.71V298.128C1006.71 299.664 1007.06 300.816 1007.74 301.584C1008.44 302.331 1009.43 302.704 1010.71 302.704C1011.65 302.704 1012.46 302.512 1013.15 302.128C1013.85 301.744 1014.39 301.168 1014.78 300.4C1015.18 299.632 1015.39 298.683 1015.39 297.552V288.912H1019.39V306H1015.58V301.392L1016.25 302.8C1015.67 303.909 1014.83 304.763 1013.72 305.36C1012.61 305.936 1011.4 306.224 1010.07 306.224ZM1024.62 306V288.912H1028.43V293.616L1027.98 292.24C1028.5 291.088 1029.3 290.213 1030.38 289.616C1031.49 289.019 1032.87 288.72 1034.51 288.72V292.528C1034.34 292.485 1034.18 292.464 1034.03 292.464C1033.88 292.443 1033.73 292.432 1033.58 292.432C1032.07 292.432 1030.86 292.88 1029.97 293.776C1029.07 294.651 1028.62 295.963 1028.62 297.712V306H1024.62ZM1037.91 306V288.912H1041.91V306H1037.91ZM1039.92 286.096C1039.17 286.096 1038.56 285.861 1038.07 285.392C1037.6 284.923 1037.36 284.357 1037.36 283.696C1037.36 283.013 1037.6 282.448 1038.07 282C1038.56 281.531 1039.17 281.296 1039.92 281.296C1040.67 281.296 1041.28 281.52 1041.75 281.968C1042.24 282.395 1042.48 282.939 1042.48 283.6C1042.48 284.304 1042.25 284.901 1041.78 285.392C1041.31 285.861 1040.69 286.096 1039.92 286.096ZM1056.85 288.72C1058.22 288.72 1059.43 288.987 1060.5 289.52C1061.59 290.053 1062.44 290.875 1063.06 291.984C1063.68 293.072 1063.99 294.48 1063.99 296.208V306H1059.99V296.72C1059.99 295.205 1059.62 294.075 1058.9 293.328C1058.2 292.581 1057.2 292.208 1055.92 292.208C1054.98 292.208 1054.15 292.4 1053.43 292.784C1052.7 293.168 1052.14 293.744 1051.73 294.512C1051.35 295.259 1051.16 296.208 1051.16 297.36V306H1047.16V288.912H1050.96V293.52L1050.29 292.112C1050.89 291.024 1051.75 290.192 1052.88 289.616C1054.04 289.019 1055.36 288.72 1056.85 288.72ZM1076.84 312.432C1075.26 312.432 1073.71 312.219 1072.2 311.792C1070.7 311.387 1069.48 310.789 1068.52 310L1070.31 306.992C1071.06 307.611 1071.99 308.101 1073.12 308.464C1074.28 308.848 1075.44 309.04 1076.61 309.04C1078.49 309.04 1079.87 308.603 1080.74 307.728C1081.62 306.875 1082.05 305.584 1082.05 303.856V300.816L1082.37 296.944L1082.24 293.072V288.912H1086.05V303.408C1086.05 306.501 1085.26 308.773 1083.68 310.224C1082.11 311.696 1079.82 312.432 1076.84 312.432ZM1076.32 305.232C1074.7 305.232 1073.23 304.891 1071.91 304.208C1070.61 303.504 1069.57 302.533 1068.8 301.296C1068.06 300.059 1067.68 298.608 1067.68 296.944C1067.68 295.301 1068.06 293.861 1068.8 292.624C1069.57 291.387 1070.61 290.427 1071.91 289.744C1073.23 289.061 1074.7 288.72 1076.32 288.72C1077.78 288.72 1079.08 289.008 1080.23 289.584C1081.38 290.16 1082.3 291.056 1082.98 292.272C1083.68 293.488 1084.04 295.045 1084.04 296.944C1084.04 298.843 1083.68 300.411 1082.98 301.648C1082.3 302.864 1081.38 303.771 1080.23 304.368C1079.08 304.944 1077.78 305.232 1076.32 305.232ZM1076.93 301.84C1077.94 301.84 1078.83 301.637 1079.62 301.232C1080.41 300.805 1081.02 300.229 1081.44 299.504C1081.89 298.757 1082.12 297.904 1082.12 296.944C1082.12 295.984 1081.89 295.141 1081.44 294.416C1081.02 293.669 1080.41 293.104 1079.62 292.72C1078.83 292.315 1077.94 292.112 1076.93 292.112C1075.93 292.112 1075.02 292.315 1074.21 292.72C1073.42 293.104 1072.8 293.669 1072.36 294.416C1071.93 295.141 1071.72 295.984 1071.72 296.944C1071.72 297.904 1071.93 298.757 1072.36 299.504C1072.8 300.229 1073.42 300.805 1074.21 301.232C1075.02 301.637 1075.93 301.84 1076.93 301.84Z" fill="#55C9FD"/>
</svg>
