<svg width="24" height="24" viewBox="0 0 24 24" fill="none" xmlns="http://www.w3.org/2000/svg">
    <path d="M10.48 0.47998C4.95706 0.47998 0.47998 4.95706 0.47998 10.48C0.47998 16.0029 4.95706 20.48 10.48 20.48C16.0029 20.48 20.48 16.0029 20.48 10.48C20.48 4.95706 16.0029 0.47998 10.48 0.47998ZM8.03206 14.6248H6.00706V8.10811H8.03206V14.6248ZM7.00706 7.3081C6.36748 7.3081 5.95394 6.85498 5.95394 6.29456C5.95394 5.72269 6.37998 5.28311 7.0331 5.28311C7.68623 5.28311 8.08623 5.72269 8.09873 6.29456C8.09873 6.85498 7.68623 7.3081 7.00706 7.3081ZM15.4279 14.6248H13.4029V11.0133C13.4029 10.1727 13.1091 9.60186 12.3769 9.60186C11.8175 9.60186 11.4852 9.98831 11.3383 10.3602C11.2841 10.4925 11.2706 10.68 11.2706 10.8664V14.6237H9.24456V10.1862C9.24456 9.37269 9.21852 8.69248 9.19144 8.10706H10.9508L11.0435 9.01227H11.0841C11.3508 8.58727 12.0039 7.96019 13.0966 7.96019C14.4289 7.96019 15.4279 8.8529 15.4279 10.7716V14.6248Z" fill="white"/>
</svg>
