<svg width="204" height="56" viewBox="0 0 204 56" fill="none" xmlns="http://www.w3.org/2000/svg">
<g clip-path="url(#clip0_218_2140)">
<path d="M115.562 18.9004C115.562 12.9846 115.664 7.47673 115.97 2.37689L100.364 5.3348V6.76275L101.894 6.96674C103.016 7.06874 103.73 7.47673 104.138 8.08871C104.546 8.80269 104.852 9.82265 105.056 11.3526C105.26 14.3105 105.464 21.0423 105.362 31.65C105.362 42.1556 105.26 48.7854 105.056 51.3353C110.666 52.5593 115.052 53.0693 118.316 53.0693C124.436 53.0693 129.229 51.3353 132.697 47.7654C136.165 44.2976 138.001 39.4017 138.001 33.3839C138.001 28.5901 136.675 24.6122 134.023 21.4503C131.371 18.2884 128.005 16.7584 124.028 16.7584C121.376 16.7584 118.622 17.4724 115.562 18.9004ZM115.868 50.3154C115.664 47.0515 115.46 37.2598 115.46 21.2463C116.378 20.9403 117.602 20.7363 119.132 20.7363C121.58 20.7363 123.518 21.9603 124.946 24.5102C126.374 27.0601 127.088 30.12 127.088 33.9959C127.088 38.7897 126.272 42.6656 124.64 45.9295C123.008 49.0914 120.968 50.7233 118.418 50.7233C117.602 50.5194 116.786 50.4174 115.868 50.3154ZM41.8182 3.39686H1.01953V5.43679L3.16146 5.64079C4.79341 5.94678 5.91537 6.55876 6.62935 7.47673C7.34333 8.4967 7.75132 10.1286 7.85331 12.3726C8.66929 23.3882 8.66929 33.6899 7.85331 43.1756C7.64932 45.4195 7.24133 47.0515 6.62935 48.0714C5.91537 49.0914 4.79341 49.7034 3.16146 49.9074L1.01953 50.2134V52.2533H27.3347V50.2134L24.5808 50.0094C22.9488 49.8054 21.8269 49.0914 21.1129 48.1734C20.3989 47.1535 19.9909 45.5215 19.8889 43.2776C19.5829 39.1977 19.3789 34.5059 19.3789 29.304L24.8868 29.406C27.8447 29.508 29.8846 31.752 30.9046 36.2398H32.9445V19.6143H30.9046C29.8846 24.0002 27.9467 26.2441 24.8868 26.3461L19.3789 26.4481C19.3789 17.2684 19.5829 10.7406 19.8889 6.76275H27.9467C33.6585 6.76275 37.5344 10.4346 39.7783 17.7784L42.2262 17.0644L41.8182 3.39686ZM37.0244 34.8119C37.0244 40.1157 38.5543 44.5015 41.5122 47.9694C44.4701 51.4373 48.856 53.0693 54.3638 53.0693C59.8717 53.0693 64.3595 51.3353 67.6234 47.7654C70.8873 44.2976 72.4173 39.9117 72.4173 34.6079C72.4173 29.304 70.8873 24.9182 67.9294 21.4503C64.9715 17.9824 60.5856 16.3504 55.0778 16.3504C49.57 16.3504 45.0821 18.0844 41.8182 21.6543C38.5543 25.1222 37.0244 29.508 37.0244 34.8119ZM59.7697 23.1842C60.9936 26.1421 61.5036 30.018 61.5036 34.7099C61.5036 45.5215 59.2597 50.8253 54.8738 50.8253C52.6299 50.8253 50.8959 49.2954 49.672 46.2355C48.448 43.1756 47.938 39.2997 47.938 34.7099C47.938 24.0002 50.182 18.6964 54.5678 18.6964C56.8117 18.5944 58.5457 20.1243 59.7697 23.1842ZM145.957 47.9694C149.323 51.3353 153.607 53.0693 158.706 53.0693C161.868 53.0693 164.622 52.4573 167.07 51.1313C169.518 49.9074 171.456 48.3774 172.782 46.5415L171.762 45.3175C169.518 47.0515 166.968 47.8674 164.01 47.8674C159.93 47.8674 156.769 46.5415 154.627 43.7876C152.383 41.0337 151.363 37.5658 151.567 33.0779H173.394C173.394 28.1821 172.17 24.2042 169.62 21.0423C167.07 17.9824 163.5 16.4524 158.91 16.4524C153.199 16.4524 148.813 18.2884 145.651 21.8583C142.489 25.4282 140.959 29.814 140.959 35.0158C140.959 40.3197 142.591 44.6035 145.957 47.9694ZM153.505 22.3683C154.627 19.9203 156.055 18.6964 157.993 18.6964C161.052 18.6964 162.582 22.5722 162.582 30.426L151.771 30.63C151.873 27.5701 152.383 24.8162 153.505 22.3683ZM200.831 18.2884C198.077 17.0644 194.609 16.3504 190.427 16.3504C186.144 16.3504 182.778 17.4724 180.228 19.6143C177.678 21.7563 176.352 24.4082 176.352 27.5701C176.352 30.324 177.168 32.4659 178.698 33.9959C180.228 35.5258 182.676 36.8518 185.838 37.9738C188.694 38.9937 190.733 40.0137 191.753 40.9317C192.773 41.9516 193.385 43.0736 193.385 44.6035C193.385 46.0315 192.875 47.3574 191.753 48.3774C190.733 49.4994 189.306 50.0094 187.47 50.0094C182.982 50.0094 179.616 46.7455 177.27 40.2177L175.536 40.7277L175.944 50.9273C179.616 52.3553 183.696 53.0693 188.184 53.0693C192.875 53.0693 196.445 52.0493 199.097 49.9074C201.749 47.8674 203.075 44.9095 203.075 41.2376C203.075 38.7897 202.463 36.7498 201.137 35.2198C199.811 33.6899 197.669 32.3639 194.609 31.14C191.243 29.916 188.898 28.794 187.674 27.7741C186.45 26.7541 185.838 25.5302 185.838 24.0002C185.838 22.4702 186.246 21.2463 187.164 20.2263C188.082 19.2064 189.204 18.7984 190.631 18.7984C194.711 18.7984 197.669 21.7563 199.505 27.5701L201.239 27.0601L200.831 18.2884ZM102.71 17.3704C101.282 16.6564 99.7524 16.3504 98.0184 16.3504C96.2845 16.3504 94.5505 17.0644 92.6126 18.4924C90.6747 19.9203 89.2467 21.8583 88.1247 24.5102L88.2267 16.3504L72.7232 19.4103V20.8383L74.2532 20.9403C76.1911 21.1443 77.3131 22.6742 77.5171 25.4282C78.1291 31.752 78.1291 38.4837 77.5171 45.6235C77.3131 48.3774 76.1911 49.8054 74.2532 50.1114L72.7232 50.3154V52.2533H94.3465V50.3154L91.5926 50.1114C89.6547 49.9074 88.5327 48.3774 88.3287 45.6235C87.7168 39.7077 87.6148 33.3839 88.1247 26.8561C88.7367 25.8361 90.0627 25.2242 92.1026 25.0202C94.1426 24.8162 96.4885 25.4282 98.9364 26.8561L102.71 17.3704Z" fill="#B2AEAA"/>
</g>
<defs>
<clipPath id="clip0_218_2140">
<rect width="203.993" height="55.0782" fill="white" transform="translate(0 0.336975)"/>
</clipPath>
</defs>
</svg>
