<svg width="252" height="46" viewBox="0 0 252 46" fill="none" xmlns="http://www.w3.org/2000/svg">
<path d="M0.267663 19.125C0.702403 17.5043 1.71129 16.7406 3.43658 16.7406C8.02459 16.7406 12.6117 16.7406 17.1979 16.7406C19.1972 16.7065 21.1743 17.155 22.9534 18.0463C23.3226 18.2359 23.5167 18.2225 23.7737 17.8621C24.0334 17.5037 24.3802 17.214 24.7831 17.0192C25.1859 16.8244 25.6321 16.7304 26.0814 16.746C30.9674 16.746 35.8535 16.6872 40.7368 16.746C47.1814 16.8394 52.4693 22.1421 52.4693 28.4088C52.4693 32.9176 52.4693 37.4264 52.4693 41.9352C52.4693 44.0953 51.9224 44.8403 49.8554 45.5265H48.8902C47.0583 45.1019 46.2162 44.0526 46.2107 42.1221C46.2107 37.6792 46.2107 33.2362 46.2107 28.7932C46.2107 25.2608 43.6897 22.8096 40.0641 22.807C37.4721 22.807 34.8691 22.791 32.288 22.807C30.7705 22.8203 29.6769 23.7175 29.4582 25.0472C29.4131 25.4036 29.4316 25.7649 29.5128 26.1152C29.7179 27.1904 29.8223 28.2816 29.8245 29.3753C29.8245 33.3804 29.8245 37.3668 29.8245 41.3638C29.8313 41.8102 29.8039 42.2565 29.7425 42.6989C29.469 44.4371 28.8375 45.1286 27.1423 45.5211H25.6275C23.8065 45.0966 22.9507 44.0499 22.948 42.1916C22.948 37.4362 22.948 32.6835 22.948 27.9281C22.9566 26.7608 22.5469 25.6272 21.7899 24.7237C21.033 23.8201 19.9764 23.2035 18.8029 22.9805C18.2422 22.8624 17.6703 22.8016 17.0967 22.799C14.5976 22.799 12.0986 22.799 9.59951 22.799C7.55705 22.799 6.56457 23.7762 6.56183 25.7654C6.56183 31.077 6.56183 36.3886 6.56183 41.7003C6.58836 42.3039 6.51164 42.9076 6.33487 43.4865C5.93294 44.6373 5.15643 45.3556 3.87408 45.5158H2.91163C2.41127 45.3956 1.87812 45.4197 1.42971 45.0859C0.631314 44.4905 0.150054 43.7509 0.229347 42.7496C0.229347 35.1097 0.229347 27.4725 0.229347 19.8379C0.201882 19.5998 0.214852 19.3589 0.267663 19.125Z" fill="#482AFF"/>
<path d="M72.5328 45.5238H70.381C64.1908 45.1527 58.4954 40.2958 57.1447 34.2375C56.6977 32.2873 56.6629 30.2686 57.0426 28.3049C57.4222 26.3412 58.2084 24.4738 59.3528 22.8171C60.4972 21.1603 61.9758 19.7492 63.6981 18.6699C65.4205 17.5906 67.3503 16.866 69.3694 16.5404C78.4689 15.0078 86.9641 22.0861 86.8055 31.0708C86.8019 31.8366 86.4876 32.5697 85.9315 33.1097C85.3755 33.6497 84.623 33.9525 83.8388 33.9518C79.8141 33.9678 75.7902 33.9678 71.7673 33.9518C70.9597 33.9365 70.1902 33.6135 69.6232 33.0518C69.0561 32.49 68.7364 31.7341 68.7323 30.9453C68.7372 30.5549 68.8214 30.1692 68.9799 29.8107C69.1383 29.4522 69.3679 29.1279 69.6555 28.8566C69.943 28.5852 70.2827 28.3722 70.655 28.2298C71.0274 28.0874 71.4249 28.0184 71.8247 28.0269C73.8298 28.0269 75.8303 28.0269 77.8263 28.0269C78.4497 28.0269 78.991 27.9121 79.3055 27.3087C79.6199 26.7053 79.3055 26.2994 78.9911 25.8615C77.9606 24.4887 76.5403 23.4414 74.9061 22.8493C73.2719 22.2573 71.4958 22.1466 69.7978 22.5309C68.0998 22.9153 66.5546 23.7777 65.3538 25.0115C64.1529 26.2452 63.3493 27.7959 63.0424 29.4714C62.1537 34.6246 65.8969 39.2305 71.2779 39.6176C71.7955 39.6164 72.3111 39.6811 72.8117 39.8099C73.426 40.0158 73.9582 40.4056 74.3327 40.9237C74.7072 41.4418 74.905 42.062 74.898 42.6962C74.8569 44.0633 73.9464 45.1473 72.5328 45.5238Z" fill="#482AFF"/>
<path d="M179.343 45.5238H177.191C171 45.1527 165.305 40.2958 163.952 34.2375C163.505 32.2873 163.47 30.2686 163.849 28.3049C164.229 26.3412 165.015 24.4738 166.16 22.8171C167.304 21.1603 168.783 19.7492 170.505 18.6699C172.227 17.5906 174.157 16.866 176.176 16.5404C185.278 15.0078 193.774 22.0861 193.612 31.0708C193.609 31.8363 193.296 32.5695 192.74 33.1096C192.185 33.6496 191.432 33.9525 190.649 33.9518C186.624 33.9678 182.6 33.9678 178.577 33.9518C177.769 33.9365 177 33.6135 176.433 33.0518C175.866 32.49 175.546 31.7341 175.542 30.9453C175.547 30.5549 175.631 30.1692 175.789 29.8107C175.948 29.4522 176.178 29.1279 176.465 28.8566C176.753 28.5852 177.092 28.3722 177.465 28.2298C177.837 28.0874 178.235 28.0184 178.634 28.0269C180.639 28.0269 182.645 28.0269 184.65 28.0269C185.273 28.0269 185.812 27.9121 186.126 27.3087C186.441 26.7053 186.126 26.2994 185.812 25.8615C184.782 24.4884 183.362 23.4408 181.727 22.8486C180.093 22.2563 178.317 22.1455 176.619 22.5299C174.921 22.9143 173.376 23.777 172.176 25.0109C170.975 26.2449 170.172 27.7958 169.866 29.4714C168.977 34.6246 172.72 39.2305 178.101 39.6176C178.618 39.6162 179.133 39.6809 179.632 39.8099C180.247 40.0154 180.78 40.4049 181.155 40.9231C181.53 41.4413 181.728 42.0617 181.721 42.6962C181.661 44.0633 180.756 45.1473 179.343 45.5238Z" fill="#482AFF"/>
<path d="M105.516 22.019C105.92 22.0193 106.319 21.9419 106.692 21.7912C107.065 21.6405 107.404 21.4195 107.69 21.1407C107.975 20.862 108.202 20.531 108.356 20.1667C108.51 19.8025 108.589 19.412 108.589 19.0178C108.589 18.9724 108.589 18.927 108.589 18.8817C108.537 18.099 108.18 17.3656 107.591 16.8326C107.002 16.2996 106.226 16.0075 105.423 16.0167H97.789C97.6473 16.0167 97.507 15.9894 97.3761 15.9364C97.2452 15.8833 97.1263 15.8056 97.0262 15.7076C96.9262 15.6097 96.8468 15.4934 96.7929 15.3654C96.7389 15.2375 96.7113 15.1004 96.7117 14.962V4.07622C96.7204 3.29151 96.4208 2.53337 95.8746 1.95775C95.3284 1.38213 94.5771 1.03281 93.7752 0.981627C92.9605 0.946128 92.1647 1.22797 91.5628 1.76521C90.9609 2.30244 90.6021 3.05108 90.5652 3.84659C90.5652 3.89198 90.5652 3.93737 90.5652 3.98276V39.4464C90.5652 40.2459 90.7264 41.0375 91.0397 41.7761C91.353 42.5147 91.8122 43.1858 92.3911 43.7511C92.97 44.3164 93.6572 44.7648 94.4135 45.0707C95.1699 45.3767 95.9805 45.5341 96.7991 45.5341H105.423C106.226 45.544 107.003 45.2522 107.593 44.7191C108.182 44.186 108.54 43.4522 108.592 42.6692C108.61 42.2745 108.549 41.8802 108.411 41.5089C108.273 41.1376 108.061 40.7965 107.787 40.5053C107.514 40.2141 107.184 39.9784 106.818 39.8118C106.451 39.6452 106.054 39.551 105.65 39.5345H105.51H98.5135C98.2764 39.5349 98.0416 39.4895 97.8225 39.4011C97.6034 39.3127 97.4044 39.1829 97.2367 39.0191C97.0691 38.8554 96.9362 38.661 96.8456 38.4471C96.755 38.2331 96.7086 38.0038 96.709 37.7723V23.087C96.7086 22.9487 96.7362 22.8118 96.7902 22.684C96.8442 22.5562 96.9236 22.4401 97.0237 22.3423C97.1238 22.2446 97.2427 22.1671 97.3736 22.1143C97.5044 22.0616 97.6447 22.0346 97.7862 22.035L105.516 22.019Z" fill="#482AFF"/>
<path d="M158.292 22.019C158.695 22.0193 159.095 21.9419 159.468 21.7912C159.841 21.6405 160.18 21.4195 160.466 21.1407C160.751 20.862 160.977 20.531 161.132 20.1667C161.286 19.8025 161.365 19.412 161.365 19.0178C161.365 18.9724 161.365 18.927 161.365 18.8817C161.313 18.099 160.956 17.3656 160.367 16.8326C159.778 16.2996 159.002 16.0075 158.199 16.0167H150.565C150.28 16.0125 150.008 15.9 149.807 15.703C149.606 15.5061 149.491 15.2402 149.488 14.962V4.07622C149.496 3.29151 149.197 2.53337 148.65 1.95775C148.104 1.38213 147.353 1.03281 146.551 0.981627C145.736 0.946128 144.941 1.22797 144.339 1.76521C143.737 2.30244 143.378 3.05108 143.341 3.84659C143.341 3.89198 143.341 3.93737 143.341 3.98276V39.4464C143.341 41.061 143.998 42.6094 145.167 43.7511C146.336 44.8927 147.922 45.5341 149.575 45.5341H158.201C159.005 45.5433 159.781 45.2512 160.37 44.7182C160.959 44.1852 161.316 43.4518 161.368 42.6692C161.386 42.2741 161.324 41.8794 161.186 41.5077C161.048 41.136 160.835 40.7947 160.561 40.5034C160.287 40.2121 159.957 39.9766 159.59 39.8103C159.222 39.644 158.825 39.5503 158.42 39.5345H158.281H151.278C150.8 39.5345 150.341 39.3489 150.002 39.0184C149.664 38.6879 149.474 38.2396 149.474 37.7723V23.087C149.474 22.9487 149.501 22.8118 149.555 22.684C149.609 22.5562 149.689 22.4401 149.789 22.3423C149.889 22.2446 150.008 22.1671 150.138 22.1143C150.269 22.0616 150.41 22.0346 150.551 22.035L158.292 22.019Z" fill="#482AFF"/>
<path d="M139.431 18.9776C139.431 17.1086 138.113 15.8296 136.183 15.835C132.21 15.835 128.24 15.835 124.267 15.8617C122.947 15.8617 121.626 15.811 120.303 15.9418C117.273 16.2587 114.468 17.6519 112.422 19.8564C110.376 22.0609 109.231 24.923 109.204 27.8983C109.204 29.6925 109.221 31.4868 109.204 33.2811C109.158 35.291 109.657 37.277 110.651 39.0377C112.778 42.7758 116.004 44.9412 120.395 45.4138C120.696 45.4952 121.008 45.5294 121.32 45.5153C125.924 45.5153 128.47 45.5153 133.077 45.5153H134.991C135.417 45.5153 136.598 45.534 137.025 45.534C138.86 44.8985 139.486 43.6062 139.458 41.7559C139.401 34.1622 139.434 26.5819 139.431 18.9776ZM133.189 30.7259C133.189 32.6136 133.189 34.5013 133.189 36.389C133.189 38.2207 131.912 39.4489 130.017 39.4516C127.283 39.4516 124.53 39.4516 121.787 39.4516C118.159 39.4382 115.449 36.7815 115.447 33.2277C115.447 31.4797 115.447 29.7308 115.447 27.981C115.44 26.4073 116.064 24.8934 117.185 23.7625C118.305 22.6316 119.835 21.9733 121.445 21.928C124.377 21.8613 127.31 21.8933 130.244 21.928C130.636 21.9294 131.023 22.0068 131.383 22.1557C131.744 22.3046 132.07 22.522 132.344 22.7954C132.617 23.0687 132.832 23.3925 132.977 23.7478C133.121 24.1032 133.191 24.483 133.183 24.8651C133.203 26.8142 133.189 28.7714 133.189 30.7285V30.7259Z" fill="#482AFF"/>
<path d="M204.776 22.27H222.4C222.808 22.2819 223.213 22.2139 223.593 22.07C223.972 21.9261 224.319 21.7092 224.611 21.4321C224.903 21.1551 225.136 20.8237 225.294 20.4573C225.453 20.091 225.535 19.6973 225.535 19.2995C225.535 18.9018 225.453 18.5081 225.294 18.1417C225.136 17.7754 224.903 17.4439 224.611 17.1669C224.319 16.8899 223.972 16.673 223.593 16.5291C223.213 16.3852 222.808 16.3172 222.4 16.3291H204.767C202.381 16.327 200.091 17.2507 198.402 18.8971C196.713 20.5435 195.763 22.7777 195.761 25.1082C195.759 27.4387 196.705 29.6746 198.391 31.324C200.077 32.9734 202.365 33.9013 204.751 33.9034H216.445C216.835 33.8917 217.224 33.9567 217.588 34.0944C217.952 34.2321 218.284 34.4398 218.564 34.7051C218.844 34.9704 219.067 35.288 219.219 35.639C219.371 35.99 219.449 36.3672 219.449 36.7483C219.449 37.1294 219.371 37.5067 219.219 37.8576C219.067 38.2086 218.844 38.5262 218.564 38.7915C218.284 39.0569 217.952 39.2645 217.588 39.4023C217.224 39.54 216.835 39.6049 216.445 39.5933H198.804C198.013 39.6164 197.263 39.9395 196.711 40.4941C196.16 41.0486 195.852 41.791 195.852 42.5637C195.852 43.3364 196.16 44.0788 196.711 44.6333C197.263 45.1879 198.013 45.511 198.804 45.5341H216.437C218.796 45.494 221.045 44.5507 222.698 42.9074C224.352 41.2641 225.279 39.0523 225.279 36.7483C225.279 34.4444 224.352 32.2326 222.698 30.5893C221.045 28.946 218.796 28.0027 216.437 27.9625H204.759C203.986 27.9625 203.245 27.6626 202.698 27.1289C202.152 26.5951 201.845 25.8711 201.845 25.1162C201.845 24.3614 202.152 23.6374 202.698 23.1036C203.245 22.5698 203.986 22.27 204.759 22.27H204.776Z" fill="#482AFF"/>
<path d="M229.606 45.5395C229.195 45.2725 228.687 45.1978 228.299 44.8747C227.931 44.5863 227.636 44.22 227.435 43.8037C227.234 43.3874 227.133 42.9318 227.139 42.4717C227.139 34.9296 227.139 27.3876 227.139 19.8456C227.13 19.4541 227.201 19.0647 227.347 18.7003C227.494 18.3359 227.714 18.0039 227.995 17.7238C228.275 17.4437 228.61 17.2211 228.979 17.0692C229.349 16.9172 229.746 16.839 230.147 16.8391C230.552 16.8443 230.953 16.9281 231.325 17.0855C231.697 17.2429 232.034 17.4709 232.315 17.7563C232.596 18.0417 232.817 18.3787 232.964 18.7479C233.111 19.1171 233.181 19.5111 233.171 19.907C233.171 21.5331 233.171 23.1565 233.171 24.7799C233.171 25.0949 233.141 25.4287 233.488 25.5969C233.835 25.7651 234.051 25.5435 234.308 25.386C238.543 22.7159 242.778 20.0459 247.014 17.3758C248.261 16.5935 249.656 16.6549 250.708 17.512C251.199 17.9167 251.546 18.4631 251.698 19.0725C251.85 19.682 251.801 20.3229 251.556 20.903C251.26 21.5349 250.769 22.06 250.15 22.4035C246.047 24.981 241.946 27.5621 237.846 30.1467C236.649 30.8996 236.657 31.4336 237.871 32.1999C241.934 34.7632 245.986 37.3345 250.063 39.8737C251.2 40.5839 251.868 41.5051 251.744 42.8401C251.621 44.1751 250.809 45.0616 249.45 45.4247C249.418 45.4247 249.398 45.4888 249.371 45.5208H248.411C247.528 45.4968 246.828 45.0589 246.12 44.6077C242.227 42.1245 238.306 39.6788 234.396 37.2197C234.153 37.0648 233.898 36.8325 233.576 37.0221C233.253 37.2116 233.349 37.4893 233.349 37.751C233.349 39.3076 233.324 40.8616 233.349 42.4156C233.373 43.5957 232.802 44.4421 231.908 45.1497C231.506 45.4648 231.008 45.3954 230.557 45.5208L229.606 45.5395Z" fill="#482AFF"/>
</svg>
