<svg width="510" height="457" viewBox="0 0 510 457" fill="none" xmlns="http://www.w3.org/2000/svg">
<path opacity="0.1" d="M259.332 0.291702C236.847 0.968055 215.045 8.18207 196.594 21.0516C178.987 33.3339 165.675 50.8298 158.534 71.0755C135.871 134.995 98.1166 219.757 41.812 267.878C-14.4927 315.998 -3.79306 369.593 15.6329 393.715C35.0588 417.838 125.102 465.069 261.055 455.689C397.009 446.31 452.369 396.731 486.871 336.702C528.377 264.487 533.797 -10.0605 259.332 0.291702Z" fill="url(#paint0_linear_401_1100)"/>
<mask id="mask0_401_1100" style="mask-type:luminance" maskUnits="userSpaceOnUse" x="1" y="-4" width="509" height="440">
<path d="M394.939 18.6895C360.464 1.54247 298.309 -18.4949 241.088 12.3949C163.787 54.0814 173.903 147.181 111.859 197.428C49.8159 247.674 -29.0968 278.966 13.0761 363.326C55.249 447.686 270.782 446.81 354.155 417.185C437.529 387.56 496.543 336.188 507.659 248.452C518.539 162.661 488.567 65.2256 394.939 18.6895Z" fill="white"/>
</mask>
<g mask="url(#mask0_401_1100)">
<path opacity="0.1" d="M316.207 335.604C316.21 336.246 316.022 336.874 315.667 337.408C315.312 337.943 314.807 338.36 314.215 338.607C313.622 338.854 312.97 338.919 312.341 338.794C311.712 338.67 311.133 338.361 310.68 337.908C310.226 337.454 309.918 336.876 309.793 336.247C309.669 335.617 309.734 334.965 309.981 334.373C310.228 333.781 310.645 333.275 311.179 332.921C311.714 332.566 312.342 332.378 312.983 332.381C313.838 332.381 314.658 332.72 315.263 333.325C315.867 333.929 316.207 334.749 316.207 335.604Z" fill="url(#paint1_linear_401_1100)"/>
<path d="M293.474 79.6632C293.474 79.9381 293.392 80.2067 293.24 80.4352C293.087 80.6637 292.87 80.8418 292.616 80.947C292.362 81.0522 292.083 81.0797 291.813 81.0261C291.543 80.9725 291.296 80.8401 291.102 80.6458C290.907 80.4515 290.775 80.2039 290.721 79.9343C290.668 79.6648 290.695 79.3854 290.8 79.1315C290.906 78.8776 291.084 78.6605 291.312 78.5079C291.541 78.3552 291.809 78.2737 292.084 78.2737C292.453 78.2737 292.806 78.4201 293.067 78.6807C293.327 78.9413 293.474 79.2947 293.474 79.6632Z" fill="url(#paint2_linear_401_1100)"/>
<path d="M60.2235 271.491C61.2825 271.491 62.1411 270.632 62.1411 269.573C62.1411 268.514 61.2825 267.656 60.2235 267.656C59.1644 267.656 58.3059 268.514 58.3059 269.573C58.3059 270.632 59.1644 271.491 60.2235 271.491Z" fill="url(#paint3_linear_401_1100)"/>
<path opacity="0.1" d="M181.684 355.225C182.881 355.225 183.852 354.255 183.852 353.057C183.852 351.86 182.881 350.89 181.684 350.89C180.487 350.89 179.516 351.86 179.516 353.057C179.516 354.255 180.487 355.225 181.684 355.225Z" fill="url(#paint4_linear_401_1100)"/>
<path opacity="0.1" d="M167.733 409.223C168.93 409.223 169.901 408.252 169.901 407.055C169.901 405.858 168.93 404.888 167.733 404.888C166.536 404.888 165.565 405.858 165.565 407.055C165.565 408.252 166.536 409.223 167.733 409.223Z" fill="url(#paint5_linear_401_1100)"/>
<path d="M241.88 431.456C243.077 431.456 244.048 430.485 244.048 429.288C244.048 428.091 243.077 427.12 241.88 427.12C240.683 427.12 239.712 428.091 239.712 429.288C239.712 430.485 240.683 431.456 241.88 431.456Z" fill="url(#paint6_linear_401_1100)"/>
<path d="M26.6518 340.204C27.849 340.204 28.8195 339.233 28.8195 338.036C28.8195 336.839 27.849 335.868 26.6518 335.868C25.4546 335.868 24.4841 336.839 24.4841 338.036C24.4841 339.233 25.4546 340.204 26.6518 340.204Z" fill="url(#paint7_linear_401_1100)"/>
<path opacity="0.2" d="M232.793 66.3651C233.322 66.3651 233.751 65.9358 233.751 65.4063C233.751 64.8768 233.322 64.4475 232.793 64.4475C232.263 64.4475 231.834 64.8768 231.834 65.4063C231.834 65.9358 232.263 66.3651 232.793 66.3651Z" fill="url(#paint8_linear_401_1100)"/>
<path opacity="0.2" d="M335.188 27.5826C336.385 27.5826 337.356 26.6121 337.356 25.4149C337.356 24.2177 336.385 23.2472 335.188 23.2472C333.991 23.2472 333.02 24.2177 333.02 25.4149C333.02 26.6121 333.991 27.5826 335.188 27.5826Z" fill="url(#paint9_linear_401_1100)"/>
<path opacity="0.2" d="M312.983 123.656C314.18 123.656 315.151 122.686 315.151 121.488C315.151 120.291 314.18 119.321 312.983 119.321C311.786 119.321 310.815 120.291 310.815 121.488C310.815 122.686 311.786 123.656 312.983 123.656Z" fill="url(#paint10_linear_401_1100)"/>
<path d="M476.52 144.638C477.717 144.638 478.687 143.668 478.687 142.471C478.687 141.273 477.717 140.303 476.52 140.303C475.322 140.303 474.352 141.273 474.352 142.471C474.352 143.668 475.322 144.638 476.52 144.638Z" fill="url(#paint11_linear_401_1100)"/>
<path opacity="0.3" d="M478.659 301.755C478.659 301.915 478.597 302.068 478.485 302.182C478.374 302.297 478.222 302.363 478.062 302.366C477.9 302.366 477.744 302.302 477.63 302.187C477.515 302.073 477.45 301.917 477.45 301.755C477.454 301.595 477.52 301.443 477.634 301.332C477.749 301.22 477.902 301.157 478.062 301.157C478.14 301.157 478.218 301.173 478.291 301.203C478.363 301.233 478.429 301.277 478.484 301.332C478.54 301.388 478.584 301.454 478.614 301.526C478.644 301.599 478.659 301.677 478.659 301.755Z" fill="url(#paint12_linear_401_1100)"/>
<path d="M436.945 362.673C438.142 362.673 439.113 361.703 439.113 360.505C439.113 359.308 438.142 358.338 436.945 358.338C435.748 358.338 434.777 359.308 434.777 360.505C434.777 361.703 435.748 362.673 436.945 362.673Z" fill="url(#paint13_linear_401_1100)"/>
<path d="M284.914 330.63C284.914 330.883 284.839 331.13 284.698 331.34C284.558 331.551 284.358 331.714 284.125 331.811C283.891 331.908 283.634 331.933 283.386 331.884C283.138 331.835 282.91 331.713 282.732 331.534C282.553 331.355 282.431 331.127 282.382 330.879C282.332 330.631 282.358 330.374 282.455 330.141C282.551 329.907 282.715 329.708 282.925 329.567C283.136 329.427 283.383 329.352 283.636 329.352C283.975 329.352 284.3 329.486 284.54 329.726C284.779 329.966 284.914 330.291 284.914 330.63Z" fill="url(#paint14_linear_401_1100)"/>
<path d="M244.047 373.595C244.753 373.595 245.326 373.023 245.326 372.316C245.326 371.61 244.753 371.038 244.047 371.038C243.341 371.038 242.769 371.61 242.769 372.316C242.769 373.023 243.341 373.595 244.047 373.595Z" fill="url(#paint15_linear_401_1100)"/>
<path opacity="0.5" d="M219.73 313.024C219.733 313.278 219.66 313.526 219.522 313.738C219.383 313.95 219.184 314.116 218.951 314.215C218.718 314.314 218.46 314.341 218.211 314.294C217.962 314.246 217.733 314.125 217.553 313.947C217.373 313.769 217.25 313.541 217.199 313.293C217.149 313.044 217.173 312.787 217.27 312.552C217.366 312.318 217.53 312.117 217.74 311.976C217.951 311.835 218.198 311.76 218.452 311.76C218.788 311.76 219.112 311.893 219.351 312.129C219.59 312.366 219.727 312.688 219.73 313.024Z" fill="url(#paint16_linear_401_1100)"/>
<path d="M105.87 314.303C105.87 314.556 105.795 314.803 105.655 315.013C105.514 315.223 105.315 315.387 105.081 315.484C104.847 315.581 104.59 315.606 104.342 315.557C104.094 315.507 103.867 315.386 103.688 315.207C103.509 315.028 103.387 314.8 103.338 314.552C103.289 314.304 103.314 314.047 103.411 313.814C103.508 313.58 103.671 313.38 103.882 313.24C104.092 313.099 104.339 313.024 104.592 313.024C104.931 313.024 105.256 313.159 105.496 313.399C105.736 313.639 105.87 313.964 105.87 314.303Z" fill="url(#paint17_linear_401_1100)"/>
<path opacity="0.2" d="M353.225 233.82C353.228 234.074 353.155 234.323 353.015 234.535C352.876 234.748 352.676 234.914 352.442 235.012C352.208 235.111 351.95 235.137 351.701 235.088C351.451 235.039 351.222 234.917 351.043 234.738C350.863 234.558 350.741 234.329 350.692 234.08C350.643 233.831 350.67 233.572 350.768 233.338C350.867 233.104 351.033 232.905 351.245 232.765C351.457 232.626 351.707 232.553 351.961 232.555C352.295 232.559 352.614 232.693 352.851 232.93C353.087 233.166 353.221 233.486 353.225 233.82Z" fill="url(#paint18_linear_401_1100)"/>
<path d="M294.753 419.673C294.755 419.926 294.683 420.174 294.544 420.387C294.405 420.599 294.206 420.765 293.973 420.864C293.74 420.962 293.482 420.99 293.233 420.942C292.984 420.894 292.755 420.774 292.575 420.595C292.395 420.417 292.272 420.189 292.221 419.941C292.171 419.693 292.195 419.435 292.292 419.2C292.388 418.966 292.552 418.766 292.762 418.625C292.973 418.483 293.221 418.408 293.474 418.408C293.811 418.408 294.134 418.541 294.373 418.778C294.613 419.014 294.749 419.336 294.753 419.673Z" fill="url(#paint19_linear_401_1100)"/>
<path d="M96.8245 402.776C97.5306 402.776 98.1029 402.203 98.1029 401.497C98.1029 400.791 97.5306 400.219 96.8245 400.219C96.1185 400.219 95.5461 400.791 95.5461 401.497C95.5461 402.203 96.1185 402.776 96.8245 402.776Z" fill="url(#paint20_linear_401_1100)"/>
<path d="M443.671 168.053C443.671 168.305 443.596 168.553 443.455 168.763C443.315 168.973 443.115 169.137 442.881 169.234C442.648 169.33 442.391 169.356 442.143 169.306C441.895 169.257 441.667 169.135 441.488 168.957C441.309 168.778 441.188 168.55 441.138 168.302C441.089 168.054 441.114 167.797 441.211 167.563C441.308 167.33 441.472 167.13 441.682 166.99C441.892 166.849 442.139 166.774 442.392 166.774C442.731 166.774 443.056 166.909 443.296 167.149C443.536 167.388 443.671 167.714 443.671 168.053Z" fill="url(#paint21_linear_401_1100)"/>
<path d="M465.153 288.36C465.155 288.613 465.083 288.862 464.944 289.074C464.805 289.286 464.607 289.452 464.373 289.551C464.14 289.65 463.882 289.677 463.634 289.629C463.385 289.581 463.156 289.461 462.975 289.282C462.795 289.104 462.672 288.877 462.622 288.628C462.571 288.38 462.596 288.122 462.692 287.888C462.788 287.653 462.952 287.453 463.163 287.312C463.373 287.171 463.621 287.095 463.874 287.095C464.211 287.095 464.534 287.228 464.773 287.465C465.013 287.701 465.149 288.023 465.153 288.36Z" fill="url(#paint22_linear_401_1100)"/>
<path d="M265.224 38.1293C265.224 38.4684 265.089 38.7936 264.85 39.0333C264.61 39.273 264.285 39.4077 263.946 39.4077C263.609 39.4041 263.287 39.2678 263.051 39.0284C262.814 38.7891 262.681 38.466 262.681 38.1293C262.681 37.7927 262.814 37.4696 263.051 37.2303C263.287 36.9909 263.609 36.8546 263.946 36.851C264.113 36.851 264.28 36.884 264.435 36.9483C264.59 37.0125 264.731 37.1067 264.85 37.2254C264.968 37.3441 265.062 37.485 265.127 37.6401C265.191 37.7952 265.224 37.9615 265.224 38.1293Z" fill="url(#paint23_linear_401_1100)"/>
<path d="M286.179 6.16974C286.179 6.5064 286.046 6.82948 285.809 7.06882C285.572 7.30817 285.251 7.44447 284.914 7.44813C284.575 7.44813 284.25 7.31344 284.01 7.0737C283.77 6.83396 283.636 6.50879 283.636 6.16974C283.636 5.83069 283.77 5.50553 284.01 5.26578C284.25 5.02604 284.575 4.89136 284.914 4.89136C285.251 4.89502 285.572 5.03131 285.809 5.27066C286.046 5.51001 286.179 5.83309 286.179 6.16974Z" fill="url(#paint24_linear_401_1100)"/>
<path d="M201.833 103.952C201.833 104.205 201.758 104.452 201.618 104.663C201.477 104.873 201.277 105.037 201.044 105.134C200.81 105.23 200.553 105.256 200.305 105.206C200.057 105.157 199.829 105.035 199.651 104.856C199.472 104.678 199.35 104.45 199.301 104.202C199.251 103.954 199.277 103.697 199.373 103.463C199.47 103.23 199.634 103.03 199.844 102.89C200.055 102.749 200.302 102.674 200.555 102.674C200.894 102.674 201.219 102.809 201.459 103.049C201.698 103.288 201.833 103.613 201.833 103.952Z" fill="url(#paint25_linear_401_1100)"/>
<path d="M270.782 258.915C270.782 259.168 270.707 259.415 270.567 259.626C270.426 259.836 270.227 260 269.993 260.096C269.76 260.193 269.503 260.219 269.255 260.169C269.007 260.12 268.779 259.998 268.6 259.819C268.421 259.641 268.3 259.413 268.25 259.165C268.201 258.917 268.226 258.66 268.323 258.426C268.42 258.193 268.583 257.993 268.794 257.852C269.004 257.712 269.251 257.637 269.504 257.637C269.843 257.637 270.168 257.772 270.408 258.011C270.648 258.251 270.782 258.576 270.782 258.915Z" fill="url(#paint26_linear_401_1100)"/>
<path opacity="0.2" d="M322.474 248.493C323.671 248.493 324.641 247.523 324.641 246.326C324.641 245.129 323.671 244.158 322.474 244.158C321.276 244.158 320.306 245.129 320.306 246.326C320.306 247.523 321.276 248.493 322.474 248.493Z" fill="url(#paint27_linear_401_1100)"/>
<path opacity="0.1" d="M383.433 314.998C383.433 315.635 383.244 316.258 382.89 316.789C382.536 317.319 382.032 317.732 381.443 317.976C380.854 318.22 380.206 318.284 379.581 318.159C378.955 318.035 378.381 317.728 377.93 317.277C377.479 316.826 377.172 316.252 377.048 315.626C376.923 315.001 376.987 314.353 377.231 313.764C377.475 313.175 377.888 312.671 378.419 312.317C378.949 311.963 379.572 311.774 380.21 311.774C381.065 311.774 381.885 312.113 382.489 312.718C383.094 313.323 383.433 314.143 383.433 314.998Z" fill="url(#paint28_linear_401_1100)"/>
<path opacity="0.15" d="M411.586 339.884L440.308 311.176" stroke="url(#paint29_linear_401_1100)" stroke-width="1.38955" stroke-miterlimit="10" stroke-linecap="round"/>
<path opacity="0.2" d="M351.946 220.703L380.668 191.981" stroke="url(#paint30_linear_401_1100)" stroke-width="1.38955" stroke-miterlimit="10" stroke-linecap="round"/>
<path opacity="0.3" d="M212.129 65.1977L240.851 36.4757" stroke="url(#paint31_linear_401_1100)" stroke-width="1.38955" stroke-miterlimit="10" stroke-linecap="round"/>
<path opacity="0.2" d="M491.373 177.932L520.095 149.224" stroke="url(#paint32_linear_401_1100)" stroke-width="1.38955" stroke-miterlimit="10" stroke-linecap="round"/>
<path opacity="0.3" d="M317.611 102.674L367.551 52.7197" stroke="url(#paint33_linear_401_1100)" stroke-width="2.7791" stroke-miterlimit="10" stroke-linecap="round"/>
<path opacity="0.2" d="M58.8342 316.401L87.5563 287.679" stroke="url(#paint34_linear_401_1100)" stroke-width="1.38955" stroke-miterlimit="10" stroke-linecap="round"/>
<path d="M221.606 391.451L267.67 345.387" stroke="url(#paint35_linear_401_1100)" stroke-width="2.7791" stroke-miterlimit="10" stroke-linecap="round"/>
<path d="M125.115 419.645L171.179 373.581" stroke="url(#paint36_linear_401_1100)" stroke-width="2.7791" stroke-miterlimit="10" stroke-linecap="round"/>
<path opacity="0.5" d="M76.6201 244.394L105.328 215.672" stroke="url(#paint37_linear_401_1100)" stroke-width="1.38955" stroke-miterlimit="10" stroke-linecap="round"/>
<path d="M399.566 169.136L398.76 167.01C398.737 166.95 398.696 166.898 398.643 166.861C398.589 166.824 398.526 166.804 398.461 166.804C398.396 166.804 398.333 166.824 398.28 166.861C398.226 166.898 398.185 166.95 398.162 167.01L397.356 169.136C397.34 169.177 397.315 169.214 397.284 169.245C397.253 169.276 397.216 169.3 397.176 169.317L395.05 170.137C394.988 170.156 394.933 170.195 394.895 170.248C394.856 170.3 394.835 170.364 394.835 170.429C394.835 170.494 394.856 170.557 394.895 170.61C394.933 170.662 394.988 170.701 395.05 170.72L397.176 171.526C397.255 171.564 397.319 171.628 397.356 171.707L398.162 173.847C398.185 173.908 398.226 173.96 398.28 173.997C398.333 174.033 398.396 174.053 398.461 174.053C398.526 174.053 398.589 174.033 398.643 173.997C398.696 173.96 398.737 173.908 398.76 173.847L399.566 171.707C399.583 171.667 399.607 171.63 399.638 171.599C399.669 171.568 399.706 171.543 399.746 171.526L401.872 170.72C401.935 170.701 401.989 170.662 402.028 170.61C402.066 170.557 402.087 170.494 402.087 170.429C402.087 170.364 402.066 170.3 402.028 170.248C401.989 170.195 401.935 170.156 401.872 170.137L399.746 169.317C399.705 169.303 399.666 169.279 399.635 169.248C399.604 169.216 399.58 169.178 399.566 169.136Z" fill="url(#paint38_linear_401_1100)"/>
<path d="M423.438 301.297L422.619 299.157C422.593 299.1 422.552 299.052 422.501 299.019C422.449 298.985 422.388 298.967 422.327 298.967C422.265 298.967 422.205 298.985 422.153 299.019C422.101 299.052 422.06 299.1 422.035 299.157L421.229 301.297C421.192 301.376 421.128 301.44 421.048 301.477L418.908 302.283C418.852 302.308 418.804 302.349 418.771 302.401C418.737 302.453 418.719 302.513 418.719 302.575C418.719 302.637 418.737 302.697 418.771 302.749C418.804 302.801 418.852 302.842 418.908 302.867L421.048 303.687C421.089 303.703 421.126 303.728 421.157 303.759C421.188 303.79 421.212 303.827 421.229 303.867L422.035 305.993C422.054 306.055 422.093 306.11 422.146 306.148C422.198 306.187 422.262 306.208 422.327 306.208C422.392 306.208 422.455 306.187 422.508 306.148C422.56 306.11 422.599 306.055 422.619 305.993L423.438 303.867C423.453 303.825 423.477 303.787 423.508 303.756C423.539 303.725 423.577 303.701 423.619 303.687L425.745 302.867C425.807 302.847 425.862 302.809 425.9 302.756C425.939 302.704 425.96 302.64 425.96 302.575C425.96 302.51 425.939 302.446 425.9 302.394C425.862 302.341 425.807 302.303 425.745 302.283L423.633 301.449C423.551 301.425 423.481 301.371 423.438 301.297Z" fill="url(#paint39_linear_401_1100)"/>
<path d="M467.334 111.928L466.515 109.802C466.495 109.74 466.456 109.686 466.404 109.647C466.351 109.609 466.288 109.588 466.223 109.588C466.158 109.588 466.094 109.609 466.042 109.647C465.989 109.686 465.95 109.74 465.931 109.802L465.111 111.928C465.097 111.97 465.073 112.008 465.042 112.04C465.01 112.071 464.972 112.095 464.93 112.109L462.804 112.929C462.748 112.954 462.7 112.995 462.667 113.047C462.633 113.099 462.615 113.159 462.615 113.221C462.615 113.282 462.633 113.343 462.667 113.395C462.7 113.446 462.748 113.487 462.804 113.513L464.93 114.319C464.971 114.335 465.008 114.36 465.039 114.391C465.07 114.422 465.094 114.459 465.111 114.499L465.931 116.639C465.956 116.695 465.997 116.743 466.049 116.777C466.101 116.81 466.161 116.828 466.223 116.828C466.284 116.828 466.345 116.81 466.397 116.777C466.448 116.743 466.489 116.695 466.515 116.639L467.334 114.499C467.351 114.459 467.376 114.422 467.407 114.391C467.438 114.36 467.474 114.335 467.515 114.319L469.641 113.513C469.697 113.487 469.745 113.446 469.779 113.395C469.812 113.343 469.83 113.282 469.83 113.221C469.83 113.159 469.812 113.099 469.779 113.047C469.745 112.995 469.697 112.954 469.641 112.929L467.515 112.109C467.473 112.095 467.435 112.071 467.404 112.04C467.373 112.008 467.349 111.97 467.334 111.928Z" fill="url(#paint40_linear_401_1100)"/>
<path d="M257.345 17.3278L255.956 13.7983C255.915 13.7028 255.848 13.6212 255.761 13.5639C255.675 13.5065 255.573 13.476 255.469 13.476C255.366 13.476 255.264 13.5065 255.178 13.5639C255.091 13.6212 255.023 13.7028 254.983 13.7983L253.593 17.3278C253.568 17.3961 253.53 17.4585 253.479 17.5111C253.429 17.5637 253.369 17.6054 253.302 17.6335L249.758 19.0231C249.663 19.0635 249.581 19.1312 249.524 19.2177C249.466 19.3041 249.436 19.4056 249.436 19.5094C249.436 19.6132 249.466 19.7147 249.524 19.8012C249.581 19.8876 249.663 19.9553 249.758 19.9957L253.302 21.3853C253.369 21.4087 253.431 21.4471 253.481 21.4977C253.532 21.5482 253.57 21.6096 253.593 21.6771L254.983 25.2205C255.023 25.316 255.091 25.3976 255.178 25.4549C255.264 25.5123 255.366 25.5429 255.469 25.5429C255.573 25.5429 255.675 25.5123 255.761 25.4549C255.848 25.3976 255.915 25.316 255.956 25.2205L257.345 21.6771C257.37 21.6105 257.409 21.55 257.46 21.4997C257.51 21.4494 257.57 21.4104 257.637 21.3853L261.18 19.9957C261.276 19.9553 261.358 19.8876 261.415 19.8012C261.472 19.7147 261.503 19.6132 261.503 19.5094C261.503 19.4056 261.472 19.3041 261.415 19.2177C261.358 19.1312 261.276 19.0635 261.18 19.0231L257.637 17.6335C257.504 17.5728 257.4 17.4633 257.345 17.3278Z" fill="url(#paint41_linear_401_1100)"/>
<path d="M214.339 402.4L213.783 400.941C213.765 400.903 213.736 400.871 213.701 400.848C213.665 400.825 213.624 400.813 213.581 400.813C213.539 400.813 213.498 400.825 213.462 400.848C213.426 400.871 213.398 400.903 213.38 400.941L212.824 402.4C212.813 402.429 212.796 402.454 212.775 402.476C212.753 402.497 212.727 402.514 212.699 402.525L211.309 403.081C211.265 403.093 211.226 403.119 211.198 403.156C211.17 403.192 211.154 403.237 211.154 403.283C211.154 403.329 211.17 403.373 211.198 403.41C211.226 403.446 211.265 403.472 211.309 403.484L212.699 404.054C212.727 404.065 212.753 404.082 212.775 404.103C212.796 404.125 212.813 404.151 212.824 404.179L213.38 405.569C213.398 405.607 213.426 405.639 213.462 405.662C213.498 405.685 213.539 405.697 213.581 405.697C213.624 405.697 213.665 405.685 213.701 405.662C213.736 405.639 213.765 405.607 213.783 405.569L214.339 404.179C214.35 404.151 214.367 404.125 214.388 404.103C214.41 404.082 214.435 404.065 214.464 404.054L215.853 403.484C215.898 403.472 215.937 403.446 215.965 403.41C215.993 403.373 216.008 403.329 216.008 403.283C216.008 403.237 215.993 403.192 215.965 403.156C215.937 403.119 215.898 403.093 215.853 403.081L214.464 402.525C214.435 402.514 214.41 402.497 214.388 402.476C214.367 402.454 214.35 402.429 214.339 402.4Z" fill="url(#paint42_linear_401_1100)"/>
<path d="M242.644 324.572L242.074 323.182C242.056 323.144 242.028 323.111 241.992 323.089C241.957 323.066 241.915 323.054 241.873 323.054C241.831 323.054 241.789 323.066 241.753 323.089C241.718 323.111 241.689 323.144 241.671 323.182L241.116 324.572C241.107 324.601 241.091 324.629 241.069 324.65C241.048 324.672 241.02 324.688 240.991 324.697L239.601 325.266C239.563 325.284 239.53 325.313 239.507 325.348C239.485 325.384 239.473 325.426 239.473 325.468C239.473 325.51 239.485 325.552 239.507 325.587C239.53 325.623 239.563 325.651 239.601 325.669L240.991 326.225C241.019 326.236 241.045 326.253 241.066 326.275C241.088 326.296 241.104 326.322 241.116 326.35L241.671 327.809C241.689 327.848 241.718 327.88 241.753 327.903C241.789 327.926 241.831 327.938 241.873 327.938C241.915 327.938 241.957 327.926 241.992 327.903C242.028 327.88 242.056 327.848 242.074 327.809L242.644 326.35C242.651 326.32 242.667 326.292 242.689 326.27C242.711 326.248 242.739 326.232 242.769 326.225L244.228 325.669C244.267 325.651 244.299 325.623 244.322 325.587C244.344 325.552 244.357 325.51 244.357 325.468C244.357 325.426 244.344 325.384 244.322 325.348C244.299 325.313 244.267 325.284 244.228 325.266L242.769 324.697C242.738 324.691 242.709 324.676 242.687 324.654C242.664 324.632 242.649 324.603 242.644 324.572Z" fill="url(#paint43_linear_401_1100)"/>
<path d="M37.7541 291.959L37.1983 290.486C37.1804 290.447 37.1519 290.415 37.1162 290.392C37.0805 290.37 37.0391 290.357 36.9968 290.357C36.9545 290.357 36.9131 290.37 36.8774 290.392C36.8417 290.415 36.8132 290.447 36.7953 290.486L36.2395 291.959C36.2282 291.985 36.2111 292.009 36.1895 292.028C36.1678 292.048 36.1422 292.062 36.1144 292.07L34.7249 292.64C34.6804 292.651 34.6411 292.677 34.6131 292.714C34.585 292.75 34.5698 292.795 34.5698 292.841C34.5698 292.887 34.585 292.932 34.6131 292.968C34.6411 293.005 34.6804 293.031 34.7249 293.043L36.1144 293.598C36.1686 293.625 36.2126 293.669 36.2395 293.723L36.7953 295.182C36.8071 295.227 36.8332 295.266 36.8697 295.294C36.9061 295.322 36.9508 295.338 36.9968 295.338C37.0428 295.338 37.0875 295.322 37.1239 295.294C37.1604 295.266 37.1865 295.227 37.1983 295.182L37.7541 293.723C37.781 293.669 37.825 293.625 37.8792 293.598L39.3521 293.043C39.3904 293.025 39.4229 292.996 39.4456 292.96C39.4684 292.925 39.4804 292.883 39.4804 292.841C39.4804 292.799 39.4684 292.757 39.4456 292.722C39.4229 292.686 39.3904 292.657 39.3521 292.64L37.8792 292.07C37.8514 292.062 37.8257 292.048 37.804 292.028C37.7824 292.009 37.7653 291.985 37.7541 291.959Z" fill="url(#paint44_linear_401_1100)"/>
<path d="M44.5907 379.945L43.7848 377.819C43.7654 377.757 43.7267 377.703 43.6742 377.664C43.6217 377.625 43.5582 377.605 43.493 377.605C43.4278 377.605 43.3644 377.625 43.3119 377.664C43.2594 377.703 43.2206 377.757 43.2012 377.819L42.3814 379.945C42.3669 379.987 42.3431 380.025 42.3118 380.056C42.2805 380.088 42.2426 380.111 42.2007 380.126L40.0747 380.946C40.0125 380.965 39.9582 381.004 39.9196 381.056C39.881 381.109 39.8601 381.172 39.8601 381.237C39.8601 381.303 39.881 381.366 39.9196 381.419C39.9582 381.471 40.0125 381.51 40.0747 381.529L42.2007 382.335C42.2412 382.352 42.278 382.377 42.309 382.408C42.34 382.439 42.3646 382.475 42.3814 382.516L43.2012 384.656C43.2263 384.712 43.2674 384.76 43.3191 384.794C43.3709 384.827 43.4313 384.845 43.493 384.845C43.5547 384.845 43.6152 384.827 43.667 384.794C43.7187 384.76 43.7597 384.712 43.7848 384.656L44.5907 382.516C44.628 382.436 44.6919 382.372 44.7714 382.335L46.9113 381.529C46.9677 381.504 47.0155 381.463 47.0491 381.411C47.0827 381.36 47.1005 381.299 47.1005 381.237C47.1005 381.176 47.0827 381.115 47.0491 381.064C47.0155 381.012 46.9677 380.971 46.9113 380.946L44.7714 380.126C44.7309 380.109 44.6941 380.085 44.6631 380.054C44.6321 380.023 44.6075 379.986 44.5907 379.945Z" fill="url(#paint45_linear_401_1100)"/>
<path d="M197.803 81.5529L196.984 79.413C196.958 79.3566 196.917 79.3088 196.866 79.2752C196.814 79.2416 196.753 79.2238 196.692 79.2238C196.63 79.2238 196.57 79.2416 196.518 79.2752C196.466 79.3088 196.425 79.3566 196.4 79.413L195.58 81.5529C195.563 81.5934 195.539 81.6302 195.508 81.6612C195.477 81.6922 195.44 81.7168 195.399 81.7336L193.273 82.5395C193.217 82.5647 193.169 82.6056 193.136 82.6574C193.102 82.7092 193.084 82.7696 193.084 82.8313C193.084 82.893 193.102 82.9534 193.136 83.0052C193.169 83.057 193.217 83.0979 193.273 83.1231L195.399 83.9429C195.441 83.9574 195.479 83.9811 195.511 84.0124C195.542 84.0437 195.566 84.0817 195.58 84.1236L196.4 86.2496C196.425 86.3059 196.466 86.3538 196.518 86.3874C196.57 86.421 196.63 86.4388 196.692 86.4388C196.753 86.4388 196.814 86.421 196.866 86.3874C196.917 86.3538 196.958 86.3059 196.984 86.2496L197.803 84.1236C197.818 84.0817 197.842 84.0437 197.873 84.0124C197.904 83.9811 197.942 83.9574 197.984 83.9429L200.11 83.1231C200.166 83.0979 200.214 83.057 200.248 83.0052C200.281 82.9534 200.299 82.893 200.299 82.8313C200.299 82.7696 200.281 82.7092 200.248 82.6574C200.214 82.6056 200.166 82.5647 200.11 82.5395L197.984 81.7336C197.943 81.7168 197.907 81.6922 197.876 81.6612C197.845 81.6302 197.82 81.5934 197.803 81.5529Z" fill="url(#paint46_linear_401_1100)"/>
<path d="M388.408 36.837L387.602 34.711C387.579 34.6504 387.538 34.5982 387.485 34.5614C387.431 34.5246 387.368 34.5049 387.303 34.5049C387.238 34.5049 387.175 34.5246 387.122 34.5614C387.068 34.5982 387.027 34.6504 387.004 34.711L386.199 36.837C386.182 36.8775 386.157 36.9143 386.126 36.9453C386.095 36.9763 386.058 37.0008 386.018 37.0176L383.892 37.8374C383.83 37.8569 383.775 37.8957 383.737 37.9481C383.698 38.0006 383.677 38.0641 383.677 38.1292C383.677 38.1944 383.698 38.2579 383.737 38.3104C383.775 38.3628 383.83 38.4016 383.892 38.4211L386.018 39.2409C386.058 39.2577 386.095 39.2822 386.126 39.3132C386.157 39.3442 386.182 39.381 386.199 39.4215L387.004 41.5475C387.027 41.6081 387.068 41.6603 387.122 41.6971C387.175 41.7339 387.238 41.7536 387.303 41.7536C387.368 41.7536 387.431 41.7339 387.485 41.6971C387.538 41.6603 387.579 41.6081 387.602 41.5475L388.408 39.4215C388.422 39.3797 388.446 39.3417 388.477 39.3104C388.509 39.2791 388.547 39.2553 388.589 39.2409L390.715 38.4211C390.777 38.4016 390.831 38.3628 390.87 38.3104C390.908 38.2579 390.929 38.1944 390.929 38.1292C390.929 38.0641 390.908 38.0006 390.87 37.9481C390.831 37.8957 390.777 37.8569 390.715 37.8374L388.589 37.0176C388.547 37.0032 388.509 36.9794 388.477 36.9481C388.446 36.9168 388.422 36.8788 388.408 36.837Z" fill="url(#paint47_linear_401_1100)"/>
</g>
<path d="M164.662 317.902C164.662 319.111 164.304 320.293 163.632 321.299C162.96 322.304 162.005 323.088 160.888 323.55C159.771 324.013 158.541 324.134 157.355 323.898C156.169 323.662 155.08 323.08 154.225 322.225C153.37 321.37 152.787 320.281 152.552 319.095C152.316 317.909 152.437 316.679 152.899 315.562C153.362 314.445 154.146 313.49 155.151 312.818C156.157 312.146 157.339 311.788 158.548 311.788C160.17 311.788 161.725 312.432 162.871 313.578C164.018 314.725 164.662 316.28 164.662 317.902Z" fill="url(#paint48_linear_401_1100)"/>
<path style="mix-blend-mode:screen" opacity="0.2" d="M436.42 105.473C437.262 81.46 418.479 61.31 394.466 60.4673C370.452 59.6245 350.302 78.4081 349.46 102.421C348.617 126.435 367.4 146.585 391.414 147.427C415.427 148.27 435.577 129.487 436.42 105.473Z" fill="url(#paint49_linear_401_1100)"/>
<path d="M429.623 115.603C436.05 95.3162 424.815 73.6598 404.528 67.2322C384.241 60.8047 362.585 72.0398 356.157 92.3267C349.73 112.614 360.965 134.27 381.252 140.698C401.539 147.125 423.195 135.89 429.623 115.603Z" fill="url(#paint50_linear_401_1100)"/>
<path opacity="0.1" d="M425.161 82.9424C425.661 83.7206 426.148 84.5126 426.551 85.3185C440.224 85.2213 449.464 87.514 450.423 92.0718C451.382 96.6295 443.795 102.479 431.15 107.899C419.767 112.584 407.963 116.172 395.897 118.612C383.874 121.239 371.627 122.71 359.324 123.003C345.568 123.142 336.258 120.835 335.299 116.278C334.34 111.72 341.885 105.912 354.433 100.506C354.516 99.5753 354.628 98.6443 354.794 97.7272C338.008 104.341 327.601 111.845 328.81 117.626C330.019 123.406 342.705 126.102 360.769 125.365C372.725 124.782 384.613 123.221 396.314 120.697C408.039 118.301 419.547 114.94 430.719 110.65C447.616 104.022 458.108 96.4905 456.885 90.6822C455.662 84.8739 443.184 82.2337 425.161 82.9424Z" fill="url(#paint51_linear_401_1100)"/>
<path opacity="0.2" d="M97.6784 376.909C112.156 367.289 116.095 347.755 106.476 333.277C96.8569 318.799 77.3223 314.86 62.8442 324.479C48.3662 334.098 44.4273 353.633 54.0465 368.111C63.6657 382.589 83.2004 386.528 97.6784 376.909Z" fill="url(#paint52_linear_401_1100)"/>
<path d="M95.374 374.058C108.237 365.727 111.911 348.546 103.58 335.682C95.2489 322.819 78.0674 319.145 65.2041 327.476C52.3409 335.807 48.6668 352.989 56.998 365.852C65.3292 378.715 82.5107 382.389 95.374 374.058Z" fill="url(#paint53_linear_401_1100)"/>
<path d="M107.593 345.915C107.718 346.568 107.815 347.221 107.885 347.888C116.973 351.668 122.461 355.795 121.78 359.088C121.1 362.381 114.457 364.118 104.55 364.16C95.6811 364.075 86.8406 363.144 78.1485 361.381C69.4365 359.745 60.9023 357.274 52.6641 354.002C43.507 350.223 37.9765 346.082 38.6296 342.789C39.2827 339.495 45.9109 337.758 55.7628 337.717C56.0709 337.121 56.4095 336.541 56.7772 335.98C43.7848 335.646 34.7667 337.689 33.9468 341.871C33.127 346.054 40.7556 351.376 52.9698 356.003C69.2042 361.879 86.2436 365.229 103.494 365.938C116.556 366.286 125.629 364.257 126.449 360.061C127.269 355.864 119.752 350.501 107.593 345.915Z" fill="url(#paint54_linear_401_1100)"/>
<path d="M283.205 377.611C283.208 380.756 282.278 383.831 280.532 386.448C278.786 389.064 276.304 391.104 273.398 392.309C270.493 393.513 267.296 393.829 264.211 393.216C261.126 392.604 258.292 391.089 256.068 388.865C253.844 386.641 252.33 383.807 251.717 380.723C251.104 377.638 251.42 374.44 252.625 371.535C253.83 368.63 255.869 366.147 258.486 364.402C261.102 362.656 264.177 361.726 267.323 361.728C271.534 361.732 275.571 363.406 278.549 366.384C281.527 369.362 283.201 373.4 283.205 377.611Z" fill="url(#paint55_linear_401_1100)"/>
<defs>
<linearGradient id="paint0_linear_401_1100" x1="34.8226" y1="426.412" x2="495.487" y2="71.7285" gradientUnits="userSpaceOnUse">
<stop stop-color="#1B88E8"/>
<stop offset="1" stop-color="#65CAEE"/>
</linearGradient>
<linearGradient id="paint1_linear_401_1100" x1="309.746" y1="335.604" x2="316.207" y2="335.604" gradientUnits="userSpaceOnUse">
<stop stop-color="#F0FF5F"/>
<stop offset="1" stop-color="#DE7C00"/>
</linearGradient>
<linearGradient id="paint2_linear_401_1100" x1="290.667" y1="79.6632" x2="293.474" y2="79.6632" gradientUnits="userSpaceOnUse">
<stop stop-color="#F0FF5F"/>
<stop offset="1" stop-color="#DE7C00"/>
</linearGradient>
<linearGradient id="paint3_linear_401_1100" x1="61.6964" y1="271.171" x2="58.695" y2="267.878" gradientUnits="userSpaceOnUse">
<stop stop-color="#F0FF5F"/>
<stop offset="1" stop-color="#DE7C00"/>
</linearGradient>
<linearGradient id="paint4_linear_401_1100" x1="179.516" y1="353.057" x2="183.852" y2="353.057" gradientUnits="userSpaceOnUse">
<stop stop-color="#F0FF5F"/>
<stop offset="1" stop-color="#DE7C00"/>
</linearGradient>
<linearGradient id="paint5_linear_401_1100" x1="165.565" y1="407.055" x2="169.914" y2="407.055" gradientUnits="userSpaceOnUse">
<stop stop-color="#F0FF5F"/>
<stop offset="1" stop-color="#DE7C00"/>
</linearGradient>
<linearGradient id="paint6_linear_401_1100" x1="238.656" y1="425.772" x2="246.646" y2="434.457" gradientUnits="userSpaceOnUse">
<stop stop-color="#F0FF5F"/>
<stop offset="1" stop-color="#DE7C00"/>
</linearGradient>
<linearGradient id="paint7_linear_401_1100" x1="24.4841" y1="338.036" x2="28.8195" y2="338.036" gradientUnits="userSpaceOnUse">
<stop stop-color="#F0FF5F"/>
<stop offset="1" stop-color="#DE7C00"/>
</linearGradient>
<linearGradient id="paint8_linear_401_1100" x1="231.848" y1="65.4063" x2="233.751" y2="65.4063" gradientUnits="userSpaceOnUse">
<stop stop-color="#F0FF5F"/>
<stop offset="1" stop-color="#DE7C00"/>
</linearGradient>
<linearGradient id="paint9_linear_401_1100" x1="333.02" y1="25.4149" x2="337.356" y2="25.4149" gradientUnits="userSpaceOnUse">
<stop stop-color="#F0FF5F"/>
<stop offset="1" stop-color="#DE7C00"/>
</linearGradient>
<linearGradient id="paint10_linear_401_1100" x1="310.815" y1="121.488" x2="315.151" y2="121.488" gradientUnits="userSpaceOnUse">
<stop stop-color="#F0FF5F"/>
<stop offset="1" stop-color="#DE7C00"/>
</linearGradient>
<linearGradient id="paint11_linear_401_1100" x1="474.574" y1="140.65" x2="480.299" y2="146.028" gradientUnits="userSpaceOnUse">
<stop stop-color="#F0FF5F"/>
<stop offset="1" stop-color="#DE7C00"/>
</linearGradient>
<linearGradient id="paint12_linear_401_1100" x1="477.45" y1="301.755" x2="478.659" y2="301.755" gradientUnits="userSpaceOnUse">
<stop stop-color="#F0FF5F"/>
<stop offset="1" stop-color="#DE7C00"/>
</linearGradient>
<linearGradient id="paint13_linear_401_1100" x1="434.777" y1="360.505" x2="439.113" y2="360.505" gradientUnits="userSpaceOnUse">
<stop stop-color="#F0FF5F"/>
<stop offset="1" stop-color="#DE7C00"/>
</linearGradient>
<linearGradient id="paint14_linear_401_1100" x1="282.357" y1="330.63" x2="284.914" y2="330.63" gradientUnits="userSpaceOnUse">
<stop stop-color="#F0FF5F"/>
<stop offset="1" stop-color="#DE7C00"/>
</linearGradient>
<linearGradient id="paint15_linear_401_1100" x1="242.769" y1="372.316" x2="245.312" y2="372.316" gradientUnits="userSpaceOnUse">
<stop stop-color="#F0FF5F"/>
<stop offset="1" stop-color="#DE7C00"/>
</linearGradient>
<linearGradient id="paint16_linear_401_1100" x1="217.174" y1="313.024" x2="219.73" y2="313.024" gradientUnits="userSpaceOnUse">
<stop stop-color="#F0FF5F"/>
<stop offset="1" stop-color="#DE7C00"/>
</linearGradient>
<linearGradient id="paint17_linear_401_1100" x1="103.327" y1="314.303" x2="105.87" y2="314.303" gradientUnits="userSpaceOnUse">
<stop stop-color="#F0FF5F"/>
<stop offset="1" stop-color="#DE7C00"/>
</linearGradient>
<linearGradient id="paint18_linear_401_1100" x1="350.682" y1="233.82" x2="353.225" y2="233.82" gradientUnits="userSpaceOnUse">
<stop stop-color="#F0FF5F"/>
<stop offset="1" stop-color="#DE7C00"/>
</linearGradient>
<linearGradient id="paint19_linear_401_1100" x1="292.21" y1="419.673" x2="294.753" y2="419.673" gradientUnits="userSpaceOnUse">
<stop stop-color="#F0FF5F"/>
<stop offset="1" stop-color="#DE7C00"/>
</linearGradient>
<linearGradient id="paint20_linear_401_1100" x1="95.5461" y1="401.497" x2="98.1029" y2="401.497" gradientUnits="userSpaceOnUse">
<stop stop-color="#F0FF5F"/>
<stop offset="1" stop-color="#DE7C00"/>
</linearGradient>
<linearGradient id="paint21_linear_401_1100" x1="441.114" y1="168.08" x2="443.671" y2="168.08" gradientUnits="userSpaceOnUse">
<stop stop-color="#F0FF5F"/>
<stop offset="1" stop-color="#DE7C00"/>
</linearGradient>
<linearGradient id="paint22_linear_401_1100" x1="462.61" y1="288.36" x2="465.153" y2="288.36" gradientUnits="userSpaceOnUse">
<stop stop-color="#F0FF5F"/>
<stop offset="1" stop-color="#DE7C00"/>
</linearGradient>
<linearGradient id="paint23_linear_401_1100" x1="262.681" y1="38.1293" x2="265.224" y2="38.1293" gradientUnits="userSpaceOnUse">
<stop stop-color="#F0FF5F"/>
<stop offset="1" stop-color="#DE7C00"/>
</linearGradient>
<linearGradient id="paint24_linear_401_1100" x1="283.636" y1="6.16974" x2="286.179" y2="6.16974" gradientUnits="userSpaceOnUse">
<stop stop-color="#F0FF5F"/>
<stop offset="1" stop-color="#DE7C00"/>
</linearGradient>
<linearGradient id="paint25_linear_401_1100" x1="199.276" y1="103.952" x2="201.833" y2="103.952" gradientUnits="userSpaceOnUse">
<stop stop-color="#F0FF5F"/>
<stop offset="1" stop-color="#DE7C00"/>
</linearGradient>
<linearGradient id="paint26_linear_401_1100" x1="268.239" y1="258.915" x2="270.782" y2="258.915" gradientUnits="userSpaceOnUse">
<stop stop-color="#F0FF5F"/>
<stop offset="1" stop-color="#DE7C00"/>
</linearGradient>
<linearGradient id="paint27_linear_401_1100" x1="320.306" y1="246.326" x2="324.641" y2="246.326" gradientUnits="userSpaceOnUse">
<stop stop-color="#F0FF5F"/>
<stop offset="1" stop-color="#DE7C00"/>
</linearGradient>
<linearGradient id="paint28_linear_401_1100" x1="376.986" y1="314.998" x2="383.433" y2="314.998" gradientUnits="userSpaceOnUse">
<stop stop-color="#F0FF5F"/>
<stop offset="1" stop-color="#DE7C00"/>
</linearGradient>
<linearGradient id="paint29_linear_401_1100" x1="410.891" y1="325.53" x2="441.003" y2="325.53" gradientUnits="userSpaceOnUse">
<stop stop-color="#54FFFF"/>
<stop offset="1" stop-color="white" stop-opacity="0"/>
</linearGradient>
<linearGradient id="paint30_linear_401_1100" x1="351.252" y1="206.335" x2="381.363" y2="206.335" gradientUnits="userSpaceOnUse">
<stop stop-color="#54FFFF"/>
<stop offset="1" stop-color="white" stop-opacity="0"/>
</linearGradient>
<linearGradient id="paint31_linear_401_1100" x1="211.435" y1="50.8437" x2="241.546" y2="50.8437" gradientUnits="userSpaceOnUse">
<stop stop-color="#54FFFF"/>
<stop offset="1" stop-color="white" stop-opacity="0"/>
</linearGradient>
<linearGradient id="paint32_linear_401_1100" x1="490.679" y1="163.578" x2="520.79" y2="163.578" gradientUnits="userSpaceOnUse">
<stop stop-color="#54FFFF"/>
<stop offset="1" stop-color="white" stop-opacity="0"/>
</linearGradient>
<linearGradient id="paint33_linear_401_1100" x1="316.221" y1="77.69" x2="368.941" y2="77.69" gradientUnits="userSpaceOnUse">
<stop stop-color="#54FFFF"/>
<stop offset="1" stop-color="white" stop-opacity="0"/>
</linearGradient>
<linearGradient id="paint34_linear_401_1100" x1="58.1395" y1="302.047" x2="88.251" y2="302.047" gradientUnits="userSpaceOnUse">
<stop stop-color="#54FFFF"/>
<stop offset="1" stop-color="white" stop-opacity="0"/>
</linearGradient>
<linearGradient id="paint35_linear_401_1100" x1="220.216" y1="368.412" x2="269.059" y2="368.412" gradientUnits="userSpaceOnUse">
<stop stop-color="#54FFFF"/>
<stop offset="1" stop-color="white" stop-opacity="0"/>
</linearGradient>
<linearGradient id="paint36_linear_401_1100" x1="123.726" y1="396.62" x2="172.569" y2="396.62" gradientUnits="userSpaceOnUse">
<stop stop-color="#54FFFF"/>
<stop offset="1" stop-color="white" stop-opacity="0"/>
</linearGradient>
<linearGradient id="paint37_linear_401_1100" x1="75.9253" y1="230.026" x2="106.023" y2="230.026" gradientUnits="userSpaceOnUse">
<stop stop-color="#54FFFF"/>
<stop offset="1" stop-color="white" stop-opacity="0"/>
</linearGradient>
<linearGradient id="paint38_linear_401_1100" x1="395.661" y1="167.802" x2="406.347" y2="177.793" gradientUnits="userSpaceOnUse">
<stop stop-color="#F0FF5F"/>
<stop offset="1" stop-color="#DE7C00"/>
</linearGradient>
<linearGradient id="paint39_linear_401_1100" x1="418.714" y1="302.575" x2="425.953" y2="302.575" gradientUnits="userSpaceOnUse">
<stop stop-color="#F0FF5F"/>
<stop offset="1" stop-color="#DE7C00"/>
</linearGradient>
<linearGradient id="paint40_linear_401_1100" x1="462.61" y1="113.221" x2="469.85" y2="113.221" gradientUnits="userSpaceOnUse">
<stop stop-color="#F0FF5F"/>
<stop offset="1" stop-color="#DE7C00"/>
</linearGradient>
<linearGradient id="paint41_linear_401_1100" x1="249.494" y1="19.4677" x2="261.514" y2="19.4677" gradientUnits="userSpaceOnUse">
<stop stop-color="#F0FF5F"/>
<stop offset="1" stop-color="#DE7C00"/>
</linearGradient>
<linearGradient id="paint42_linear_401_1100" x1="210.059" y1="400.705" x2="227.428" y2="413.433" gradientUnits="userSpaceOnUse">
<stop stop-color="#F0FF5F"/>
<stop offset="1" stop-color="#DE7C00"/>
</linearGradient>
<linearGradient id="paint43_linear_401_1100" x1="239.393" y1="325.461" x2="244.367" y2="325.461" gradientUnits="userSpaceOnUse">
<stop stop-color="#F0FF5F"/>
<stop offset="1" stop-color="#DE7C00"/>
</linearGradient>
<linearGradient id="paint44_linear_401_1100" x1="34.8638" y1="290.541" x2="40.422" y2="296.53" gradientUnits="userSpaceOnUse">
<stop stop-color="#F0FF5F"/>
<stop offset="1" stop-color="#DE7C00"/>
</linearGradient>
<linearGradient id="paint45_linear_401_1100" x1="39.8663" y1="381.237" x2="47.1058" y2="381.237" gradientUnits="userSpaceOnUse">
<stop stop-color="#F0FF5F"/>
<stop offset="1" stop-color="#DE7C00"/>
</linearGradient>
<linearGradient id="paint46_linear_401_1100" x1="193.079" y1="82.8313" x2="200.305" y2="82.8313" gradientUnits="userSpaceOnUse">
<stop stop-color="#F0FF5F"/>
<stop offset="1" stop-color="#DE7C00"/>
</linearGradient>
<linearGradient id="paint47_linear_401_1100" x1="382.655" y1="33.7383" x2="399.552" y2="49.7182" gradientUnits="userSpaceOnUse">
<stop stop-color="#F0FF5F"/>
<stop offset="1" stop-color="#DE7C00"/>
</linearGradient>
<linearGradient id="paint48_linear_401_1100" x1="152.781" y1="313.691" x2="164.12" y2="321.959" gradientUnits="userSpaceOnUse">
<stop stop-color="#F0FF5F"/>
<stop offset="1" stop-color="#DE7C00"/>
</linearGradient>
<linearGradient id="paint49_linear_401_1100" x1="359.189" y1="76.4194" x2="426.693" y2="131.321" gradientUnits="userSpaceOnUse">
<stop stop-color="#2F00DE"/>
<stop offset="1" stop-color="#2F42FF"/>
</linearGradient>
<linearGradient id="paint50_linear_401_1100" x1="363.001" y1="79.6149" x2="422.779" y2="128.235" gradientUnits="userSpaceOnUse">
<stop stop-color="#2F00DE"/>
<stop offset="1" stop-color="#2F42FF"/>
</linearGradient>
<linearGradient id="paint51_linear_401_1100" x1="359.352" y1="76.884" x2="426.454" y2="131.452" gradientUnits="userSpaceOnUse">
<stop stop-color="#1B88E8"/>
<stop offset="1" stop-color="#65CAEE"/>
</linearGradient>
<linearGradient id="paint52_linear_401_1100" x1="106.654" y1="332.202" x2="55.2406" y2="368.261" gradientUnits="userSpaceOnUse">
<stop stop-color="#F0FF5F"/>
<stop offset="1" stop-color="#DE7C00"/>
</linearGradient>
<linearGradient id="paint53_linear_401_1100" x1="103.57" y1="334.402" x2="58.2427" y2="366.181" gradientUnits="userSpaceOnUse">
<stop stop-color="#F0FF5F"/>
<stop offset="1" stop-color="#DE7C00"/>
</linearGradient>
<linearGradient id="paint54_linear_401_1100" x1="131.132" y1="340.718" x2="43.4236" y2="358.254" gradientUnits="userSpaceOnUse">
<stop stop-color="#F0FF5F"/>
<stop offset="1" stop-color="#DE7C00"/>
</linearGradient>
<linearGradient id="paint55_linear_401_1100" x1="252.288" y1="366.647" x2="281.815" y2="388.185" gradientUnits="userSpaceOnUse">
<stop stop-color="#F0FF5F"/>
<stop offset="1" stop-color="#DE7C00"/>
</linearGradient>
</defs>
</svg>
