<svg width="24" height="25" viewBox="0 0 24 25" fill="none" xmlns="http://www.w3.org/2000/svg">
    <path d="M2.3999 8.93954C2.3999 7.98476 2.77919 7.06909 3.45432 6.39395C4.12945 5.71882 5.04512 5.33954 5.9999 5.33954H11.9999C12.9547 5.33954 13.8704 5.71882 14.5455 6.39395C15.2206 7.06909 15.5999 7.98476 15.5999 8.93954V16.1395C15.5999 17.0943 15.2206 18.01 14.5455 18.6851C13.8704 19.3603 12.9547 19.7395 11.9999 19.7395H5.9999C5.04512 19.7395 4.12945 19.3603 3.45432 18.6851C2.77919 18.01 2.3999 17.0943 2.3999 16.1395V8.93954ZM19.2443 18.2707L16.7999 16.5823V8.49554L19.2443 6.80834C19.4694 6.65301 19.7326 6.56217 20.0056 6.54563C20.2786 6.52909 20.5508 6.58749 20.793 6.71451C21.0352 6.84152 21.238 7.03233 21.3796 7.26629C21.5212 7.50026 21.5961 7.76847 21.5963 8.04194V17.0359C21.5963 17.3095 21.5216 17.5779 21.3801 17.812C21.2386 18.0461 21.0358 18.2371 20.7936 18.3643C20.5513 18.4915 20.279 18.55 20.0059 18.5335C19.7328 18.517 19.4695 18.4261 19.2443 18.2707Z" fill="url(#paint0_linear_349_1473)"/>
    <defs>
        <linearGradient id="paint0_linear_349_1473" x1="11.9981" y1="5.33954" x2="11.9981" y2="19.7395" gradientUnits="userSpaceOnUse">
            <stop stop-color="#FDAC0E"/>
            <stop offset="1" stop-color="#FE820F"/>
        </linearGradient>
    </defs>
</svg>
