<?xml version="1.0" encoding="UTF-8"?>
<svg version="1.1" xmlns="http://www.w3.org/2000/svg" width="360" height="360">
<path d="M0 0 C0.81609741 0.00149048 1.63219482 0.00298096 2.47302246 0.0045166 C13.76292357 0.04158709 24.77166368 0.34967119 35.82666016 2.86376953 C37.88141281 3.32807189 39.94242375 3.72710151 42.01171875 4.12109375 C71.66782687 10.07621782 100.14819315 26.13735512 121.98022461 46.77050781 C124.6722136 49.34744775 124.6722136 49.34744775 127.8125 51.3125 C127.8125 51.9725 127.8125 52.6325 127.8125 53.3125 C128.4725 53.3125 129.1325 53.3125 129.8125 53.3125 C132.39499242 55.73688064 134.56604831 58.57978596 136.8125 61.3125 C137.22741699 61.81652344 137.64233398 62.32054687 138.06982422 62.83984375 C144.9664071 71.27040457 151.26969434 79.93141859 156.8125 89.3125 C157.18616699 89.94462402 157.55983398 90.57674805 157.94482422 91.22802734 C173.75006799 118.43731055 186.62504754 157.76873977 180.15625 189.53515625 C177.43661129 197.30722722 171.87126039 202.84904982 164.51676941 206.44276428 C158.44440336 208.39573303 151.84009045 207.86492665 145.51757812 207.83007812 C143.86436854 207.83550409 142.2111638 207.84262942 140.55796814 207.85131836 C136.08478546 207.86949827 131.61197327 207.86250633 127.13878441 207.84980202 C122.44867356 207.83964664 117.75859359 207.84907473 113.06848145 207.85534668 C105.19354582 207.8626157 97.31876045 207.85305496 89.44384766 207.83398438 C80.35057741 207.81221706 71.25766595 207.81926896 62.16440439 207.84129 C54.34504334 207.85946525 46.52579006 207.86199194 38.7064147 207.85153532 C34.04152645 207.84531206 29.37680663 207.84443255 24.71192932 207.85768127 C20.32540221 207.86927014 15.93933589 207.8611589 11.55285835 207.83810425 C9.94688747 207.83283332 8.34087754 207.83430318 6.73492241 207.84315491 C-8.18651153 207.91779146 -8.18651153 207.91779146 -15.1875 203.3125 C-16.05375 202.77625 -16.92 202.24 -17.8125 201.6875 C-23.86548518 195.63451482 -27.24750325 188.61235372 -27.4375 180.0625 C-27.29154276 172.0613897 -24.77448407 165.93621084 -19.28125 160.10546875 C-11.27182285 153.2466496 -2.54594354 152.16004388 7.59667969 152.18652344 C8.45931427 152.1846553 9.32194885 152.18278717 10.21072388 152.18086243 C12.07676649 152.17687175 13.94281394 152.17478482 15.80886078 152.17440033 C19.78730521 152.1709661 23.76558895 152.14958032 27.74397659 152.12916946 C35.14118883 152.09125428 42.53822618 152.05988238 49.93554688 152.06201172 C55.09094039 152.06280138 60.24573986 152.0393294 65.40097809 152.0001297 C67.35761083 151.98970981 69.31431247 151.98811591 71.27095795 151.99578094 C85.75948647 152.11658457 85.75948647 152.11658457 98.8125 146.3125 C99.8025 145.9825 100.7925 145.6525 101.8125 145.3125 C102.92724392 143.47439781 102.92724392 143.47439781 103.8125 141.3125 C104.16570312 140.68472656 104.51890625 140.05695313 104.8828125 139.41015625 C108.62923244 132.18095332 109.4209231 124.44166491 106.96484375 116.609375 C103.95022541 110.11006223 99.45754559 104.71056755 94.8125 99.3125 C94.15636719 98.51070313 93.50023437 97.70890625 92.82421875 96.8828125 C73.92182033 74.59862905 44.61727979 60.0438543 15.72265625 56.59375 C-20.69075669 53.97460342 -53.76531481 63.28656913 -81.67578125 87.31787109 C-104.50911174 107.30396286 -120.05327361 135.89771129 -123.1875 166.3125 C-124.89042859 203.69551405 -115.96182935 236.6656173 -90.4375 264.875 C-67.32799247 289.68228941 -38.44333234 301.5677899 -5.14526367 304.1496582 C4.38794934 304.96135678 14.13804459 306.6415053 21.3125 313.48828125 C26.25777713 319.50245943 29.04608283 326.50808546 28.8125 334.3125 C27.9245123 343.41047923 23.72171584 350.03462511 16.94921875 355.98828125 C10.0650549 360.2547009 3.72760723 360.83223993 -4.1875 360.75 C-5.23349365 360.74170166 -6.2794873 360.73340332 -7.35717773 360.72485352 C-32.2431523 360.20178082 -57.11680843 353.79421932 -79.1875 342.3125 C-80.45024405 341.67783443 -81.71327149 341.04373241 -82.9765625 340.41015625 C-95.41819612 334.07154789 -106.40152074 326.18054985 -117.1875 317.3125 C-118.40953125 316.36310547 -118.40953125 316.36310547 -119.65625 315.39453125 C-153.58616368 287.48613003 -174.95719503 242.59992385 -179.1875 199.3125 C-179.34587597 196.39314462 -179.39677961 193.47793678 -179.42578125 190.5546875 C-179.4355751 189.7374118 -179.44536896 188.92013611 -179.45545959 188.07809448 C-179.61987511 170.81129353 -179.70951154 154.10657636 -175.1875 137.3125 C-174.97319336 136.47460938 -174.75888672 135.63671875 -174.53808594 134.7734375 C-167.52974744 107.76022012 -154.36055899 82.00238463 -135.2578125 61.53515625 C-133.39124044 59.53123266 -131.63133926 57.47497085 -129.875 55.375 C-97.62462022 18.72684116 -48.06571005 -0.21729305 0 0 Z " fill="#F8B119" transform="translate(179.1875,-0.3125)"/>
<path d="M0 0 C2.45689178 0.01841748 4.91340715 0.02050768 7.37036133 0.02026367 C8.96346349 0.02517574 10.55656315 0.0310027 12.1496582 0.0378418 C13.22809746 0.03951103 13.22809746 0.03951103 14.32832336 0.04121399 C19.47928763 0.08850479 24.52162907 0.55495941 29.63012695 1.20581055 C29.63012695 1.53581055 29.63012695 1.86581055 29.63012695 2.20581055 C28.62336914 2.36436523 27.61661133 2.52291992 26.5793457 2.6862793 C-3.89596921 7.6602677 -31.72699392 18.37029321 -56.36987305 37.20581055 C-57.23870117 37.86194336 -58.1075293 38.51807617 -59.00268555 39.1940918 C-70.01931471 47.74880544 -79.901673 57.10305937 -88.36987305 68.20581055 C-89.1072168 69.1390918 -89.84456055 70.07237305 -90.60424805 71.03393555 C-107.5156715 92.84384028 -118.95693086 118.18184218 -124.36987305 145.20581055 C-124.52230469 145.95008301 -124.67473633 146.69435547 -124.83178711 147.46118164 C-133.94001261 193.54329445 -122.70218151 242.22481409 -96.8269043 281.0925293 C-92.46675568 287.43847149 -87.70415376 293.34243367 -82.44799805 298.9753418 C-80.53960414 301.02363676 -78.73362579 303.12616652 -76.93237305 305.26831055 C-53.63815249 331.79931346 -18.32780888 348.61521313 15.63012695 356.20581055 C14.63012695 358.20581055 14.63012695 358.20581055 12.24731445 359.30737305 C-16.12145412 366.35361146 -52.221501 355.28861533 -77.36987305 342.20581055 C-78.6326171 341.57114498 -79.89564454 340.93704296 -81.15893555 340.3034668 C-93.60056916 333.96485844 -104.58389378 326.0738604 -115.36987305 317.20581055 C-116.5919043 316.25641602 -116.5919043 316.25641602 -117.83862305 315.2878418 C-151.76853672 287.37944058 -173.13956807 242.4932344 -177.36987305 199.20581055 C-177.52824902 196.28645517 -177.57915266 193.37124732 -177.6081543 190.44799805 C-177.61794815 189.63072235 -177.627742 188.81344666 -177.63783264 187.97140503 C-177.80224816 170.70460408 -177.89188459 153.99988691 -173.36987305 137.20581055 C-173.15556641 136.36791992 -172.94125977 135.5300293 -172.72045898 134.66674805 C-165.71212049 107.65353066 -152.54293204 81.89569518 -133.44018555 61.4284668 C-131.57361348 59.4245432 -129.81371231 57.3682814 -128.05737305 55.26831055 C-103.31088178 27.14729775 -66.89164754 8.85671947 -30.36987305 2.20581055 C-29.35594482 2.01962158 -28.3420166 1.83343262 -27.29736328 1.64160156 C-18.16301384 0.14400464 -9.22694599 -0.07148353 0 0 Z " fill="#55CAF8" transform="translate(177.369873046875,-0.205810546875)"/>
<path d="M0 0 C2.16365322 -0.00961837 4.32631846 -0.04066111 6.48974609 -0.07226562 C18.96425609 -0.16800212 30.86408525 1.57460501 42.63427734 5.92773438 C43.6838562 6.31010254 43.6838562 6.31010254 44.75463867 6.70019531 C71.38262538 16.70025134 96.9556785 35.49093884 110.19677734 61.24023438 C112.69944451 68.74823588 111.77854468 76.86544121 108.52099609 83.98632812 C104.4069389 90.98872045 98.10192121 95.54421743 90.32489204 97.77785873 C86.71629492 98.5618989 83.04104507 98.37540704 79.36425781 98.36621094 C78.02685295 98.36901314 78.02685295 98.36901314 76.66242981 98.37187195 C74.72705245 98.375873 72.79167037 98.37795052 70.85628891 98.37833405 C66.73285806 98.38175676 62.60958386 98.40313151 58.48620796 98.42356491 C50.81256192 98.46153094 43.13908277 98.49285406 35.46533203 98.49072266 C30.12422097 98.48993313 24.78368348 98.51340359 19.44272232 98.55260468 C17.41352038 98.56303089 15.38425196 98.56461375 13.35503769 98.55695343 C-2.89525947 98.21975059 -2.89525947 98.21975059 -16.6789856 105.98028564 C-21.93080196 111.47829854 -23.96348665 116.92826741 -24.36572266 124.42773438 C-24.16481452 131.69391214 -22.10704197 137.38177013 -17.80322266 143.24023438 C-13.60124682 147.0367564 -9.05444977 149.22834068 -3.80322266 151.24023438 C-3.80322266 151.57023438 -3.80322266 151.90023437 -3.80322266 152.24023438 C-10.91979706 152.34199862 -18.03618245 152.41185266 -25.15332031 152.45996094 C-27.57233696 152.48002502 -29.99130541 152.50728281 -32.41015625 152.54199219 C-35.89546633 152.59073778 -39.38013282 152.61325602 -42.86572266 152.63085938 C-43.93999512 152.65150452 -45.01426758 152.67214966 -46.12109375 152.69342041 C-54.15539053 152.69579911 -58.61937948 150.83023253 -65.42822266 146.61523438 C-71.48120783 140.5622492 -74.86322591 133.5400881 -75.05322266 124.99023438 C-74.90726542 116.98912407 -72.39020673 110.86394522 -66.89697266 105.03320312 C-58.8875455 98.17438398 -50.1616662 97.08777825 -40.01904297 97.11425781 C-38.72509109 97.11145561 -38.72509109 97.11145561 -37.40499878 97.1085968 C-35.53895617 97.10460612 -33.67290872 97.10251919 -31.80686188 97.1021347 C-27.82841744 97.09870048 -23.85013371 97.0773147 -19.87174606 97.05690384 C-12.47453383 97.01898865 -5.07749648 96.98761676 2.31982422 96.98974609 C7.47521774 96.99053576 12.63001721 96.96706378 17.78525543 96.92786407 C19.74188818 96.91744419 21.69858981 96.91585028 23.65523529 96.92351532 C38.14376381 97.04431894 38.14376381 97.04431894 51.19677734 91.24023438 C52.18677734 90.91023438 53.17677734 90.58023438 54.19677734 90.24023438 C55.31152127 88.40213219 55.31152127 88.40213219 56.19677734 86.24023438 C56.54998047 85.61246094 56.90318359 84.9846875 57.26708984 84.33789062 C61.01350979 77.1086877 61.80520044 69.36939929 59.34912109 61.53710938 C56.33450275 55.0377966 51.84182294 49.63830193 47.19677734 44.24023438 C46.54064453 43.4384375 45.88451172 42.63664062 45.20849609 41.81054688 C27.63036983 21.08755809 3.83391646 10.37853733 -21.80322266 3.24023438 C-21.47322266 2.58023438 -21.14322266 1.92023437 -20.80322266 1.24023438 C-13.92971523 -0.11672065 -6.9764662 0.01866613 0 0 Z " fill="#56CAF7" transform="translate(226.80322265625,54.759765625)"/>
</svg>
